<?xml version="1.0"?>
<!DOCTYPE lmms-project>
<lmms-project version="1.0" type="song" creatorversion="1.2.2" creator="LMMS">
  <head mastervol="100" timesig_numerator="4" masterpitch="0" bpm="120" timesig_denominator="4"/>
  <song>
    <trackcontainer x="16" type="song" y="13" width="1625" visible="1" height="393" minimized="0" maximized="0">
      <track type="0" name="Guitar" solo="0" muted="0">
        <instrumenttrack vol="100" pitchrange="1" fxch="0" pitch="0" pan="0" basenote="57" usemasterpitch="1">
          <instrument name="sf2player">
            <sf2player reverbWidth="0.5" gain="1" reverbLevel="0.89999998" patch="27" reverbRoomSize="0.2" chorusLevel="2" reverbDamping="0.2" chorusNum="0.89999998" reverbOn="0" chorusSpeed="0.30000001" src="soundfonts/GeneralUser GS v1.471.sf2" chorusDepth="8" bank="0" chorusOn="0"/>
          </instrument>
          <eldata fres="0.5" fcut="14000" ftype="0" fwet="0">
            <elvol latt="0" lspd_syncmode="0" lspd_denominator="4" lpdel="0" x100="0" hold="0.5" sustain="0.5" pdel="0" userwavefile="" rel="0.1" lamt="0" att="0" dec="0.5" lspd="0.1" lspd_numerator="4" amt="0" lshp="0" ctlenvamt="0"/>
            <elcut latt="0" lspd_syncmode="0" lspd_denominator="4" lpdel="0" x100="0" hold="0.5" sustain="0.5" pdel="0" userwavefile="" rel="0.1" lamt="0" att="0" dec="0.5" lspd="0.1" lspd_numerator="4" amt="0" lshp="0" ctlenvamt="0"/>
            <elres latt="0" lspd_syncmode="0" lspd_denominator="4" lpdel="0" x100="0" hold="0.5" sustain="0.5" pdel="0" userwavefile="" rel="0.1" lamt="0" att="0" dec="0.5" lspd="0.1" lspd_numerator="4" amt="0" lshp="0" ctlenvamt="0"/>
          </eldata>
          <chordcreator chord-enabled="0" chordrange="1" chord="0"/>
          <arpeggiator arpgate="100" arpmiss="0" arptime_syncmode="0" arpskip="0" arpmode="0" arpcycle="0" arprange="1" arptime_numerator="4" arpdir="0" arp="0" arptime="200" arp-enabled="0" arptime_denominator="4"/>
          <midiport fixedoutputnote="-1" writable="0" outputcontroller="0" fixedoutputvelocity="-1" inputchannel="0" outputchannel="1" basevelocity="63" inputcontroller="0" outputprogram="1" fixedinputvelocity="-1" readable="0"/>
          <fxchain enabled="0" numofeffects="0"/>
        </instrumenttrack>
        <pattern type="1" name="Guitar" steps="16" muted="0" pos="6144">
          <note vol="100" key="31" pan="0" pos="0" len="72"/>
          <note vol="112" key="31" pan="0" pos="72" len="72"/>
          <note vol="119" key="31" pan="0" pos="144" len="72"/>
          <note vol="121" key="31" pan="0" pos="216" len="72"/>
          <note vol="114" key="31" pan="0" pos="288" len="48"/>
          <note vol="112" key="31" pan="0" pos="336" len="48"/>
          <note vol="100" key="30" pan="0" pos="384" len="72"/>
          <note vol="117" key="30" pan="0" pos="456" len="72"/>
          <note vol="127" key="30" pan="0" pos="528" len="72"/>
          <note vol="127" key="30" pan="0" pos="600" len="72"/>
          <note vol="112" key="30" pan="0" pos="672" len="48"/>
          <note vol="123" key="30" pan="0" pos="720" len="48"/>
          <note vol="125" key="31" pan="0" pos="768" len="72"/>
          <note vol="120" key="31" pan="0" pos="840" len="72"/>
          <note vol="126" key="31" pan="0" pos="912" len="72"/>
          <note vol="130" key="31" pan="0" pos="984" len="72"/>
          <note vol="127" key="31" pan="0" pos="1056" len="24"/>
          <note vol="127" key="31" pan="0" pos="1104" len="24"/>
          <note vol="110" key="30" pan="0" pos="1152" len="72"/>
          <note vol="117" key="30" pan="0" pos="1224" len="72"/>
          <note vol="123" key="30" pan="0" pos="1296" len="72"/>
          <note vol="127" key="30" pan="0" pos="1368" len="72"/>
          <note vol="123" key="28" pan="0" pos="1440" len="48"/>
          <note vol="100" key="28" pan="0" pos="1488" len="24"/>
          <note vol="121" key="30" pan="0" pos="1512" len="24"/>
        </pattern>
        <pattern type="1" name="Guitar" steps="16" muted="0" pos="7680">
          <note vol="100" key="31" pan="0" pos="0" len="72"/>
          <note vol="112" key="31" pan="0" pos="72" len="72"/>
          <note vol="119" key="31" pan="0" pos="144" len="72"/>
          <note vol="121" key="31" pan="0" pos="216" len="72"/>
          <note vol="114" key="31" pan="0" pos="288" len="48"/>
          <note vol="112" key="31" pan="0" pos="336" len="48"/>
          <note vol="100" key="30" pan="0" pos="384" len="72"/>
          <note vol="117" key="30" pan="0" pos="456" len="72"/>
          <note vol="127" key="30" pan="0" pos="528" len="72"/>
          <note vol="127" key="30" pan="0" pos="600" len="72"/>
          <note vol="112" key="30" pan="0" pos="672" len="48"/>
          <note vol="123" key="30" pan="0" pos="720" len="48"/>
          <note vol="125" key="31" pan="0" pos="768" len="72"/>
          <note vol="120" key="31" pan="0" pos="840" len="72"/>
          <note vol="126" key="31" pan="0" pos="912" len="72"/>
          <note vol="130" key="31" pan="0" pos="984" len="72"/>
          <note vol="127" key="33" pan="0" pos="1056" len="24"/>
          <note vol="127" key="31" pan="0" pos="1104" len="24"/>
          <note vol="110" key="30" pan="0" pos="1152" len="72"/>
          <note vol="117" key="30" pan="0" pos="1224" len="72"/>
          <note vol="123" key="30" pan="0" pos="1296" len="72"/>
          <note vol="127" key="30" pan="0" pos="1368" len="72"/>
          <note vol="123" key="28" pan="0" pos="1440" len="48"/>
          <note vol="100" key="28" pan="0" pos="1488" len="24"/>
          <note vol="121" key="30" pan="0" pos="1512" len="24"/>
        </pattern>
        <pattern type="1" name="" steps="16" muted="0" pos="9216">
          <note vol="100" key="31" pan="0" pos="0" len="72"/>
          <note vol="112" key="31" pan="0" pos="72" len="72"/>
          <note vol="119" key="31" pan="0" pos="144" len="72"/>
          <note vol="121" key="31" pan="0" pos="216" len="72"/>
          <note vol="114" key="31" pan="0" pos="288" len="48"/>
          <note vol="112" key="31" pan="0" pos="336" len="48"/>
          <note vol="100" key="30" pan="0" pos="384" len="72"/>
          <note vol="117" key="30" pan="0" pos="456" len="72"/>
          <note vol="127" key="30" pan="0" pos="528" len="72"/>
          <note vol="127" key="30" pan="0" pos="600" len="72"/>
          <note vol="112" key="30" pan="0" pos="672" len="48"/>
          <note vol="123" key="30" pan="0" pos="720" len="48"/>
          <note vol="125" key="31" pan="0" pos="768" len="72"/>
          <note vol="120" key="31" pan="0" pos="840" len="72"/>
          <note vol="126" key="31" pan="0" pos="912" len="72"/>
          <note vol="130" key="31" pan="0" pos="984" len="72"/>
          <note vol="127" key="31" pan="0" pos="1056" len="24"/>
          <note vol="127" key="31" pan="0" pos="1104" len="24"/>
          <note vol="110" key="30" pan="0" pos="1152" len="72"/>
          <note vol="117" key="30" pan="0" pos="1224" len="72"/>
          <note vol="123" key="30" pan="0" pos="1296" len="72"/>
          <note vol="127" key="30" pan="0" pos="1368" len="72"/>
          <note vol="123" key="28" pan="0" pos="1440" len="48"/>
          <note vol="100" key="28" pan="0" pos="1488" len="24"/>
          <note vol="121" key="30" pan="0" pos="1512" len="24"/>
        </pattern>
        <pattern type="1" name="" steps="16" muted="0" pos="10752">
          <note vol="100" key="31" pan="0" pos="0" len="72"/>
          <note vol="112" key="31" pan="0" pos="72" len="72"/>
          <note vol="119" key="31" pan="0" pos="144" len="72"/>
          <note vol="121" key="31" pan="0" pos="216" len="72"/>
          <note vol="114" key="31" pan="0" pos="288" len="12"/>
          <note vol="114" key="33" pan="0" pos="312" len="24"/>
          <note vol="112" key="31" pan="0" pos="336" len="48"/>
          <note vol="100" key="30" pan="0" pos="384" len="72"/>
          <note vol="117" key="30" pan="0" pos="456" len="72"/>
          <note vol="127" key="30" pan="0" pos="528" len="72"/>
          <note vol="127" key="30" pan="0" pos="600" len="72"/>
          <note vol="112" key="30" pan="0" pos="672" len="48"/>
          <note vol="123" key="30" pan="0" pos="720" len="48"/>
          <note vol="125" key="31" pan="0" pos="768" len="72"/>
          <note vol="120" key="31" pan="0" pos="840" len="72"/>
          <note vol="126" key="31" pan="0" pos="912" len="72"/>
          <note vol="130" key="31" pan="0" pos="984" len="72"/>
          <note vol="127" key="33" pan="0" pos="1056" len="24"/>
          <note vol="127" key="31" pan="0" pos="1104" len="24"/>
          <note vol="110" key="30" pan="0" pos="1152" len="72"/>
          <note vol="117" key="30" pan="0" pos="1224" len="72"/>
          <note vol="123" key="30" pan="0" pos="1296" len="72"/>
          <note vol="127" key="30" pan="0" pos="1368" len="72"/>
          <note vol="123" key="28" pan="0" pos="1440" len="48"/>
          <note vol="100" key="28" pan="0" pos="1488" len="24"/>
          <note vol="121" key="30" pan="0" pos="1512" len="24"/>
        </pattern>
        <pattern type="1" name="" steps="16" muted="0" pos="12288">
          <note vol="100" key="31" pan="0" pos="0" len="72"/>
          <note vol="112" key="31" pan="0" pos="72" len="72"/>
          <note vol="119" key="31" pan="0" pos="144" len="72"/>
          <note vol="121" key="31" pan="0" pos="216" len="72"/>
          <note vol="114" key="31" pan="0" pos="288" len="48"/>
          <note vol="112" key="31" pan="0" pos="336" len="48"/>
          <note vol="100" key="30" pan="0" pos="384" len="72"/>
          <note vol="117" key="30" pan="0" pos="456" len="72"/>
          <note vol="127" key="30" pan="0" pos="528" len="72"/>
          <note vol="127" key="30" pan="0" pos="600" len="72"/>
          <note vol="112" key="30" pan="0" pos="672" len="48"/>
          <note vol="123" key="30" pan="0" pos="720" len="48"/>
          <note vol="125" key="31" pan="0" pos="768" len="72"/>
          <note vol="120" key="31" pan="0" pos="840" len="72"/>
          <note vol="126" key="31" pan="0" pos="912" len="72"/>
          <note vol="130" key="31" pan="0" pos="984" len="72"/>
          <note vol="127" key="31" pan="0" pos="1056" len="24"/>
          <note vol="127" key="31" pan="0" pos="1104" len="24"/>
          <note vol="110" key="30" pan="0" pos="1152" len="72"/>
          <note vol="117" key="30" pan="0" pos="1224" len="72"/>
          <note vol="123" key="30" pan="0" pos="1296" len="72"/>
          <note vol="127" key="30" pan="0" pos="1368" len="72"/>
          <note vol="123" key="30" pan="0" pos="1440" len="48"/>
          <note vol="100" key="30" pan="0" pos="1488" len="24"/>
          <note vol="121" key="30" pan="0" pos="1512" len="24"/>
        </pattern>
        <pattern type="1" name="" steps="16" muted="0" pos="13824">
          <note vol="100" key="31" pan="0" pos="0" len="72"/>
          <note vol="112" key="31" pan="0" pos="72" len="72"/>
          <note vol="119" key="31" pan="0" pos="144" len="72"/>
          <note vol="121" key="31" pan="0" pos="216" len="72"/>
          <note vol="114" key="31" pan="0" pos="288" len="48"/>
          <note vol="112" key="31" pan="0" pos="336" len="48"/>
          <note vol="100" key="30" pan="0" pos="384" len="72"/>
          <note vol="117" key="30" pan="0" pos="456" len="72"/>
          <note vol="127" key="30" pan="0" pos="528" len="72"/>
          <note vol="127" key="30" pan="0" pos="600" len="72"/>
          <note vol="112" key="30" pan="0" pos="672" len="48"/>
          <note vol="123" key="30" pan="0" pos="720" len="48"/>
          <note vol="125" key="31" pan="0" pos="768" len="72"/>
          <note vol="120" key="31" pan="0" pos="840" len="72"/>
          <note vol="126" key="31" pan="0" pos="912" len="72"/>
          <note vol="130" key="31" pan="0" pos="984" len="72"/>
          <note vol="127" key="33" pan="0" pos="1056" len="24"/>
          <note vol="127" key="31" pan="0" pos="1104" len="24"/>
          <note vol="110" key="30" pan="0" pos="1152" len="72"/>
          <note vol="117" key="30" pan="0" pos="1224" len="72"/>
          <note vol="123" key="30" pan="0" pos="1296" len="72"/>
          <note vol="127" key="30" pan="0" pos="1368" len="72"/>
          <note vol="123" key="28" pan="0" pos="1440" len="48"/>
          <note vol="100" key="28" pan="0" pos="1488" len="24"/>
          <note vol="121" key="30" pan="0" pos="1512" len="24"/>
        </pattern>
      </track>
      <track type="0" name="DIstortion Guitar" solo="0" muted="0">
        <instrumenttrack vol="60" pitchrange="1" fxch="0" pitch="0" pan="-20" basenote="57" usemasterpitch="1">
          <instrument name="sf2player">
            <sf2player reverbWidth="0.5" gain="1" reverbLevel="0.89999998" patch="30" reverbRoomSize="0.2" chorusLevel="2" reverbDamping="0.2" chorusNum="3" reverbOn="0" chorusSpeed="0.30000001" src="soundfonts/GeneralUser GS v1.471.sf2" chorusDepth="8" bank="0" chorusOn="1"/>
          </instrument>
          <eldata fres="0.5" fcut="14000" ftype="0" fwet="0">
            <elvol latt="0" lspd_syncmode="0" lspd_denominator="4" lpdel="0" x100="0" hold="0.5" sustain="0.5" pdel="0" userwavefile="" rel="0.1" lamt="0" att="0" dec="0.5" lspd="0.1" lspd_numerator="4" amt="0" lshp="0" ctlenvamt="0"/>
            <elcut latt="0" lspd_syncmode="0" lspd_denominator="4" lpdel="0" x100="0" hold="0.5" sustain="0.5" pdel="0" userwavefile="" rel="0.1" lamt="0" att="0" dec="0.5" lspd="0.1" lspd_numerator="4" amt="0" lshp="0" ctlenvamt="0"/>
            <elres latt="0" lspd_syncmode="0" lspd_denominator="4" lpdel="0" x100="0" hold="0.5" sustain="0.5" pdel="0" userwavefile="" rel="0.1" lamt="0" att="0" dec="0.5" lspd="0.1" lspd_numerator="4" amt="0" lshp="0" ctlenvamt="0"/>
          </eldata>
          <chordcreator chord-enabled="0" chordrange="1" chord="0"/>
          <arpeggiator arpgate="100" arpmiss="0" arptime_syncmode="0" arpskip="0" arpmode="0" arpcycle="0" arprange="1" arptime_numerator="4" arpdir="0" arp="0" arptime="200" arp-enabled="0" arptime_denominator="4"/>
          <midiport fixedoutputnote="-1" writable="0" outputcontroller="0" fixedoutputvelocity="-1" inputchannel="0" outputchannel="1" basevelocity="63" inputcontroller="0" outputprogram="1" fixedinputvelocity="-1" readable="0"/>
          <fxchain enabled="0" numofeffects="0"/>
        </instrumenttrack>
        <pattern type="1" name="DIstortion Guitar" steps="16" muted="0" pos="6144">
          <note vol="100" key="31" pan="0" pos="0" len="72"/>
          <note vol="112" key="31" pan="0" pos="72" len="72"/>
          <note vol="119" key="31" pan="0" pos="144" len="72"/>
          <note vol="121" key="31" pan="0" pos="216" len="72"/>
          <note vol="114" key="31" pan="0" pos="288" len="48"/>
          <note vol="112" key="31" pan="0" pos="336" len="48"/>
          <note vol="100" key="30" pan="0" pos="384" len="72"/>
          <note vol="117" key="30" pan="0" pos="456" len="72"/>
          <note vol="127" key="30" pan="0" pos="528" len="72"/>
          <note vol="127" key="30" pan="0" pos="600" len="72"/>
          <note vol="112" key="30" pan="0" pos="672" len="48"/>
          <note vol="123" key="30" pan="0" pos="720" len="48"/>
          <note vol="125" key="31" pan="0" pos="768" len="72"/>
          <note vol="120" key="31" pan="0" pos="840" len="72"/>
          <note vol="126" key="31" pan="0" pos="912" len="72"/>
          <note vol="130" key="31" pan="0" pos="984" len="72"/>
          <note vol="127" key="31" pan="0" pos="1056" len="24"/>
          <note vol="127" key="31" pan="0" pos="1104" len="24"/>
          <note vol="110" key="30" pan="0" pos="1152" len="72"/>
          <note vol="117" key="30" pan="0" pos="1224" len="72"/>
          <note vol="123" key="30" pan="0" pos="1296" len="72"/>
          <note vol="127" key="30" pan="0" pos="1368" len="72"/>
          <note vol="123" key="28" pan="0" pos="1440" len="48"/>
          <note vol="100" key="28" pan="0" pos="1488" len="24"/>
          <note vol="121" key="30" pan="0" pos="1512" len="24"/>
        </pattern>
        <pattern type="1" name="DIstortion Guitar" steps="16" muted="0" pos="7680">
          <note vol="100" key="31" pan="0" pos="0" len="72"/>
          <note vol="112" key="31" pan="0" pos="72" len="72"/>
          <note vol="119" key="31" pan="0" pos="144" len="72"/>
          <note vol="121" key="31" pan="0" pos="216" len="72"/>
          <note vol="114" key="31" pan="0" pos="288" len="48"/>
          <note vol="112" key="31" pan="0" pos="336" len="48"/>
          <note vol="100" key="30" pan="0" pos="384" len="72"/>
          <note vol="117" key="30" pan="0" pos="456" len="72"/>
          <note vol="127" key="30" pan="0" pos="528" len="72"/>
          <note vol="127" key="30" pan="0" pos="600" len="72"/>
          <note vol="112" key="30" pan="0" pos="672" len="48"/>
          <note vol="123" key="30" pan="0" pos="720" len="48"/>
          <note vol="125" key="31" pan="0" pos="768" len="72"/>
          <note vol="120" key="31" pan="0" pos="840" len="72"/>
          <note vol="126" key="31" pan="0" pos="912" len="72"/>
          <note vol="130" key="31" pan="0" pos="984" len="72"/>
          <note vol="127" key="31" pan="0" pos="1056" len="24"/>
          <note vol="127" key="31" pan="0" pos="1104" len="24"/>
          <note vol="110" key="30" pan="0" pos="1152" len="72"/>
          <note vol="117" key="30" pan="0" pos="1224" len="72"/>
          <note vol="123" key="30" pan="0" pos="1296" len="72"/>
          <note vol="127" key="30" pan="0" pos="1368" len="72"/>
          <note vol="123" key="28" pan="0" pos="1440" len="48"/>
          <note vol="100" key="28" pan="0" pos="1488" len="24"/>
          <note vol="121" key="30" pan="0" pos="1512" len="24"/>
        </pattern>
        <pattern type="1" name="" steps="16" muted="0" pos="9216">
          <note vol="100" key="31" pan="0" pos="0" len="72"/>
          <note vol="112" key="31" pan="0" pos="72" len="72"/>
          <note vol="119" key="31" pan="0" pos="144" len="72"/>
          <note vol="121" key="31" pan="0" pos="216" len="72"/>
          <note vol="114" key="31" pan="0" pos="288" len="48"/>
          <note vol="112" key="31" pan="0" pos="336" len="48"/>
          <note vol="100" key="30" pan="0" pos="384" len="72"/>
          <note vol="117" key="30" pan="0" pos="456" len="72"/>
          <note vol="127" key="30" pan="0" pos="528" len="72"/>
          <note vol="127" key="30" pan="0" pos="600" len="72"/>
          <note vol="112" key="30" pan="0" pos="672" len="48"/>
          <note vol="123" key="30" pan="0" pos="720" len="48"/>
          <note vol="125" key="31" pan="0" pos="768" len="72"/>
          <note vol="120" key="31" pan="0" pos="840" len="72"/>
          <note vol="126" key="31" pan="0" pos="912" len="72"/>
          <note vol="130" key="31" pan="0" pos="984" len="72"/>
          <note vol="127" key="31" pan="0" pos="1056" len="24"/>
          <note vol="127" key="31" pan="0" pos="1104" len="24"/>
          <note vol="110" key="30" pan="0" pos="1152" len="72"/>
          <note vol="117" key="30" pan="0" pos="1224" len="72"/>
          <note vol="123" key="30" pan="0" pos="1296" len="72"/>
          <note vol="127" key="30" pan="0" pos="1368" len="72"/>
          <note vol="123" key="28" pan="0" pos="1440" len="48"/>
          <note vol="100" key="28" pan="0" pos="1488" len="24"/>
          <note vol="121" key="30" pan="0" pos="1512" len="24"/>
        </pattern>
        <pattern type="1" name="" steps="16" muted="0" pos="10752">
          <note vol="100" key="31" pan="0" pos="0" len="72"/>
          <note vol="112" key="31" pan="0" pos="72" len="72"/>
          <note vol="119" key="31" pan="0" pos="144" len="72"/>
          <note vol="121" key="31" pan="0" pos="216" len="72"/>
          <note vol="114" key="31" pan="0" pos="288" len="12"/>
          <note vol="114" key="33" pan="0" pos="312" len="24"/>
          <note vol="112" key="31" pan="0" pos="336" len="48"/>
          <note vol="100" key="30" pan="0" pos="384" len="72"/>
          <note vol="117" key="30" pan="0" pos="456" len="72"/>
          <note vol="127" key="30" pan="0" pos="528" len="72"/>
          <note vol="127" key="30" pan="0" pos="600" len="72"/>
          <note vol="112" key="30" pan="0" pos="672" len="48"/>
          <note vol="123" key="30" pan="0" pos="720" len="48"/>
          <note vol="125" key="31" pan="0" pos="768" len="72"/>
          <note vol="120" key="31" pan="0" pos="840" len="72"/>
          <note vol="126" key="31" pan="0" pos="912" len="72"/>
          <note vol="130" key="31" pan="0" pos="984" len="72"/>
          <note vol="127" key="31" pan="0" pos="1056" len="24"/>
          <note vol="127" key="31" pan="0" pos="1104" len="24"/>
          <note vol="110" key="30" pan="0" pos="1152" len="72"/>
          <note vol="117" key="30" pan="0" pos="1224" len="72"/>
          <note vol="123" key="30" pan="0" pos="1296" len="72"/>
          <note vol="127" key="30" pan="0" pos="1368" len="72"/>
          <note vol="123" key="28" pan="0" pos="1440" len="48"/>
          <note vol="100" key="28" pan="0" pos="1488" len="24"/>
          <note vol="121" key="30" pan="0" pos="1512" len="24"/>
        </pattern>
        <pattern type="1" name="" steps="16" muted="0" pos="12288">
          <note vol="100" key="31" pan="0" pos="0" len="72"/>
          <note vol="112" key="31" pan="0" pos="72" len="72"/>
          <note vol="119" key="31" pan="0" pos="144" len="72"/>
          <note vol="121" key="31" pan="0" pos="216" len="72"/>
          <note vol="114" key="31" pan="0" pos="288" len="48"/>
          <note vol="112" key="31" pan="0" pos="336" len="48"/>
          <note vol="100" key="30" pan="0" pos="384" len="72"/>
          <note vol="117" key="30" pan="0" pos="456" len="72"/>
          <note vol="127" key="30" pan="0" pos="528" len="72"/>
          <note vol="127" key="30" pan="0" pos="600" len="72"/>
          <note vol="112" key="30" pan="0" pos="672" len="48"/>
          <note vol="123" key="30" pan="0" pos="720" len="48"/>
          <note vol="125" key="31" pan="0" pos="768" len="72"/>
          <note vol="120" key="31" pan="0" pos="840" len="72"/>
          <note vol="126" key="31" pan="0" pos="912" len="72"/>
          <note vol="130" key="31" pan="0" pos="984" len="72"/>
          <note vol="127" key="31" pan="0" pos="1056" len="24"/>
          <note vol="127" key="31" pan="0" pos="1104" len="24"/>
          <note vol="110" key="30" pan="0" pos="1152" len="72"/>
          <note vol="117" key="30" pan="0" pos="1224" len="72"/>
          <note vol="123" key="30" pan="0" pos="1296" len="72"/>
          <note vol="127" key="30" pan="0" pos="1368" len="72"/>
          <note vol="123" key="30" pan="0" pos="1440" len="48"/>
          <note vol="100" key="30" pan="0" pos="1488" len="24"/>
          <note vol="121" key="30" pan="0" pos="1512" len="24"/>
        </pattern>
        <pattern type="1" name="" steps="16" muted="0" pos="13824">
          <note vol="100" key="31" pan="0" pos="0" len="72"/>
          <note vol="112" key="31" pan="0" pos="72" len="72"/>
          <note vol="119" key="31" pan="0" pos="144" len="72"/>
          <note vol="121" key="31" pan="0" pos="216" len="72"/>
          <note vol="114" key="31" pan="0" pos="288" len="48"/>
          <note vol="112" key="31" pan="0" pos="336" len="48"/>
          <note vol="100" key="30" pan="0" pos="384" len="72"/>
          <note vol="117" key="30" pan="0" pos="456" len="72"/>
          <note vol="127" key="30" pan="0" pos="528" len="72"/>
          <note vol="127" key="30" pan="0" pos="600" len="72"/>
          <note vol="112" key="30" pan="0" pos="672" len="48"/>
          <note vol="123" key="30" pan="0" pos="720" len="48"/>
          <note vol="125" key="31" pan="0" pos="768" len="72"/>
          <note vol="120" key="31" pan="0" pos="840" len="72"/>
          <note vol="126" key="31" pan="0" pos="912" len="72"/>
          <note vol="130" key="31" pan="0" pos="984" len="72"/>
          <note vol="127" key="31" pan="0" pos="1056" len="24"/>
          <note vol="127" key="31" pan="0" pos="1104" len="24"/>
          <note vol="110" key="30" pan="0" pos="1152" len="72"/>
          <note vol="117" key="30" pan="0" pos="1224" len="72"/>
          <note vol="123" key="30" pan="0" pos="1296" len="72"/>
          <note vol="127" key="30" pan="0" pos="1368" len="72"/>
          <note vol="123" key="30" pan="0" pos="1440" len="48"/>
          <note vol="100" key="30" pan="0" pos="1488" len="24"/>
          <note vol="121" key="30" pan="0" pos="1512" len="24"/>
        </pattern>
      </track>
      <track type="0" name="Bass (Overdrive Guitar)" solo="0" muted="0">
        <instrumenttrack vol="54" pitchrange="1" fxch="0" pitch="0" pan="20" basenote="57" usemasterpitch="1">
          <instrument name="sf2player">
            <sf2player reverbWidth="0.5" gain="1" reverbLevel="0.89999998" patch="29" reverbRoomSize="0.2" chorusLevel="2" reverbDamping="0.2" chorusNum="3" reverbOn="0" chorusSpeed="0.30000001" src="soundfonts/GeneralUser GS v1.471.sf2" chorusDepth="8" bank="0" chorusOn="1"/>
          </instrument>
          <eldata fres="0.5" fcut="14000" ftype="0" fwet="0">
            <elvol latt="0" lspd_syncmode="0" lspd_denominator="4" lpdel="0" x100="0" hold="0.5" sustain="0.5" pdel="0" userwavefile="" rel="0.1" lamt="0" att="0" dec="0.5" lspd="0.1" lspd_numerator="4" amt="0" lshp="0" ctlenvamt="0"/>
            <elcut latt="0" lspd_syncmode="0" lspd_denominator="4" lpdel="0" x100="0" hold="0.5" sustain="0.5" pdel="0" userwavefile="" rel="0.1" lamt="0" att="0" dec="0.5" lspd="0.1" lspd_numerator="4" amt="0" lshp="0" ctlenvamt="0"/>
            <elres latt="0" lspd_syncmode="0" lspd_denominator="4" lpdel="0" x100="0" hold="0.5" sustain="0.5" pdel="0" userwavefile="" rel="0.1" lamt="0" att="0" dec="0.5" lspd="0.1" lspd_numerator="4" amt="0" lshp="0" ctlenvamt="0"/>
          </eldata>
          <chordcreator chord-enabled="0" chordrange="1" chord="0"/>
          <arpeggiator arpgate="100" arpmiss="0" arptime_syncmode="0" arpskip="0" arpmode="0" arpcycle="0" arprange="1" arptime_numerator="4" arpdir="0" arp="0" arptime="200" arp-enabled="0" arptime_denominator="4"/>
          <midiport fixedoutputnote="-1" writable="0" outputcontroller="0" fixedoutputvelocity="-1" inputchannel="0" outputchannel="1" basevelocity="63" inputcontroller="0" outputprogram="1" fixedinputvelocity="-1" readable="0"/>
          <fxchain enabled="0" numofeffects="0"/>
        </instrumenttrack>
        <pattern type="1" name="Bass (Overdrive Guitar)" steps="16" muted="0" pos="3072">
          <note vol="63" key="31" pan="0" pos="0" len="24"/>
          <note vol="78" key="31" pan="0" pos="24" len="24"/>
          <note vol="97" key="31" pan="0" pos="48" len="24"/>
          <note vol="108" key="31" pan="0" pos="72" len="24"/>
          <note vol="102" key="31" pan="0" pos="96" len="24"/>
          <note vol="91" key="31" pan="0" pos="120" len="24"/>
          <note vol="82" key="31" pan="0" pos="144" len="24"/>
          <note vol="95" key="31" pan="0" pos="168" len="24"/>
          <note vol="102" key="31" pan="0" pos="192" len="24"/>
          <note vol="114" key="31" pan="0" pos="216" len="24"/>
          <note vol="104" key="31" pan="0" pos="240" len="24"/>
          <note vol="91" key="31" pan="0" pos="264" len="24"/>
          <note vol="133" key="31" pan="0" pos="288" len="12"/>
          <note vol="139" key="31" pan="0" pos="312" len="12"/>
          <note vol="133" key="31" pan="0" pos="336" len="12"/>
          <note vol="139" key="31" pan="0" pos="360" len="12"/>
          <note vol="63" key="30" pan="0" pos="384" len="24"/>
          <note vol="78" key="30" pan="0" pos="408" len="24"/>
          <note vol="97" key="30" pan="0" pos="432" len="24"/>
          <note vol="108" key="30" pan="0" pos="456" len="24"/>
          <note vol="102" key="30" pan="0" pos="480" len="24"/>
          <note vol="91" key="30" pan="0" pos="504" len="24"/>
          <note vol="82" key="30" pan="0" pos="528" len="24"/>
          <note vol="95" key="30" pan="0" pos="552" len="24"/>
          <note vol="102" key="30" pan="0" pos="576" len="24"/>
          <note vol="114" key="30" pan="0" pos="600" len="24"/>
          <note vol="104" key="30" pan="0" pos="624" len="24"/>
          <note vol="91" key="30" pan="0" pos="648" len="24"/>
          <note vol="133" key="30" pan="0" pos="672" len="12"/>
          <note vol="139" key="30" pan="0" pos="696" len="12"/>
          <note vol="133" key="30" pan="0" pos="720" len="12"/>
          <note vol="139" key="30" pan="0" pos="744" len="12"/>
          <note vol="63" key="31" pan="0" pos="768" len="24"/>
          <note vol="78" key="31" pan="0" pos="792" len="24"/>
          <note vol="97" key="31" pan="0" pos="816" len="24"/>
          <note vol="108" key="31" pan="0" pos="840" len="24"/>
          <note vol="102" key="31" pan="0" pos="864" len="24"/>
          <note vol="91" key="31" pan="0" pos="888" len="24"/>
          <note vol="82" key="31" pan="0" pos="912" len="24"/>
          <note vol="95" key="31" pan="0" pos="936" len="24"/>
          <note vol="102" key="31" pan="0" pos="960" len="24"/>
          <note vol="114" key="31" pan="0" pos="984" len="24"/>
          <note vol="104" key="31" pan="0" pos="1008" len="24"/>
          <note vol="91" key="31" pan="0" pos="1032" len="24"/>
          <note vol="133" key="31" pan="0" pos="1056" len="12"/>
          <note vol="139" key="31" pan="0" pos="1080" len="12"/>
          <note vol="133" key="31" pan="0" pos="1104" len="12"/>
          <note vol="139" key="31" pan="0" pos="1128" len="12"/>
          <note vol="63" key="30" pan="0" pos="1152" len="24"/>
          <note vol="78" key="30" pan="0" pos="1176" len="24"/>
          <note vol="97" key="30" pan="0" pos="1200" len="24"/>
          <note vol="108" key="30" pan="0" pos="1224" len="24"/>
          <note vol="102" key="30" pan="0" pos="1248" len="24"/>
          <note vol="91" key="30" pan="0" pos="1272" len="24"/>
          <note vol="82" key="30" pan="0" pos="1296" len="24"/>
          <note vol="95" key="30" pan="0" pos="1320" len="24"/>
          <note vol="102" key="30" pan="0" pos="1344" len="24"/>
          <note vol="114" key="30" pan="0" pos="1368" len="24"/>
          <note vol="104" key="30" pan="0" pos="1392" len="24"/>
          <note vol="91" key="30" pan="0" pos="1416" len="24"/>
          <note vol="133" key="30" pan="0" pos="1440" len="12"/>
          <note vol="139" key="30" pan="0" pos="1464" len="12"/>
          <note vol="133" key="30" pan="0" pos="1488" len="12"/>
          <note vol="139" key="30" pan="0" pos="1512" len="12"/>
        </pattern>
        <pattern type="1" name="Bass (Overdrive Guitar)" steps="16" muted="0" pos="4608">
          <note vol="63" key="31" pan="0" pos="0" len="24"/>
          <note vol="78" key="31" pan="0" pos="24" len="24"/>
          <note vol="97" key="31" pan="0" pos="48" len="24"/>
          <note vol="108" key="31" pan="0" pos="72" len="24"/>
          <note vol="102" key="31" pan="0" pos="96" len="24"/>
          <note vol="91" key="31" pan="0" pos="120" len="24"/>
          <note vol="82" key="31" pan="0" pos="144" len="24"/>
          <note vol="95" key="31" pan="0" pos="168" len="24"/>
          <note vol="102" key="31" pan="0" pos="192" len="24"/>
          <note vol="114" key="31" pan="0" pos="216" len="24"/>
          <note vol="104" key="31" pan="0" pos="240" len="24"/>
          <note vol="91" key="31" pan="0" pos="264" len="24"/>
          <note vol="133" key="31" pan="0" pos="288" len="12"/>
          <note vol="139" key="31" pan="0" pos="312" len="12"/>
          <note vol="133" key="31" pan="0" pos="336" len="12"/>
          <note vol="139" key="31" pan="0" pos="360" len="12"/>
          <note vol="63" key="30" pan="0" pos="384" len="24"/>
          <note vol="78" key="30" pan="0" pos="408" len="24"/>
          <note vol="97" key="30" pan="0" pos="432" len="24"/>
          <note vol="108" key="30" pan="0" pos="456" len="24"/>
          <note vol="102" key="30" pan="0" pos="480" len="24"/>
          <note vol="91" key="30" pan="0" pos="504" len="24"/>
          <note vol="82" key="30" pan="0" pos="528" len="24"/>
          <note vol="95" key="30" pan="0" pos="552" len="24"/>
          <note vol="102" key="30" pan="0" pos="576" len="24"/>
          <note vol="114" key="30" pan="0" pos="600" len="24"/>
          <note vol="104" key="30" pan="0" pos="624" len="24"/>
          <note vol="91" key="30" pan="0" pos="648" len="24"/>
          <note vol="133" key="30" pan="0" pos="672" len="12"/>
          <note vol="139" key="30" pan="0" pos="696" len="12"/>
          <note vol="133" key="30" pan="0" pos="720" len="12"/>
          <note vol="139" key="30" pan="0" pos="744" len="12"/>
          <note vol="63" key="31" pan="0" pos="768" len="24"/>
          <note vol="78" key="31" pan="0" pos="792" len="24"/>
          <note vol="97" key="31" pan="0" pos="816" len="24"/>
          <note vol="108" key="31" pan="0" pos="840" len="24"/>
          <note vol="102" key="31" pan="0" pos="864" len="24"/>
          <note vol="91" key="31" pan="0" pos="888" len="24"/>
          <note vol="82" key="31" pan="0" pos="912" len="24"/>
          <note vol="95" key="31" pan="0" pos="936" len="24"/>
          <note vol="102" key="31" pan="0" pos="960" len="24"/>
          <note vol="114" key="31" pan="0" pos="984" len="24"/>
          <note vol="104" key="31" pan="0" pos="1008" len="24"/>
          <note vol="91" key="31" pan="0" pos="1032" len="24"/>
          <note vol="133" key="31" pan="0" pos="1056" len="12"/>
          <note vol="139" key="31" pan="0" pos="1080" len="12"/>
          <note vol="133" key="31" pan="0" pos="1104" len="12"/>
          <note vol="139" key="31" pan="0" pos="1128" len="12"/>
          <note vol="63" key="30" pan="0" pos="1152" len="24"/>
          <note vol="78" key="30" pan="0" pos="1176" len="24"/>
          <note vol="97" key="30" pan="0" pos="1200" len="24"/>
          <note vol="108" key="30" pan="0" pos="1224" len="24"/>
          <note vol="102" key="30" pan="0" pos="1248" len="24"/>
          <note vol="91" key="30" pan="0" pos="1272" len="24"/>
          <note vol="82" key="30" pan="0" pos="1296" len="24"/>
          <note vol="95" key="30" pan="0" pos="1320" len="24"/>
          <note vol="102" key="30" pan="0" pos="1344" len="24"/>
          <note vol="114" key="30" pan="0" pos="1368" len="24"/>
          <note vol="104" key="30" pan="0" pos="1392" len="24"/>
          <note vol="91" key="30" pan="0" pos="1416" len="24"/>
          <note vol="133" key="30" pan="0" pos="1440" len="12"/>
          <note vol="139" key="30" pan="0" pos="1464" len="12"/>
          <note vol="133" key="30" pan="0" pos="1488" len="12"/>
          <note vol="139" key="30" pan="0" pos="1512" len="12"/>
        </pattern>
        <pattern type="1" name="Bass (Overdrive Guitar)" steps="16" muted="0" pos="6144">
          <note vol="63" key="31" pan="0" pos="0" len="24"/>
          <note vol="78" key="31" pan="0" pos="24" len="24"/>
          <note vol="97" key="31" pan="0" pos="48" len="24"/>
          <note vol="108" key="31" pan="0" pos="72" len="24"/>
          <note vol="102" key="31" pan="0" pos="96" len="24"/>
          <note vol="91" key="31" pan="0" pos="120" len="24"/>
          <note vol="82" key="31" pan="0" pos="144" len="24"/>
          <note vol="95" key="31" pan="0" pos="168" len="24"/>
          <note vol="102" key="31" pan="0" pos="192" len="24"/>
          <note vol="114" key="31" pan="0" pos="216" len="24"/>
          <note vol="104" key="31" pan="0" pos="240" len="24"/>
          <note vol="91" key="31" pan="0" pos="264" len="24"/>
          <note vol="133" key="31" pan="0" pos="288" len="12"/>
          <note vol="139" key="31" pan="0" pos="312" len="12"/>
          <note vol="133" key="31" pan="0" pos="336" len="12"/>
          <note vol="139" key="31" pan="0" pos="360" len="12"/>
          <note vol="63" key="30" pan="0" pos="384" len="24"/>
          <note vol="78" key="30" pan="0" pos="408" len="24"/>
          <note vol="97" key="30" pan="0" pos="432" len="24"/>
          <note vol="108" key="30" pan="0" pos="456" len="24"/>
          <note vol="102" key="30" pan="0" pos="480" len="24"/>
          <note vol="91" key="30" pan="0" pos="504" len="24"/>
          <note vol="82" key="30" pan="0" pos="528" len="24"/>
          <note vol="95" key="30" pan="0" pos="552" len="24"/>
          <note vol="102" key="30" pan="0" pos="576" len="24"/>
          <note vol="114" key="30" pan="0" pos="600" len="24"/>
          <note vol="104" key="30" pan="0" pos="624" len="24"/>
          <note vol="91" key="30" pan="0" pos="648" len="24"/>
          <note vol="133" key="30" pan="0" pos="672" len="12"/>
          <note vol="139" key="30" pan="0" pos="696" len="12"/>
          <note vol="133" key="30" pan="0" pos="720" len="12"/>
          <note vol="139" key="30" pan="0" pos="744" len="12"/>
          <note vol="63" key="31" pan="0" pos="768" len="24"/>
          <note vol="78" key="31" pan="0" pos="792" len="24"/>
          <note vol="97" key="31" pan="0" pos="816" len="24"/>
          <note vol="108" key="31" pan="0" pos="840" len="24"/>
          <note vol="102" key="31" pan="0" pos="864" len="24"/>
          <note vol="91" key="31" pan="0" pos="888" len="24"/>
          <note vol="82" key="31" pan="0" pos="912" len="24"/>
          <note vol="95" key="31" pan="0" pos="936" len="24"/>
          <note vol="102" key="31" pan="0" pos="960" len="24"/>
          <note vol="114" key="31" pan="0" pos="984" len="24"/>
          <note vol="104" key="31" pan="0" pos="1008" len="24"/>
          <note vol="91" key="31" pan="0" pos="1032" len="24"/>
          <note vol="133" key="31" pan="0" pos="1056" len="12"/>
          <note vol="139" key="31" pan="0" pos="1080" len="12"/>
          <note vol="133" key="31" pan="0" pos="1104" len="12"/>
          <note vol="139" key="31" pan="0" pos="1128" len="12"/>
          <note vol="63" key="30" pan="0" pos="1152" len="24"/>
          <note vol="78" key="30" pan="0" pos="1176" len="24"/>
          <note vol="97" key="30" pan="0" pos="1200" len="24"/>
          <note vol="108" key="30" pan="0" pos="1224" len="24"/>
          <note vol="102" key="30" pan="0" pos="1248" len="24"/>
          <note vol="91" key="30" pan="0" pos="1272" len="24"/>
          <note vol="82" key="30" pan="0" pos="1296" len="24"/>
          <note vol="95" key="30" pan="0" pos="1320" len="24"/>
          <note vol="102" key="30" pan="0" pos="1344" len="24"/>
          <note vol="114" key="30" pan="0" pos="1368" len="24"/>
          <note vol="104" key="30" pan="0" pos="1392" len="24"/>
          <note vol="91" key="30" pan="0" pos="1416" len="24"/>
          <note vol="133" key="30" pan="0" pos="1440" len="12"/>
          <note vol="139" key="30" pan="0" pos="1464" len="12"/>
          <note vol="133" key="30" pan="0" pos="1488" len="12"/>
          <note vol="139" key="30" pan="0" pos="1512" len="12"/>
        </pattern>
        <pattern type="1" name="Bass (Overdrive Guitar)" steps="16" muted="0" pos="7680">
          <note vol="63" key="31" pan="0" pos="0" len="24"/>
          <note vol="78" key="31" pan="0" pos="24" len="24"/>
          <note vol="97" key="31" pan="0" pos="48" len="24"/>
          <note vol="108" key="31" pan="0" pos="72" len="24"/>
          <note vol="102" key="31" pan="0" pos="96" len="24"/>
          <note vol="91" key="31" pan="0" pos="120" len="24"/>
          <note vol="82" key="31" pan="0" pos="144" len="24"/>
          <note vol="95" key="31" pan="0" pos="168" len="24"/>
          <note vol="102" key="31" pan="0" pos="192" len="24"/>
          <note vol="114" key="31" pan="0" pos="216" len="24"/>
          <note vol="104" key="31" pan="0" pos="240" len="24"/>
          <note vol="91" key="31" pan="0" pos="264" len="24"/>
          <note vol="133" key="31" pan="0" pos="288" len="12"/>
          <note vol="139" key="31" pan="0" pos="312" len="12"/>
          <note vol="133" key="31" pan="0" pos="336" len="12"/>
          <note vol="139" key="31" pan="0" pos="360" len="12"/>
          <note vol="63" key="30" pan="0" pos="384" len="24"/>
          <note vol="78" key="30" pan="0" pos="408" len="24"/>
          <note vol="97" key="30" pan="0" pos="432" len="24"/>
          <note vol="108" key="30" pan="0" pos="456" len="24"/>
          <note vol="102" key="30" pan="0" pos="480" len="24"/>
          <note vol="91" key="30" pan="0" pos="504" len="24"/>
          <note vol="82" key="30" pan="0" pos="528" len="24"/>
          <note vol="95" key="30" pan="0" pos="552" len="24"/>
          <note vol="102" key="30" pan="0" pos="576" len="24"/>
          <note vol="114" key="30" pan="0" pos="600" len="24"/>
          <note vol="104" key="30" pan="0" pos="624" len="24"/>
          <note vol="91" key="30" pan="0" pos="648" len="24"/>
          <note vol="133" key="30" pan="0" pos="672" len="12"/>
          <note vol="139" key="30" pan="0" pos="696" len="12"/>
          <note vol="133" key="30" pan="0" pos="720" len="12"/>
          <note vol="139" key="30" pan="0" pos="744" len="12"/>
          <note vol="63" key="31" pan="0" pos="768" len="24"/>
          <note vol="78" key="31" pan="0" pos="792" len="24"/>
          <note vol="97" key="31" pan="0" pos="816" len="24"/>
          <note vol="108" key="31" pan="0" pos="840" len="24"/>
          <note vol="102" key="31" pan="0" pos="864" len="24"/>
          <note vol="91" key="31" pan="0" pos="888" len="24"/>
          <note vol="82" key="31" pan="0" pos="912" len="24"/>
          <note vol="95" key="31" pan="0" pos="936" len="24"/>
          <note vol="102" key="31" pan="0" pos="960" len="24"/>
          <note vol="114" key="31" pan="0" pos="984" len="24"/>
          <note vol="104" key="31" pan="0" pos="1008" len="24"/>
          <note vol="91" key="31" pan="0" pos="1032" len="24"/>
          <note vol="133" key="31" pan="0" pos="1056" len="12"/>
          <note vol="139" key="31" pan="0" pos="1080" len="12"/>
          <note vol="133" key="31" pan="0" pos="1104" len="12"/>
          <note vol="139" key="31" pan="0" pos="1128" len="12"/>
          <note vol="63" key="30" pan="0" pos="1152" len="24"/>
          <note vol="78" key="30" pan="0" pos="1176" len="24"/>
          <note vol="97" key="30" pan="0" pos="1200" len="24"/>
          <note vol="108" key="30" pan="0" pos="1224" len="24"/>
          <note vol="102" key="30" pan="0" pos="1248" len="24"/>
          <note vol="91" key="30" pan="0" pos="1272" len="24"/>
          <note vol="82" key="30" pan="0" pos="1296" len="24"/>
          <note vol="95" key="30" pan="0" pos="1320" len="24"/>
          <note vol="102" key="30" pan="0" pos="1344" len="24"/>
          <note vol="114" key="30" pan="0" pos="1368" len="24"/>
          <note vol="104" key="30" pan="0" pos="1392" len="24"/>
          <note vol="91" key="30" pan="0" pos="1416" len="24"/>
          <note vol="133" key="30" pan="0" pos="1440" len="12"/>
          <note vol="139" key="30" pan="0" pos="1464" len="12"/>
          <note vol="133" key="30" pan="0" pos="1488" len="12"/>
          <note vol="139" key="30" pan="0" pos="1512" len="12"/>
        </pattern>
        <pattern type="1" name="" steps="16" muted="0" pos="9216">
          <note vol="63" key="31" pan="0" pos="0" len="24"/>
          <note vol="78" key="31" pan="0" pos="24" len="24"/>
          <note vol="97" key="31" pan="0" pos="48" len="24"/>
          <note vol="108" key="31" pan="0" pos="72" len="24"/>
          <note vol="102" key="31" pan="0" pos="96" len="24"/>
          <note vol="91" key="31" pan="0" pos="120" len="24"/>
          <note vol="82" key="31" pan="0" pos="144" len="24"/>
          <note vol="95" key="31" pan="0" pos="168" len="24"/>
          <note vol="102" key="31" pan="0" pos="192" len="24"/>
          <note vol="114" key="31" pan="0" pos="216" len="24"/>
          <note vol="104" key="31" pan="0" pos="240" len="24"/>
          <note vol="91" key="31" pan="0" pos="264" len="24"/>
          <note vol="133" key="31" pan="0" pos="288" len="12"/>
          <note vol="139" key="31" pan="0" pos="312" len="12"/>
          <note vol="133" key="31" pan="0" pos="336" len="12"/>
          <note vol="139" key="31" pan="0" pos="360" len="12"/>
          <note vol="63" key="30" pan="0" pos="384" len="24"/>
          <note vol="78" key="30" pan="0" pos="408" len="24"/>
          <note vol="97" key="30" pan="0" pos="432" len="24"/>
          <note vol="108" key="30" pan="0" pos="456" len="24"/>
          <note vol="102" key="30" pan="0" pos="480" len="24"/>
          <note vol="91" key="30" pan="0" pos="504" len="24"/>
          <note vol="82" key="30" pan="0" pos="528" len="24"/>
          <note vol="95" key="30" pan="0" pos="552" len="24"/>
          <note vol="102" key="30" pan="0" pos="576" len="24"/>
          <note vol="114" key="30" pan="0" pos="600" len="24"/>
          <note vol="104" key="30" pan="0" pos="624" len="24"/>
          <note vol="91" key="30" pan="0" pos="648" len="24"/>
          <note vol="133" key="30" pan="0" pos="672" len="12"/>
          <note vol="139" key="30" pan="0" pos="696" len="12"/>
          <note vol="133" key="30" pan="0" pos="720" len="12"/>
          <note vol="139" key="30" pan="0" pos="744" len="12"/>
          <note vol="63" key="31" pan="0" pos="768" len="24"/>
          <note vol="78" key="31" pan="0" pos="792" len="24"/>
          <note vol="97" key="31" pan="0" pos="816" len="24"/>
          <note vol="108" key="31" pan="0" pos="840" len="24"/>
          <note vol="102" key="31" pan="0" pos="864" len="24"/>
          <note vol="91" key="31" pan="0" pos="888" len="24"/>
          <note vol="82" key="31" pan="0" pos="912" len="24"/>
          <note vol="95" key="31" pan="0" pos="936" len="24"/>
          <note vol="102" key="31" pan="0" pos="960" len="24"/>
          <note vol="114" key="31" pan="0" pos="984" len="24"/>
          <note vol="104" key="31" pan="0" pos="1008" len="24"/>
          <note vol="91" key="31" pan="0" pos="1032" len="24"/>
          <note vol="133" key="31" pan="0" pos="1056" len="12"/>
          <note vol="139" key="31" pan="0" pos="1080" len="12"/>
          <note vol="133" key="31" pan="0" pos="1104" len="12"/>
          <note vol="139" key="31" pan="0" pos="1128" len="12"/>
          <note vol="63" key="30" pan="0" pos="1152" len="24"/>
          <note vol="78" key="30" pan="0" pos="1176" len="24"/>
          <note vol="97" key="30" pan="0" pos="1200" len="24"/>
          <note vol="108" key="30" pan="0" pos="1224" len="24"/>
          <note vol="102" key="30" pan="0" pos="1248" len="24"/>
          <note vol="91" key="30" pan="0" pos="1272" len="24"/>
          <note vol="82" key="30" pan="0" pos="1296" len="24"/>
          <note vol="95" key="30" pan="0" pos="1320" len="24"/>
          <note vol="102" key="30" pan="0" pos="1344" len="24"/>
          <note vol="114" key="30" pan="0" pos="1368" len="24"/>
          <note vol="104" key="30" pan="0" pos="1392" len="24"/>
          <note vol="91" key="30" pan="0" pos="1416" len="24"/>
          <note vol="133" key="30" pan="0" pos="1440" len="12"/>
          <note vol="139" key="30" pan="0" pos="1464" len="12"/>
          <note vol="133" key="30" pan="0" pos="1488" len="12"/>
          <note vol="139" key="30" pan="0" pos="1512" len="12"/>
        </pattern>
        <pattern type="1" name="" steps="16" muted="0" pos="10752">
          <note vol="63" key="31" pan="0" pos="0" len="24"/>
          <note vol="78" key="31" pan="0" pos="24" len="24"/>
          <note vol="97" key="31" pan="0" pos="48" len="24"/>
          <note vol="108" key="31" pan="0" pos="72" len="24"/>
          <note vol="102" key="31" pan="0" pos="96" len="24"/>
          <note vol="91" key="31" pan="0" pos="120" len="24"/>
          <note vol="82" key="31" pan="0" pos="144" len="24"/>
          <note vol="95" key="31" pan="0" pos="168" len="24"/>
          <note vol="102" key="31" pan="0" pos="192" len="24"/>
          <note vol="114" key="31" pan="0" pos="216" len="24"/>
          <note vol="104" key="31" pan="0" pos="240" len="24"/>
          <note vol="91" key="31" pan="0" pos="264" len="24"/>
          <note vol="133" key="31" pan="0" pos="288" len="12"/>
          <note vol="139" key="31" pan="0" pos="312" len="12"/>
          <note vol="133" key="31" pan="0" pos="336" len="12"/>
          <note vol="139" key="31" pan="0" pos="360" len="12"/>
          <note vol="63" key="30" pan="0" pos="384" len="24"/>
          <note vol="78" key="30" pan="0" pos="408" len="24"/>
          <note vol="97" key="30" pan="0" pos="432" len="24"/>
          <note vol="108" key="30" pan="0" pos="456" len="24"/>
          <note vol="102" key="30" pan="0" pos="480" len="24"/>
          <note vol="91" key="30" pan="0" pos="504" len="24"/>
          <note vol="82" key="30" pan="0" pos="528" len="24"/>
          <note vol="95" key="30" pan="0" pos="552" len="24"/>
          <note vol="102" key="30" pan="0" pos="576" len="24"/>
          <note vol="114" key="30" pan="0" pos="600" len="24"/>
          <note vol="104" key="30" pan="0" pos="624" len="24"/>
          <note vol="91" key="30" pan="0" pos="648" len="24"/>
          <note vol="133" key="30" pan="0" pos="672" len="12"/>
          <note vol="139" key="30" pan="0" pos="696" len="12"/>
          <note vol="133" key="30" pan="0" pos="720" len="12"/>
          <note vol="139" key="30" pan="0" pos="744" len="12"/>
          <note vol="63" key="31" pan="0" pos="768" len="24"/>
          <note vol="78" key="31" pan="0" pos="792" len="24"/>
          <note vol="97" key="31" pan="0" pos="816" len="24"/>
          <note vol="108" key="31" pan="0" pos="840" len="24"/>
          <note vol="102" key="31" pan="0" pos="864" len="24"/>
          <note vol="91" key="31" pan="0" pos="888" len="24"/>
          <note vol="82" key="31" pan="0" pos="912" len="24"/>
          <note vol="95" key="31" pan="0" pos="936" len="24"/>
          <note vol="102" key="31" pan="0" pos="960" len="24"/>
          <note vol="114" key="31" pan="0" pos="984" len="24"/>
          <note vol="104" key="31" pan="0" pos="1008" len="24"/>
          <note vol="91" key="31" pan="0" pos="1032" len="24"/>
          <note vol="133" key="31" pan="0" pos="1056" len="12"/>
          <note vol="139" key="31" pan="0" pos="1080" len="12"/>
          <note vol="133" key="31" pan="0" pos="1104" len="12"/>
          <note vol="139" key="31" pan="0" pos="1128" len="12"/>
          <note vol="63" key="30" pan="0" pos="1152" len="24"/>
          <note vol="78" key="30" pan="0" pos="1176" len="24"/>
          <note vol="97" key="30" pan="0" pos="1200" len="24"/>
          <note vol="108" key="30" pan="0" pos="1224" len="24"/>
          <note vol="102" key="30" pan="0" pos="1248" len="24"/>
          <note vol="91" key="30" pan="0" pos="1272" len="24"/>
          <note vol="82" key="30" pan="0" pos="1296" len="24"/>
          <note vol="95" key="30" pan="0" pos="1320" len="24"/>
          <note vol="102" key="30" pan="0" pos="1344" len="24"/>
          <note vol="114" key="30" pan="0" pos="1368" len="24"/>
          <note vol="104" key="30" pan="0" pos="1392" len="24"/>
          <note vol="91" key="30" pan="0" pos="1416" len="24"/>
          <note vol="133" key="30" pan="0" pos="1440" len="12"/>
          <note vol="139" key="30" pan="0" pos="1464" len="12"/>
          <note vol="133" key="30" pan="0" pos="1488" len="12"/>
          <note vol="139" key="30" pan="0" pos="1512" len="12"/>
        </pattern>
        <pattern type="1" name="" steps="16" muted="0" pos="12288">
          <note vol="63" key="31" pan="0" pos="0" len="24"/>
          <note vol="78" key="31" pan="0" pos="24" len="24"/>
          <note vol="97" key="31" pan="0" pos="48" len="24"/>
          <note vol="108" key="31" pan="0" pos="72" len="24"/>
          <note vol="102" key="31" pan="0" pos="96" len="24"/>
          <note vol="91" key="31" pan="0" pos="120" len="24"/>
          <note vol="82" key="31" pan="0" pos="144" len="24"/>
          <note vol="95" key="31" pan="0" pos="168" len="24"/>
          <note vol="102" key="31" pan="0" pos="192" len="24"/>
          <note vol="114" key="31" pan="0" pos="216" len="24"/>
          <note vol="104" key="31" pan="0" pos="240" len="24"/>
          <note vol="91" key="31" pan="0" pos="264" len="24"/>
          <note vol="133" key="31" pan="0" pos="288" len="12"/>
          <note vol="139" key="31" pan="0" pos="312" len="12"/>
          <note vol="133" key="31" pan="0" pos="336" len="12"/>
          <note vol="139" key="31" pan="0" pos="360" len="12"/>
          <note vol="63" key="30" pan="0" pos="384" len="24"/>
          <note vol="78" key="30" pan="0" pos="408" len="24"/>
          <note vol="97" key="30" pan="0" pos="432" len="24"/>
          <note vol="108" key="30" pan="0" pos="456" len="24"/>
          <note vol="102" key="30" pan="0" pos="480" len="24"/>
          <note vol="91" key="30" pan="0" pos="504" len="24"/>
          <note vol="82" key="30" pan="0" pos="528" len="24"/>
          <note vol="95" key="30" pan="0" pos="552" len="24"/>
          <note vol="102" key="30" pan="0" pos="576" len="24"/>
          <note vol="114" key="30" pan="0" pos="600" len="24"/>
          <note vol="104" key="30" pan="0" pos="624" len="24"/>
          <note vol="91" key="30" pan="0" pos="648" len="24"/>
          <note vol="133" key="30" pan="0" pos="672" len="12"/>
          <note vol="139" key="30" pan="0" pos="696" len="12"/>
          <note vol="133" key="30" pan="0" pos="720" len="12"/>
          <note vol="139" key="30" pan="0" pos="744" len="12"/>
          <note vol="63" key="31" pan="0" pos="768" len="24"/>
          <note vol="78" key="31" pan="0" pos="792" len="24"/>
          <note vol="97" key="31" pan="0" pos="816" len="24"/>
          <note vol="108" key="31" pan="0" pos="840" len="24"/>
          <note vol="102" key="31" pan="0" pos="864" len="24"/>
          <note vol="91" key="31" pan="0" pos="888" len="24"/>
          <note vol="82" key="31" pan="0" pos="912" len="24"/>
          <note vol="95" key="31" pan="0" pos="936" len="24"/>
          <note vol="102" key="31" pan="0" pos="960" len="24"/>
          <note vol="114" key="31" pan="0" pos="984" len="24"/>
          <note vol="104" key="31" pan="0" pos="1008" len="24"/>
          <note vol="91" key="31" pan="0" pos="1032" len="24"/>
          <note vol="133" key="31" pan="0" pos="1056" len="12"/>
          <note vol="139" key="31" pan="0" pos="1080" len="12"/>
          <note vol="133" key="31" pan="0" pos="1104" len="12"/>
          <note vol="139" key="31" pan="0" pos="1128" len="12"/>
          <note vol="63" key="30" pan="0" pos="1152" len="24"/>
          <note vol="78" key="30" pan="0" pos="1176" len="24"/>
          <note vol="97" key="30" pan="0" pos="1200" len="24"/>
          <note vol="108" key="30" pan="0" pos="1224" len="24"/>
          <note vol="102" key="30" pan="0" pos="1248" len="24"/>
          <note vol="91" key="30" pan="0" pos="1272" len="24"/>
          <note vol="82" key="30" pan="0" pos="1296" len="24"/>
          <note vol="95" key="30" pan="0" pos="1320" len="24"/>
          <note vol="102" key="30" pan="0" pos="1344" len="24"/>
          <note vol="114" key="30" pan="0" pos="1368" len="24"/>
          <note vol="104" key="30" pan="0" pos="1392" len="24"/>
          <note vol="91" key="30" pan="0" pos="1416" len="24"/>
          <note vol="133" key="30" pan="0" pos="1440" len="12"/>
          <note vol="139" key="30" pan="0" pos="1464" len="12"/>
          <note vol="133" key="30" pan="0" pos="1488" len="12"/>
          <note vol="139" key="30" pan="0" pos="1512" len="12"/>
        </pattern>
        <pattern type="1" name="" steps="16" muted="0" pos="13824">
          <note vol="63" key="31" pan="0" pos="0" len="24"/>
          <note vol="78" key="31" pan="0" pos="24" len="24"/>
          <note vol="97" key="31" pan="0" pos="48" len="24"/>
          <note vol="108" key="31" pan="0" pos="72" len="24"/>
          <note vol="102" key="31" pan="0" pos="96" len="24"/>
          <note vol="91" key="31" pan="0" pos="120" len="24"/>
          <note vol="82" key="31" pan="0" pos="144" len="24"/>
          <note vol="95" key="31" pan="0" pos="168" len="24"/>
          <note vol="102" key="31" pan="0" pos="192" len="24"/>
          <note vol="114" key="31" pan="0" pos="216" len="24"/>
          <note vol="104" key="31" pan="0" pos="240" len="24"/>
          <note vol="91" key="31" pan="0" pos="264" len="24"/>
          <note vol="133" key="31" pan="0" pos="288" len="12"/>
          <note vol="139" key="31" pan="0" pos="312" len="12"/>
          <note vol="133" key="31" pan="0" pos="336" len="12"/>
          <note vol="139" key="31" pan="0" pos="360" len="12"/>
          <note vol="63" key="30" pan="0" pos="384" len="24"/>
          <note vol="78" key="30" pan="0" pos="408" len="24"/>
          <note vol="97" key="30" pan="0" pos="432" len="24"/>
          <note vol="108" key="30" pan="0" pos="456" len="24"/>
          <note vol="102" key="30" pan="0" pos="480" len="24"/>
          <note vol="91" key="30" pan="0" pos="504" len="24"/>
          <note vol="82" key="30" pan="0" pos="528" len="24"/>
          <note vol="95" key="30" pan="0" pos="552" len="24"/>
          <note vol="102" key="30" pan="0" pos="576" len="24"/>
          <note vol="114" key="30" pan="0" pos="600" len="24"/>
          <note vol="104" key="30" pan="0" pos="624" len="24"/>
          <note vol="91" key="30" pan="0" pos="648" len="24"/>
          <note vol="133" key="30" pan="0" pos="672" len="12"/>
          <note vol="139" key="30" pan="0" pos="696" len="12"/>
          <note vol="133" key="30" pan="0" pos="720" len="12"/>
          <note vol="139" key="30" pan="0" pos="744" len="12"/>
          <note vol="63" key="31" pan="0" pos="768" len="24"/>
          <note vol="78" key="31" pan="0" pos="792" len="24"/>
          <note vol="97" key="31" pan="0" pos="816" len="24"/>
          <note vol="108" key="31" pan="0" pos="840" len="24"/>
          <note vol="102" key="31" pan="0" pos="864" len="24"/>
          <note vol="91" key="31" pan="0" pos="888" len="24"/>
          <note vol="82" key="31" pan="0" pos="912" len="24"/>
          <note vol="95" key="31" pan="0" pos="936" len="24"/>
          <note vol="102" key="31" pan="0" pos="960" len="24"/>
          <note vol="114" key="31" pan="0" pos="984" len="24"/>
          <note vol="104" key="31" pan="0" pos="1008" len="24"/>
          <note vol="91" key="31" pan="0" pos="1032" len="24"/>
          <note vol="133" key="31" pan="0" pos="1056" len="12"/>
          <note vol="139" key="31" pan="0" pos="1080" len="12"/>
          <note vol="133" key="31" pan="0" pos="1104" len="12"/>
          <note vol="139" key="31" pan="0" pos="1128" len="12"/>
          <note vol="63" key="30" pan="0" pos="1152" len="24"/>
          <note vol="78" key="30" pan="0" pos="1176" len="24"/>
          <note vol="97" key="30" pan="0" pos="1200" len="24"/>
          <note vol="108" key="30" pan="0" pos="1224" len="24"/>
          <note vol="102" key="30" pan="0" pos="1248" len="24"/>
          <note vol="91" key="30" pan="0" pos="1272" len="24"/>
          <note vol="82" key="30" pan="0" pos="1296" len="24"/>
          <note vol="95" key="30" pan="0" pos="1320" len="24"/>
          <note vol="102" key="30" pan="0" pos="1344" len="24"/>
          <note vol="114" key="30" pan="0" pos="1368" len="24"/>
          <note vol="104" key="30" pan="0" pos="1392" len="24"/>
          <note vol="91" key="30" pan="0" pos="1416" len="24"/>
          <note vol="133" key="30" pan="0" pos="1440" len="12"/>
          <note vol="139" key="30" pan="0" pos="1464" len="12"/>
          <note vol="133" key="30" pan="0" pos="1488" len="12"/>
          <note vol="139" key="30" pan="0" pos="1512" len="12"/>
        </pattern>
      </track>
      <track type="0" name="Fretless Bass" solo="0" muted="0">
        <instrumenttrack vol="122.8" pitchrange="1" fxch="0" pitch="0" pan="0" basenote="57" usemasterpitch="1">
          <instrument name="sf2player">
            <sf2player reverbWidth="0.5" gain="1" reverbLevel="0.89999998" patch="35" reverbRoomSize="0.2" chorusLevel="2" reverbDamping="0.2" chorusNum="3" reverbOn="0" chorusSpeed="0.30000001" src="soundfonts/GeneralUser GS v1.471.sf2" chorusDepth="8" bank="0" chorusOn="1"/>
          </instrument>
          <eldata fres="0.5" fcut="14000" ftype="0" fwet="0">
            <elvol latt="0" lspd_syncmode="0" lspd_denominator="4" lpdel="0" x100="0" hold="0.5" sustain="0.5" pdel="0" userwavefile="" rel="0.1" lamt="0" att="0" dec="0.5" lspd="0.1" lspd_numerator="4" amt="0" lshp="0" ctlenvamt="0"/>
            <elcut latt="0" lspd_syncmode="0" lspd_denominator="4" lpdel="0" x100="0" hold="0.5" sustain="0.5" pdel="0" userwavefile="" rel="0.1" lamt="0" att="0" dec="0.5" lspd="0.1" lspd_numerator="4" amt="0" lshp="0" ctlenvamt="0"/>
            <elres latt="0" lspd_syncmode="0" lspd_denominator="4" lpdel="0" x100="0" hold="0.5" sustain="0.5" pdel="0" userwavefile="" rel="0.1" lamt="0" att="0" dec="0.5" lspd="0.1" lspd_numerator="4" amt="0" lshp="0" ctlenvamt="0"/>
          </eldata>
          <chordcreator chord-enabled="0" chordrange="1" chord="0"/>
          <arpeggiator arpgate="100" arpmiss="0" arptime_syncmode="0" arpskip="0" arpmode="0" arpcycle="0" arprange="1" arptime_numerator="4" arpdir="0" arp="0" arptime="200" arp-enabled="0" arptime_denominator="4"/>
          <midiport fixedoutputnote="-1" writable="0" outputcontroller="0" fixedoutputvelocity="-1" inputchannel="0" outputchannel="1" basevelocity="63" inputcontroller="0" outputprogram="1" fixedinputvelocity="-1" readable="0"/>
          <fxchain enabled="0" numofeffects="0"/>
        </instrumenttrack>
        <pattern type="1" name="Fretless Bass" steps="16" muted="0" pos="0">
          <note vol="63" key="31" pan="0" pos="0" len="24"/>
          <note vol="78" key="31" pan="0" pos="24" len="24"/>
          <note vol="97" key="31" pan="0" pos="48" len="24"/>
          <note vol="108" key="31" pan="0" pos="72" len="24"/>
          <note vol="102" key="31" pan="0" pos="96" len="24"/>
          <note vol="91" key="31" pan="0" pos="120" len="24"/>
          <note vol="82" key="31" pan="0" pos="144" len="24"/>
          <note vol="95" key="31" pan="0" pos="168" len="24"/>
          <note vol="102" key="31" pan="0" pos="192" len="24"/>
          <note vol="114" key="31" pan="0" pos="216" len="24"/>
          <note vol="104" key="31" pan="0" pos="240" len="24"/>
          <note vol="91" key="31" pan="0" pos="264" len="24"/>
          <note vol="94" key="31" pan="0" pos="288" len="24"/>
          <note vol="100" key="31" pan="0" pos="312" len="24"/>
          <note vol="94" key="31" pan="0" pos="336" len="24"/>
          <note vol="100" key="31" pan="0" pos="360" len="24"/>
          <note vol="63" key="30" pan="0" pos="384" len="24"/>
          <note vol="78" key="30" pan="0" pos="408" len="24"/>
          <note vol="97" key="30" pan="0" pos="432" len="24"/>
          <note vol="108" key="30" pan="0" pos="456" len="24"/>
          <note vol="102" key="30" pan="0" pos="480" len="24"/>
          <note vol="91" key="30" pan="0" pos="504" len="24"/>
          <note vol="82" key="30" pan="0" pos="528" len="24"/>
          <note vol="95" key="30" pan="0" pos="552" len="24"/>
          <note vol="102" key="30" pan="0" pos="576" len="24"/>
          <note vol="114" key="30" pan="0" pos="600" len="24"/>
          <note vol="104" key="30" pan="0" pos="624" len="24"/>
          <note vol="91" key="30" pan="0" pos="648" len="24"/>
          <note vol="83" key="30" pan="0" pos="672" len="24"/>
          <note vol="89" key="30" pan="0" pos="696" len="24"/>
          <note vol="83" key="30" pan="0" pos="720" len="24"/>
          <note vol="89" key="30" pan="0" pos="744" len="24"/>
          <note vol="63" key="31" pan="0" pos="768" len="24"/>
          <note vol="78" key="31" pan="0" pos="792" len="24"/>
          <note vol="97" key="31" pan="0" pos="816" len="24"/>
          <note vol="108" key="31" pan="0" pos="840" len="24"/>
          <note vol="102" key="31" pan="0" pos="864" len="24"/>
          <note vol="91" key="31" pan="0" pos="888" len="24"/>
          <note vol="82" key="31" pan="0" pos="912" len="24"/>
          <note vol="95" key="31" pan="0" pos="936" len="24"/>
          <note vol="102" key="31" pan="0" pos="960" len="24"/>
          <note vol="114" key="31" pan="0" pos="984" len="24"/>
          <note vol="104" key="31" pan="0" pos="1008" len="24"/>
          <note vol="91" key="31" pan="0" pos="1032" len="24"/>
          <note vol="78" key="31" pan="0" pos="1056" len="24"/>
          <note vol="84" key="31" pan="0" pos="1080" len="24"/>
          <note vol="78" key="31" pan="0" pos="1104" len="24"/>
          <note vol="84" key="31" pan="0" pos="1128" len="24"/>
          <note vol="63" key="30" pan="0" pos="1152" len="24"/>
          <note vol="78" key="30" pan="0" pos="1176" len="24"/>
          <note vol="97" key="30" pan="0" pos="1200" len="24"/>
          <note vol="108" key="30" pan="0" pos="1224" len="24"/>
          <note vol="102" key="30" pan="0" pos="1248" len="24"/>
          <note vol="91" key="30" pan="0" pos="1272" len="24"/>
          <note vol="82" key="30" pan="0" pos="1296" len="24"/>
          <note vol="95" key="30" pan="0" pos="1320" len="24"/>
          <note vol="102" key="30" pan="0" pos="1344" len="24"/>
          <note vol="114" key="30" pan="0" pos="1368" len="24"/>
          <note vol="104" key="30" pan="0" pos="1392" len="24"/>
          <note vol="91" key="30" pan="0" pos="1416" len="24"/>
          <note vol="78" key="30" pan="0" pos="1440" len="24"/>
          <note vol="84" key="30" pan="0" pos="1464" len="24"/>
          <note vol="78" key="30" pan="0" pos="1488" len="24"/>
          <note vol="84" key="30" pan="0" pos="1512" len="24"/>
        </pattern>
        <pattern type="1" name="Fretless Bass" steps="16" muted="0" pos="1536">
          <note vol="63" key="31" pan="0" pos="0" len="24"/>
          <note vol="78" key="31" pan="0" pos="24" len="24"/>
          <note vol="97" key="31" pan="0" pos="48" len="24"/>
          <note vol="108" key="31" pan="0" pos="72" len="24"/>
          <note vol="102" key="31" pan="0" pos="96" len="24"/>
          <note vol="91" key="31" pan="0" pos="120" len="24"/>
          <note vol="82" key="31" pan="0" pos="144" len="24"/>
          <note vol="95" key="31" pan="0" pos="168" len="24"/>
          <note vol="102" key="31" pan="0" pos="192" len="24"/>
          <note vol="114" key="31" pan="0" pos="216" len="24"/>
          <note vol="104" key="31" pan="0" pos="240" len="24"/>
          <note vol="91" key="31" pan="0" pos="264" len="24"/>
          <note vol="94" key="31" pan="0" pos="288" len="24"/>
          <note vol="100" key="31" pan="0" pos="312" len="24"/>
          <note vol="94" key="31" pan="0" pos="336" len="24"/>
          <note vol="100" key="31" pan="0" pos="360" len="24"/>
          <note vol="63" key="30" pan="0" pos="384" len="24"/>
          <note vol="78" key="30" pan="0" pos="408" len="24"/>
          <note vol="97" key="30" pan="0" pos="432" len="24"/>
          <note vol="108" key="30" pan="0" pos="456" len="24"/>
          <note vol="102" key="30" pan="0" pos="480" len="24"/>
          <note vol="91" key="30" pan="0" pos="504" len="24"/>
          <note vol="82" key="30" pan="0" pos="528" len="24"/>
          <note vol="95" key="30" pan="0" pos="552" len="24"/>
          <note vol="102" key="30" pan="0" pos="576" len="24"/>
          <note vol="114" key="30" pan="0" pos="600" len="24"/>
          <note vol="104" key="30" pan="0" pos="624" len="24"/>
          <note vol="91" key="30" pan="0" pos="648" len="24"/>
          <note vol="83" key="30" pan="0" pos="672" len="24"/>
          <note vol="89" key="30" pan="0" pos="696" len="24"/>
          <note vol="83" key="30" pan="0" pos="720" len="24"/>
          <note vol="89" key="30" pan="0" pos="744" len="24"/>
          <note vol="63" key="31" pan="0" pos="768" len="24"/>
          <note vol="78" key="31" pan="0" pos="792" len="24"/>
          <note vol="97" key="31" pan="0" pos="816" len="24"/>
          <note vol="108" key="31" pan="0" pos="840" len="24"/>
          <note vol="102" key="31" pan="0" pos="864" len="24"/>
          <note vol="91" key="31" pan="0" pos="888" len="24"/>
          <note vol="82" key="31" pan="0" pos="912" len="24"/>
          <note vol="95" key="31" pan="0" pos="936" len="24"/>
          <note vol="102" key="31" pan="0" pos="960" len="24"/>
          <note vol="114" key="31" pan="0" pos="984" len="24"/>
          <note vol="104" key="31" pan="0" pos="1008" len="24"/>
          <note vol="91" key="31" pan="0" pos="1032" len="24"/>
          <note vol="78" key="31" pan="0" pos="1056" len="24"/>
          <note vol="84" key="31" pan="0" pos="1080" len="24"/>
          <note vol="78" key="31" pan="0" pos="1104" len="24"/>
          <note vol="84" key="31" pan="0" pos="1128" len="24"/>
          <note vol="63" key="30" pan="0" pos="1152" len="24"/>
          <note vol="78" key="30" pan="0" pos="1176" len="24"/>
          <note vol="97" key="30" pan="0" pos="1200" len="24"/>
          <note vol="108" key="30" pan="0" pos="1224" len="24"/>
          <note vol="102" key="30" pan="0" pos="1248" len="24"/>
          <note vol="91" key="30" pan="0" pos="1272" len="24"/>
          <note vol="82" key="30" pan="0" pos="1296" len="24"/>
          <note vol="95" key="30" pan="0" pos="1320" len="24"/>
          <note vol="102" key="30" pan="0" pos="1344" len="24"/>
          <note vol="114" key="30" pan="0" pos="1368" len="24"/>
          <note vol="104" key="30" pan="0" pos="1392" len="24"/>
          <note vol="91" key="30" pan="0" pos="1416" len="24"/>
          <note vol="116" key="30" pan="0" pos="1440" len="12"/>
          <note vol="122" key="30" pan="0" pos="1464" len="12"/>
          <note vol="116" key="30" pan="0" pos="1488" len="12"/>
          <note vol="122" key="30" pan="0" pos="1512" len="12"/>
        </pattern>
        <pattern type="1" name="Fretless Bass" steps="16" muted="0" pos="3072">
          <note vol="63" key="31" pan="0" pos="0" len="24"/>
          <note vol="78" key="31" pan="0" pos="24" len="24"/>
          <note vol="97" key="31" pan="0" pos="48" len="24"/>
          <note vol="108" key="31" pan="0" pos="72" len="24"/>
          <note vol="102" key="31" pan="0" pos="96" len="24"/>
          <note vol="91" key="31" pan="0" pos="120" len="24"/>
          <note vol="82" key="31" pan="0" pos="144" len="24"/>
          <note vol="95" key="31" pan="0" pos="168" len="24"/>
          <note vol="102" key="31" pan="0" pos="192" len="24"/>
          <note vol="114" key="31" pan="0" pos="216" len="24"/>
          <note vol="104" key="31" pan="0" pos="240" len="24"/>
          <note vol="91" key="31" pan="0" pos="264" len="24"/>
          <note vol="94" key="31" pan="0" pos="288" len="24"/>
          <note vol="100" key="31" pan="0" pos="312" len="24"/>
          <note vol="94" key="31" pan="0" pos="336" len="24"/>
          <note vol="100" key="31" pan="0" pos="360" len="24"/>
          <note vol="63" key="30" pan="0" pos="384" len="24"/>
          <note vol="78" key="30" pan="0" pos="408" len="24"/>
          <note vol="97" key="30" pan="0" pos="432" len="24"/>
          <note vol="108" key="30" pan="0" pos="456" len="24"/>
          <note vol="102" key="30" pan="0" pos="480" len="24"/>
          <note vol="91" key="30" pan="0" pos="504" len="24"/>
          <note vol="82" key="30" pan="0" pos="528" len="24"/>
          <note vol="95" key="30" pan="0" pos="552" len="24"/>
          <note vol="102" key="30" pan="0" pos="576" len="24"/>
          <note vol="114" key="30" pan="0" pos="600" len="24"/>
          <note vol="104" key="30" pan="0" pos="624" len="24"/>
          <note vol="91" key="30" pan="0" pos="648" len="24"/>
          <note vol="83" key="30" pan="0" pos="672" len="24"/>
          <note vol="89" key="30" pan="0" pos="696" len="24"/>
          <note vol="83" key="30" pan="0" pos="720" len="24"/>
          <note vol="89" key="30" pan="0" pos="744" len="24"/>
          <note vol="63" key="31" pan="0" pos="768" len="24"/>
          <note vol="78" key="31" pan="0" pos="792" len="24"/>
          <note vol="97" key="31" pan="0" pos="816" len="24"/>
          <note vol="108" key="31" pan="0" pos="840" len="24"/>
          <note vol="102" key="31" pan="0" pos="864" len="24"/>
          <note vol="91" key="31" pan="0" pos="888" len="24"/>
          <note vol="82" key="31" pan="0" pos="912" len="24"/>
          <note vol="95" key="31" pan="0" pos="936" len="24"/>
          <note vol="102" key="31" pan="0" pos="960" len="24"/>
          <note vol="114" key="31" pan="0" pos="984" len="24"/>
          <note vol="104" key="31" pan="0" pos="1008" len="24"/>
          <note vol="91" key="31" pan="0" pos="1032" len="24"/>
          <note vol="78" key="31" pan="0" pos="1056" len="24"/>
          <note vol="84" key="31" pan="0" pos="1080" len="24"/>
          <note vol="78" key="31" pan="0" pos="1104" len="24"/>
          <note vol="84" key="31" pan="0" pos="1128" len="24"/>
          <note vol="63" key="30" pan="0" pos="1152" len="24"/>
          <note vol="78" key="30" pan="0" pos="1176" len="24"/>
          <note vol="97" key="30" pan="0" pos="1200" len="24"/>
          <note vol="108" key="30" pan="0" pos="1224" len="24"/>
          <note vol="102" key="30" pan="0" pos="1248" len="24"/>
          <note vol="91" key="30" pan="0" pos="1272" len="24"/>
          <note vol="82" key="30" pan="0" pos="1296" len="24"/>
          <note vol="95" key="30" pan="0" pos="1320" len="24"/>
          <note vol="102" key="30" pan="0" pos="1344" len="24"/>
          <note vol="114" key="30" pan="0" pos="1368" len="24"/>
          <note vol="104" key="30" pan="0" pos="1392" len="24"/>
          <note vol="91" key="30" pan="0" pos="1416" len="24"/>
          <note vol="116" key="30" pan="0" pos="1440" len="12"/>
          <note vol="122" key="30" pan="0" pos="1464" len="12"/>
          <note vol="116" key="30" pan="0" pos="1488" len="12"/>
          <note vol="122" key="30" pan="0" pos="1512" len="12"/>
        </pattern>
        <pattern type="1" name="Fretless Bass" steps="16" muted="0" pos="4608">
          <note vol="63" key="31" pan="0" pos="0" len="24"/>
          <note vol="78" key="31" pan="0" pos="24" len="24"/>
          <note vol="97" key="31" pan="0" pos="48" len="24"/>
          <note vol="108" key="31" pan="0" pos="72" len="24"/>
          <note vol="102" key="31" pan="0" pos="96" len="24"/>
          <note vol="91" key="31" pan="0" pos="120" len="24"/>
          <note vol="82" key="31" pan="0" pos="144" len="24"/>
          <note vol="95" key="31" pan="0" pos="168" len="24"/>
          <note vol="102" key="31" pan="0" pos="192" len="24"/>
          <note vol="114" key="31" pan="0" pos="216" len="24"/>
          <note vol="104" key="31" pan="0" pos="240" len="24"/>
          <note vol="91" key="31" pan="0" pos="264" len="24"/>
          <note vol="94" key="31" pan="0" pos="288" len="24"/>
          <note vol="100" key="31" pan="0" pos="312" len="24"/>
          <note vol="94" key="31" pan="0" pos="336" len="24"/>
          <note vol="100" key="31" pan="0" pos="360" len="24"/>
          <note vol="63" key="30" pan="0" pos="384" len="24"/>
          <note vol="78" key="30" pan="0" pos="408" len="24"/>
          <note vol="97" key="30" pan="0" pos="432" len="24"/>
          <note vol="108" key="30" pan="0" pos="456" len="24"/>
          <note vol="102" key="30" pan="0" pos="480" len="24"/>
          <note vol="91" key="30" pan="0" pos="504" len="24"/>
          <note vol="82" key="30" pan="0" pos="528" len="24"/>
          <note vol="95" key="30" pan="0" pos="552" len="24"/>
          <note vol="102" key="30" pan="0" pos="576" len="24"/>
          <note vol="114" key="30" pan="0" pos="600" len="24"/>
          <note vol="104" key="30" pan="0" pos="624" len="24"/>
          <note vol="91" key="30" pan="0" pos="648" len="24"/>
          <note vol="83" key="30" pan="0" pos="672" len="24"/>
          <note vol="89" key="30" pan="0" pos="696" len="24"/>
          <note vol="83" key="30" pan="0" pos="720" len="24"/>
          <note vol="89" key="30" pan="0" pos="744" len="24"/>
          <note vol="63" key="31" pan="0" pos="768" len="24"/>
          <note vol="78" key="31" pan="0" pos="792" len="24"/>
          <note vol="97" key="31" pan="0" pos="816" len="24"/>
          <note vol="108" key="31" pan="0" pos="840" len="24"/>
          <note vol="102" key="31" pan="0" pos="864" len="24"/>
          <note vol="91" key="31" pan="0" pos="888" len="24"/>
          <note vol="82" key="31" pan="0" pos="912" len="24"/>
          <note vol="95" key="31" pan="0" pos="936" len="24"/>
          <note vol="102" key="31" pan="0" pos="960" len="24"/>
          <note vol="114" key="31" pan="0" pos="984" len="24"/>
          <note vol="104" key="31" pan="0" pos="1008" len="24"/>
          <note vol="91" key="31" pan="0" pos="1032" len="24"/>
          <note vol="78" key="31" pan="0" pos="1056" len="24"/>
          <note vol="84" key="31" pan="0" pos="1080" len="24"/>
          <note vol="78" key="31" pan="0" pos="1104" len="24"/>
          <note vol="84" key="31" pan="0" pos="1128" len="24"/>
          <note vol="63" key="30" pan="0" pos="1152" len="24"/>
          <note vol="78" key="30" pan="0" pos="1176" len="24"/>
          <note vol="97" key="30" pan="0" pos="1200" len="24"/>
          <note vol="108" key="30" pan="0" pos="1224" len="24"/>
          <note vol="102" key="30" pan="0" pos="1248" len="24"/>
          <note vol="91" key="30" pan="0" pos="1272" len="24"/>
          <note vol="82" key="30" pan="0" pos="1296" len="24"/>
          <note vol="95" key="30" pan="0" pos="1320" len="24"/>
          <note vol="102" key="30" pan="0" pos="1344" len="24"/>
          <note vol="114" key="30" pan="0" pos="1368" len="24"/>
          <note vol="104" key="30" pan="0" pos="1392" len="24"/>
          <note vol="91" key="30" pan="0" pos="1416" len="24"/>
          <note vol="116" key="30" pan="0" pos="1440" len="12"/>
          <note vol="122" key="30" pan="0" pos="1464" len="12"/>
          <note vol="116" key="30" pan="0" pos="1488" len="12"/>
          <note vol="122" key="30" pan="0" pos="1512" len="12"/>
        </pattern>
        <pattern type="1" name="Fretless Bass" steps="16" muted="0" pos="6144">
          <note vol="63" key="31" pan="0" pos="0" len="24"/>
          <note vol="78" key="31" pan="0" pos="24" len="24"/>
          <note vol="97" key="31" pan="0" pos="48" len="24"/>
          <note vol="108" key="31" pan="0" pos="72" len="24"/>
          <note vol="102" key="31" pan="0" pos="96" len="24"/>
          <note vol="91" key="31" pan="0" pos="120" len="24"/>
          <note vol="82" key="31" pan="0" pos="144" len="24"/>
          <note vol="95" key="31" pan="0" pos="168" len="24"/>
          <note vol="102" key="31" pan="0" pos="192" len="24"/>
          <note vol="114" key="31" pan="0" pos="216" len="24"/>
          <note vol="104" key="31" pan="0" pos="240" len="24"/>
          <note vol="91" key="31" pan="0" pos="264" len="24"/>
          <note vol="94" key="31" pan="0" pos="288" len="24"/>
          <note vol="100" key="31" pan="0" pos="312" len="24"/>
          <note vol="94" key="31" pan="0" pos="336" len="24"/>
          <note vol="100" key="31" pan="0" pos="360" len="24"/>
          <note vol="63" key="30" pan="0" pos="384" len="24"/>
          <note vol="78" key="30" pan="0" pos="408" len="24"/>
          <note vol="97" key="30" pan="0" pos="432" len="24"/>
          <note vol="108" key="30" pan="0" pos="456" len="24"/>
          <note vol="102" key="30" pan="0" pos="480" len="24"/>
          <note vol="91" key="30" pan="0" pos="504" len="24"/>
          <note vol="82" key="30" pan="0" pos="528" len="24"/>
          <note vol="95" key="30" pan="0" pos="552" len="24"/>
          <note vol="102" key="30" pan="0" pos="576" len="24"/>
          <note vol="114" key="30" pan="0" pos="600" len="24"/>
          <note vol="104" key="30" pan="0" pos="624" len="24"/>
          <note vol="91" key="30" pan="0" pos="648" len="24"/>
          <note vol="83" key="30" pan="0" pos="672" len="24"/>
          <note vol="89" key="30" pan="0" pos="696" len="24"/>
          <note vol="83" key="30" pan="0" pos="720" len="24"/>
          <note vol="89" key="30" pan="0" pos="744" len="24"/>
          <note vol="63" key="31" pan="0" pos="768" len="24"/>
          <note vol="78" key="31" pan="0" pos="792" len="24"/>
          <note vol="97" key="31" pan="0" pos="816" len="24"/>
          <note vol="108" key="31" pan="0" pos="840" len="24"/>
          <note vol="102" key="31" pan="0" pos="864" len="24"/>
          <note vol="91" key="31" pan="0" pos="888" len="24"/>
          <note vol="82" key="31" pan="0" pos="912" len="24"/>
          <note vol="95" key="31" pan="0" pos="936" len="24"/>
          <note vol="102" key="31" pan="0" pos="960" len="24"/>
          <note vol="114" key="31" pan="0" pos="984" len="24"/>
          <note vol="104" key="31" pan="0" pos="1008" len="24"/>
          <note vol="91" key="31" pan="0" pos="1032" len="24"/>
          <note vol="78" key="31" pan="0" pos="1056" len="24"/>
          <note vol="84" key="31" pan="0" pos="1080" len="24"/>
          <note vol="78" key="31" pan="0" pos="1104" len="24"/>
          <note vol="84" key="31" pan="0" pos="1128" len="24"/>
          <note vol="63" key="30" pan="0" pos="1152" len="24"/>
          <note vol="78" key="30" pan="0" pos="1176" len="24"/>
          <note vol="97" key="30" pan="0" pos="1200" len="24"/>
          <note vol="108" key="30" pan="0" pos="1224" len="24"/>
          <note vol="102" key="30" pan="0" pos="1248" len="24"/>
          <note vol="91" key="30" pan="0" pos="1272" len="24"/>
          <note vol="82" key="30" pan="0" pos="1296" len="24"/>
          <note vol="95" key="30" pan="0" pos="1320" len="24"/>
          <note vol="102" key="30" pan="0" pos="1344" len="24"/>
          <note vol="114" key="30" pan="0" pos="1368" len="24"/>
          <note vol="104" key="30" pan="0" pos="1392" len="24"/>
          <note vol="91" key="30" pan="0" pos="1416" len="24"/>
          <note vol="116" key="30" pan="0" pos="1440" len="12"/>
          <note vol="122" key="30" pan="0" pos="1464" len="12"/>
          <note vol="116" key="30" pan="0" pos="1488" len="12"/>
          <note vol="122" key="30" pan="0" pos="1512" len="12"/>
        </pattern>
        <pattern type="1" name="Fretless Bass" steps="16" muted="0" pos="7680">
          <note vol="63" key="31" pan="0" pos="0" len="24"/>
          <note vol="78" key="31" pan="0" pos="24" len="24"/>
          <note vol="97" key="31" pan="0" pos="48" len="24"/>
          <note vol="108" key="31" pan="0" pos="72" len="24"/>
          <note vol="102" key="31" pan="0" pos="96" len="24"/>
          <note vol="91" key="31" pan="0" pos="120" len="24"/>
          <note vol="82" key="31" pan="0" pos="144" len="24"/>
          <note vol="95" key="31" pan="0" pos="168" len="24"/>
          <note vol="102" key="31" pan="0" pos="192" len="24"/>
          <note vol="114" key="31" pan="0" pos="216" len="24"/>
          <note vol="104" key="31" pan="0" pos="240" len="24"/>
          <note vol="91" key="31" pan="0" pos="264" len="24"/>
          <note vol="94" key="31" pan="0" pos="288" len="24"/>
          <note vol="100" key="31" pan="0" pos="312" len="24"/>
          <note vol="94" key="31" pan="0" pos="336" len="24"/>
          <note vol="100" key="31" pan="0" pos="360" len="24"/>
          <note vol="63" key="30" pan="0" pos="384" len="24"/>
          <note vol="78" key="30" pan="0" pos="408" len="24"/>
          <note vol="97" key="30" pan="0" pos="432" len="24"/>
          <note vol="108" key="30" pan="0" pos="456" len="24"/>
          <note vol="102" key="30" pan="0" pos="480" len="24"/>
          <note vol="91" key="30" pan="0" pos="504" len="24"/>
          <note vol="82" key="30" pan="0" pos="528" len="24"/>
          <note vol="95" key="30" pan="0" pos="552" len="24"/>
          <note vol="102" key="30" pan="0" pos="576" len="24"/>
          <note vol="114" key="30" pan="0" pos="600" len="24"/>
          <note vol="104" key="30" pan="0" pos="624" len="24"/>
          <note vol="91" key="30" pan="0" pos="648" len="24"/>
          <note vol="83" key="30" pan="0" pos="672" len="24"/>
          <note vol="89" key="30" pan="0" pos="696" len="24"/>
          <note vol="83" key="30" pan="0" pos="720" len="24"/>
          <note vol="89" key="30" pan="0" pos="744" len="24"/>
          <note vol="63" key="31" pan="0" pos="768" len="24"/>
          <note vol="78" key="31" pan="0" pos="792" len="24"/>
          <note vol="97" key="31" pan="0" pos="816" len="24"/>
          <note vol="108" key="31" pan="0" pos="840" len="24"/>
          <note vol="102" key="31" pan="0" pos="864" len="24"/>
          <note vol="91" key="31" pan="0" pos="888" len="24"/>
          <note vol="82" key="31" pan="0" pos="912" len="24"/>
          <note vol="95" key="31" pan="0" pos="936" len="24"/>
          <note vol="102" key="31" pan="0" pos="960" len="24"/>
          <note vol="114" key="31" pan="0" pos="984" len="24"/>
          <note vol="104" key="31" pan="0" pos="1008" len="24"/>
          <note vol="91" key="31" pan="0" pos="1032" len="24"/>
          <note vol="78" key="31" pan="0" pos="1056" len="24"/>
          <note vol="84" key="31" pan="0" pos="1080" len="24"/>
          <note vol="78" key="31" pan="0" pos="1104" len="24"/>
          <note vol="84" key="31" pan="0" pos="1128" len="24"/>
          <note vol="63" key="30" pan="0" pos="1152" len="24"/>
          <note vol="78" key="30" pan="0" pos="1176" len="24"/>
          <note vol="97" key="30" pan="0" pos="1200" len="24"/>
          <note vol="108" key="30" pan="0" pos="1224" len="24"/>
          <note vol="102" key="30" pan="0" pos="1248" len="24"/>
          <note vol="91" key="30" pan="0" pos="1272" len="24"/>
          <note vol="82" key="30" pan="0" pos="1296" len="24"/>
          <note vol="95" key="30" pan="0" pos="1320" len="24"/>
          <note vol="102" key="30" pan="0" pos="1344" len="24"/>
          <note vol="114" key="30" pan="0" pos="1368" len="24"/>
          <note vol="104" key="30" pan="0" pos="1392" len="24"/>
          <note vol="91" key="30" pan="0" pos="1416" len="24"/>
          <note vol="116" key="30" pan="0" pos="1440" len="12"/>
          <note vol="122" key="30" pan="0" pos="1464" len="12"/>
          <note vol="116" key="30" pan="0" pos="1488" len="12"/>
          <note vol="122" key="30" pan="0" pos="1512" len="12"/>
        </pattern>
        <pattern type="1" name="Fretless Bass" steps="16" muted="0" pos="9216">
          <note vol="63" key="31" pan="0" pos="0" len="24"/>
          <note vol="78" key="31" pan="0" pos="24" len="24"/>
          <note vol="97" key="31" pan="0" pos="48" len="24"/>
          <note vol="108" key="31" pan="0" pos="72" len="24"/>
          <note vol="102" key="31" pan="0" pos="96" len="24"/>
          <note vol="91" key="31" pan="0" pos="120" len="24"/>
          <note vol="82" key="31" pan="0" pos="144" len="24"/>
          <note vol="95" key="31" pan="0" pos="168" len="24"/>
          <note vol="102" key="31" pan="0" pos="192" len="24"/>
          <note vol="114" key="31" pan="0" pos="216" len="24"/>
          <note vol="104" key="31" pan="0" pos="240" len="24"/>
          <note vol="91" key="31" pan="0" pos="264" len="24"/>
          <note vol="94" key="31" pan="0" pos="288" len="24"/>
          <note vol="100" key="31" pan="0" pos="312" len="24"/>
          <note vol="94" key="31" pan="0" pos="336" len="24"/>
          <note vol="100" key="31" pan="0" pos="360" len="24"/>
          <note vol="63" key="30" pan="0" pos="384" len="24"/>
          <note vol="78" key="30" pan="0" pos="408" len="24"/>
          <note vol="97" key="30" pan="0" pos="432" len="24"/>
          <note vol="108" key="30" pan="0" pos="456" len="24"/>
          <note vol="102" key="30" pan="0" pos="480" len="24"/>
          <note vol="91" key="30" pan="0" pos="504" len="24"/>
          <note vol="82" key="30" pan="0" pos="528" len="24"/>
          <note vol="95" key="30" pan="0" pos="552" len="24"/>
          <note vol="102" key="30" pan="0" pos="576" len="24"/>
          <note vol="114" key="30" pan="0" pos="600" len="24"/>
          <note vol="104" key="30" pan="0" pos="624" len="24"/>
          <note vol="91" key="30" pan="0" pos="648" len="24"/>
          <note vol="83" key="30" pan="0" pos="672" len="24"/>
          <note vol="89" key="30" pan="0" pos="696" len="24"/>
          <note vol="83" key="30" pan="0" pos="720" len="24"/>
          <note vol="89" key="30" pan="0" pos="744" len="24"/>
          <note vol="63" key="31" pan="0" pos="768" len="24"/>
          <note vol="78" key="31" pan="0" pos="792" len="24"/>
          <note vol="97" key="31" pan="0" pos="816" len="24"/>
          <note vol="108" key="31" pan="0" pos="840" len="24"/>
          <note vol="102" key="31" pan="0" pos="864" len="24"/>
          <note vol="91" key="31" pan="0" pos="888" len="24"/>
          <note vol="82" key="31" pan="0" pos="912" len="24"/>
          <note vol="95" key="31" pan="0" pos="936" len="24"/>
          <note vol="102" key="31" pan="0" pos="960" len="24"/>
          <note vol="114" key="31" pan="0" pos="984" len="24"/>
          <note vol="104" key="31" pan="0" pos="1008" len="24"/>
          <note vol="91" key="31" pan="0" pos="1032" len="24"/>
          <note vol="78" key="31" pan="0" pos="1056" len="24"/>
          <note vol="84" key="31" pan="0" pos="1080" len="24"/>
          <note vol="78" key="31" pan="0" pos="1104" len="24"/>
          <note vol="84" key="31" pan="0" pos="1128" len="24"/>
          <note vol="63" key="30" pan="0" pos="1152" len="24"/>
          <note vol="78" key="30" pan="0" pos="1176" len="24"/>
          <note vol="97" key="30" pan="0" pos="1200" len="24"/>
          <note vol="108" key="30" pan="0" pos="1224" len="24"/>
          <note vol="102" key="30" pan="0" pos="1248" len="24"/>
          <note vol="91" key="30" pan="0" pos="1272" len="24"/>
          <note vol="82" key="30" pan="0" pos="1296" len="24"/>
          <note vol="95" key="30" pan="0" pos="1320" len="24"/>
          <note vol="102" key="30" pan="0" pos="1344" len="24"/>
          <note vol="114" key="30" pan="0" pos="1368" len="24"/>
          <note vol="104" key="30" pan="0" pos="1392" len="24"/>
          <note vol="91" key="30" pan="0" pos="1416" len="24"/>
          <note vol="116" key="30" pan="0" pos="1440" len="12"/>
          <note vol="122" key="30" pan="0" pos="1464" len="12"/>
          <note vol="116" key="30" pan="0" pos="1488" len="12"/>
          <note vol="122" key="30" pan="0" pos="1512" len="12"/>
        </pattern>
        <pattern type="1" name="Fretless Bass" steps="16" muted="0" pos="10752">
          <note vol="63" key="31" pan="0" pos="0" len="24"/>
          <note vol="78" key="31" pan="0" pos="24" len="24"/>
          <note vol="97" key="31" pan="0" pos="48" len="24"/>
          <note vol="108" key="31" pan="0" pos="72" len="24"/>
          <note vol="102" key="31" pan="0" pos="96" len="24"/>
          <note vol="91" key="31" pan="0" pos="120" len="24"/>
          <note vol="82" key="31" pan="0" pos="144" len="24"/>
          <note vol="95" key="31" pan="0" pos="168" len="24"/>
          <note vol="102" key="31" pan="0" pos="192" len="24"/>
          <note vol="114" key="31" pan="0" pos="216" len="24"/>
          <note vol="104" key="31" pan="0" pos="240" len="24"/>
          <note vol="91" key="31" pan="0" pos="264" len="24"/>
          <note vol="94" key="31" pan="0" pos="288" len="24"/>
          <note vol="100" key="31" pan="0" pos="312" len="24"/>
          <note vol="94" key="31" pan="0" pos="336" len="24"/>
          <note vol="100" key="31" pan="0" pos="360" len="24"/>
          <note vol="63" key="30" pan="0" pos="384" len="24"/>
          <note vol="78" key="30" pan="0" pos="408" len="24"/>
          <note vol="97" key="30" pan="0" pos="432" len="24"/>
          <note vol="108" key="30" pan="0" pos="456" len="24"/>
          <note vol="102" key="30" pan="0" pos="480" len="24"/>
          <note vol="91" key="30" pan="0" pos="504" len="24"/>
          <note vol="82" key="30" pan="0" pos="528" len="24"/>
          <note vol="95" key="30" pan="0" pos="552" len="24"/>
          <note vol="102" key="30" pan="0" pos="576" len="24"/>
          <note vol="114" key="30" pan="0" pos="600" len="24"/>
          <note vol="104" key="30" pan="0" pos="624" len="24"/>
          <note vol="91" key="30" pan="0" pos="648" len="24"/>
          <note vol="83" key="30" pan="0" pos="672" len="24"/>
          <note vol="89" key="30" pan="0" pos="696" len="24"/>
          <note vol="83" key="30" pan="0" pos="720" len="24"/>
          <note vol="89" key="30" pan="0" pos="744" len="24"/>
          <note vol="63" key="31" pan="0" pos="768" len="24"/>
          <note vol="78" key="31" pan="0" pos="792" len="24"/>
          <note vol="97" key="31" pan="0" pos="816" len="24"/>
          <note vol="108" key="31" pan="0" pos="840" len="24"/>
          <note vol="102" key="31" pan="0" pos="864" len="24"/>
          <note vol="91" key="31" pan="0" pos="888" len="24"/>
          <note vol="82" key="31" pan="0" pos="912" len="24"/>
          <note vol="95" key="31" pan="0" pos="936" len="24"/>
          <note vol="102" key="31" pan="0" pos="960" len="24"/>
          <note vol="114" key="31" pan="0" pos="984" len="24"/>
          <note vol="104" key="31" pan="0" pos="1008" len="24"/>
          <note vol="91" key="31" pan="0" pos="1032" len="24"/>
          <note vol="78" key="31" pan="0" pos="1056" len="24"/>
          <note vol="84" key="31" pan="0" pos="1080" len="24"/>
          <note vol="78" key="31" pan="0" pos="1104" len="24"/>
          <note vol="84" key="31" pan="0" pos="1128" len="24"/>
          <note vol="63" key="30" pan="0" pos="1152" len="24"/>
          <note vol="78" key="30" pan="0" pos="1176" len="24"/>
          <note vol="97" key="30" pan="0" pos="1200" len="24"/>
          <note vol="108" key="30" pan="0" pos="1224" len="24"/>
          <note vol="102" key="30" pan="0" pos="1248" len="24"/>
          <note vol="91" key="30" pan="0" pos="1272" len="24"/>
          <note vol="82" key="30" pan="0" pos="1296" len="24"/>
          <note vol="95" key="30" pan="0" pos="1320" len="24"/>
          <note vol="102" key="30" pan="0" pos="1344" len="24"/>
          <note vol="114" key="30" pan="0" pos="1368" len="24"/>
          <note vol="104" key="30" pan="0" pos="1392" len="24"/>
          <note vol="91" key="30" pan="0" pos="1416" len="24"/>
          <note vol="116" key="30" pan="0" pos="1440" len="12"/>
          <note vol="122" key="30" pan="0" pos="1464" len="12"/>
          <note vol="116" key="30" pan="0" pos="1488" len="12"/>
          <note vol="122" key="30" pan="0" pos="1512" len="12"/>
        </pattern>
        <pattern type="1" name="Fretless Bass" steps="16" muted="0" pos="12288">
          <note vol="63" key="31" pan="0" pos="0" len="24"/>
          <note vol="78" key="31" pan="0" pos="24" len="24"/>
          <note vol="97" key="31" pan="0" pos="48" len="24"/>
          <note vol="108" key="31" pan="0" pos="72" len="24"/>
          <note vol="102" key="31" pan="0" pos="96" len="24"/>
          <note vol="91" key="31" pan="0" pos="120" len="24"/>
          <note vol="82" key="31" pan="0" pos="144" len="24"/>
          <note vol="95" key="31" pan="0" pos="168" len="24"/>
          <note vol="102" key="31" pan="0" pos="192" len="24"/>
          <note vol="114" key="31" pan="0" pos="216" len="24"/>
          <note vol="104" key="31" pan="0" pos="240" len="24"/>
          <note vol="91" key="31" pan="0" pos="264" len="24"/>
          <note vol="94" key="31" pan="0" pos="288" len="24"/>
          <note vol="100" key="31" pan="0" pos="312" len="24"/>
          <note vol="94" key="31" pan="0" pos="336" len="24"/>
          <note vol="100" key="31" pan="0" pos="360" len="24"/>
          <note vol="63" key="30" pan="0" pos="384" len="24"/>
          <note vol="78" key="30" pan="0" pos="408" len="24"/>
          <note vol="97" key="30" pan="0" pos="432" len="24"/>
          <note vol="108" key="30" pan="0" pos="456" len="24"/>
          <note vol="102" key="30" pan="0" pos="480" len="24"/>
          <note vol="91" key="30" pan="0" pos="504" len="24"/>
          <note vol="82" key="30" pan="0" pos="528" len="24"/>
          <note vol="95" key="30" pan="0" pos="552" len="24"/>
          <note vol="102" key="30" pan="0" pos="576" len="24"/>
          <note vol="114" key="30" pan="0" pos="600" len="24"/>
          <note vol="104" key="30" pan="0" pos="624" len="24"/>
          <note vol="91" key="30" pan="0" pos="648" len="24"/>
          <note vol="83" key="30" pan="0" pos="672" len="24"/>
          <note vol="89" key="30" pan="0" pos="696" len="24"/>
          <note vol="83" key="30" pan="0" pos="720" len="24"/>
          <note vol="89" key="30" pan="0" pos="744" len="24"/>
          <note vol="63" key="31" pan="0" pos="768" len="24"/>
          <note vol="78" key="31" pan="0" pos="792" len="24"/>
          <note vol="97" key="31" pan="0" pos="816" len="24"/>
          <note vol="108" key="31" pan="0" pos="840" len="24"/>
          <note vol="102" key="31" pan="0" pos="864" len="24"/>
          <note vol="91" key="31" pan="0" pos="888" len="24"/>
          <note vol="82" key="31" pan="0" pos="912" len="24"/>
          <note vol="95" key="31" pan="0" pos="936" len="24"/>
          <note vol="102" key="31" pan="0" pos="960" len="24"/>
          <note vol="114" key="31" pan="0" pos="984" len="24"/>
          <note vol="104" key="31" pan="0" pos="1008" len="24"/>
          <note vol="91" key="31" pan="0" pos="1032" len="24"/>
          <note vol="78" key="31" pan="0" pos="1056" len="24"/>
          <note vol="84" key="31" pan="0" pos="1080" len="24"/>
          <note vol="78" key="31" pan="0" pos="1104" len="24"/>
          <note vol="84" key="31" pan="0" pos="1128" len="24"/>
          <note vol="63" key="30" pan="0" pos="1152" len="24"/>
          <note vol="78" key="30" pan="0" pos="1176" len="24"/>
          <note vol="97" key="30" pan="0" pos="1200" len="24"/>
          <note vol="108" key="30" pan="0" pos="1224" len="24"/>
          <note vol="102" key="30" pan="0" pos="1248" len="24"/>
          <note vol="91" key="30" pan="0" pos="1272" len="24"/>
          <note vol="82" key="30" pan="0" pos="1296" len="24"/>
          <note vol="95" key="30" pan="0" pos="1320" len="24"/>
          <note vol="102" key="30" pan="0" pos="1344" len="24"/>
          <note vol="114" key="30" pan="0" pos="1368" len="24"/>
          <note vol="104" key="30" pan="0" pos="1392" len="24"/>
          <note vol="91" key="30" pan="0" pos="1416" len="24"/>
          <note vol="116" key="30" pan="0" pos="1440" len="12"/>
          <note vol="122" key="30" pan="0" pos="1464" len="12"/>
          <note vol="116" key="30" pan="0" pos="1488" len="12"/>
          <note vol="122" key="30" pan="0" pos="1512" len="12"/>
        </pattern>
        <pattern type="1" name="Fretless Bass" steps="16" muted="0" pos="13824">
          <note vol="63" key="31" pan="0" pos="0" len="24"/>
          <note vol="78" key="31" pan="0" pos="24" len="24"/>
          <note vol="97" key="31" pan="0" pos="48" len="24"/>
          <note vol="108" key="31" pan="0" pos="72" len="24"/>
          <note vol="102" key="31" pan="0" pos="96" len="24"/>
          <note vol="91" key="31" pan="0" pos="120" len="24"/>
          <note vol="82" key="31" pan="0" pos="144" len="24"/>
          <note vol="95" key="31" pan="0" pos="168" len="24"/>
          <note vol="102" key="31" pan="0" pos="192" len="24"/>
          <note vol="114" key="31" pan="0" pos="216" len="24"/>
          <note vol="104" key="31" pan="0" pos="240" len="24"/>
          <note vol="91" key="31" pan="0" pos="264" len="24"/>
          <note vol="94" key="31" pan="0" pos="288" len="24"/>
          <note vol="100" key="31" pan="0" pos="312" len="24"/>
          <note vol="94" key="31" pan="0" pos="336" len="24"/>
          <note vol="100" key="31" pan="0" pos="360" len="24"/>
          <note vol="63" key="30" pan="0" pos="384" len="24"/>
          <note vol="78" key="30" pan="0" pos="408" len="24"/>
          <note vol="97" key="30" pan="0" pos="432" len="24"/>
          <note vol="108" key="30" pan="0" pos="456" len="24"/>
          <note vol="102" key="30" pan="0" pos="480" len="24"/>
          <note vol="91" key="30" pan="0" pos="504" len="24"/>
          <note vol="82" key="30" pan="0" pos="528" len="24"/>
          <note vol="95" key="30" pan="0" pos="552" len="24"/>
          <note vol="102" key="30" pan="0" pos="576" len="24"/>
          <note vol="114" key="30" pan="0" pos="600" len="24"/>
          <note vol="104" key="30" pan="0" pos="624" len="24"/>
          <note vol="91" key="30" pan="0" pos="648" len="24"/>
          <note vol="83" key="30" pan="0" pos="672" len="24"/>
          <note vol="89" key="30" pan="0" pos="696" len="24"/>
          <note vol="83" key="30" pan="0" pos="720" len="24"/>
          <note vol="89" key="30" pan="0" pos="744" len="24"/>
          <note vol="63" key="31" pan="0" pos="768" len="24"/>
          <note vol="78" key="31" pan="0" pos="792" len="24"/>
          <note vol="97" key="31" pan="0" pos="816" len="24"/>
          <note vol="108" key="31" pan="0" pos="840" len="24"/>
          <note vol="102" key="31" pan="0" pos="864" len="24"/>
          <note vol="91" key="31" pan="0" pos="888" len="24"/>
          <note vol="82" key="31" pan="0" pos="912" len="24"/>
          <note vol="95" key="31" pan="0" pos="936" len="24"/>
          <note vol="102" key="31" pan="0" pos="960" len="24"/>
          <note vol="114" key="31" pan="0" pos="984" len="24"/>
          <note vol="104" key="31" pan="0" pos="1008" len="24"/>
          <note vol="91" key="31" pan="0" pos="1032" len="24"/>
          <note vol="78" key="31" pan="0" pos="1056" len="24"/>
          <note vol="84" key="31" pan="0" pos="1080" len="24"/>
          <note vol="78" key="31" pan="0" pos="1104" len="24"/>
          <note vol="84" key="31" pan="0" pos="1128" len="24"/>
          <note vol="63" key="30" pan="0" pos="1152" len="24"/>
          <note vol="78" key="30" pan="0" pos="1176" len="24"/>
          <note vol="97" key="30" pan="0" pos="1200" len="24"/>
          <note vol="108" key="30" pan="0" pos="1224" len="24"/>
          <note vol="102" key="30" pan="0" pos="1248" len="24"/>
          <note vol="91" key="30" pan="0" pos="1272" len="24"/>
          <note vol="82" key="30" pan="0" pos="1296" len="24"/>
          <note vol="95" key="30" pan="0" pos="1320" len="24"/>
          <note vol="102" key="30" pan="0" pos="1344" len="24"/>
          <note vol="114" key="30" pan="0" pos="1368" len="24"/>
          <note vol="104" key="30" pan="0" pos="1392" len="24"/>
          <note vol="91" key="30" pan="0" pos="1416" len="24"/>
          <note vol="116" key="30" pan="0" pos="1440" len="12"/>
          <note vol="122" key="30" pan="0" pos="1464" len="12"/>
          <note vol="116" key="30" pan="0" pos="1488" len="12"/>
          <note vol="122" key="30" pan="0" pos="1512" len="12"/>
        </pattern>
      </track>
      <track type="0" name="Slow Strings" solo="0" muted="0">
        <instrumenttrack vol="65" pitchrange="1" fxch="0" pitch="0" pan="0" basenote="57" usemasterpitch="1">
          <instrument name="sf2player">
            <sf2player reverbWidth="0.5" gain="1" reverbLevel="0.89999998" patch="49" reverbRoomSize="0.2" chorusLevel="2" reverbDamping="0.2" chorusNum="0.89999998" reverbOn="0" chorusSpeed="0.30000001" src="soundfonts/GeneralUser GS v1.471.sf2" chorusDepth="8" bank="1" chorusOn="0"/>
          </instrument>
          <eldata fres="0.5" fcut="14000" ftype="0" fwet="0">
            <elvol latt="0" lspd_syncmode="0" lspd_denominator="4" lpdel="0" x100="0" hold="0.5" sustain="0.5" pdel="0" userwavefile="" rel="0.1" lamt="0" att="0" dec="0.5" lspd="0.1" lspd_numerator="4" amt="0" lshp="0" ctlenvamt="0"/>
            <elcut latt="0" lspd_syncmode="0" lspd_denominator="4" lpdel="0" x100="0" hold="0.5" sustain="0.5" pdel="0" userwavefile="" rel="0.1" lamt="0" att="0" dec="0.5" lspd="0.1" lspd_numerator="4" amt="0" lshp="0" ctlenvamt="0"/>
            <elres latt="0" lspd_syncmode="0" lspd_denominator="4" lpdel="0" x100="0" hold="0.5" sustain="0.5" pdel="0" userwavefile="" rel="0.1" lamt="0" att="0" dec="0.5" lspd="0.1" lspd_numerator="4" amt="0" lshp="0" ctlenvamt="0"/>
          </eldata>
          <chordcreator chord-enabled="0" chordrange="1" chord="0"/>
          <arpeggiator arpgate="100" arpmiss="0" arptime_syncmode="0" arpskip="0" arpmode="0" arpcycle="0" arprange="1" arptime_numerator="4" arpdir="0" arp="0" arptime="200" arp-enabled="0" arptime_denominator="4"/>
          <midiport fixedoutputnote="-1" writable="0" outputcontroller="0" fixedoutputvelocity="-1" inputchannel="0" outputchannel="1" basevelocity="63" inputcontroller="0" outputprogram="1" fixedinputvelocity="-1" readable="0"/>
          <fxchain enabled="0" numofeffects="0"/>
        </instrumenttrack>
        <pattern type="1" name="Slow Strings" steps="16" muted="0" pos="0">
          <note vol="133" key="43" pan="0" pos="0" len="384"/>
          <note vol="104" key="42" pan="0" pos="384" len="384"/>
          <note vol="133" key="43" pan="0" pos="768" len="384"/>
          <note vol="110" key="42" pan="0" pos="1152" len="384"/>
        </pattern>
        <pattern type="1" name="Slow Strings" steps="16" muted="0" pos="1536">
          <note vol="133" key="43" pan="0" pos="0" len="384"/>
          <note vol="104" key="42" pan="0" pos="384" len="384"/>
          <note vol="133" key="43" pan="0" pos="768" len="384"/>
          <note vol="110" key="42" pan="0" pos="1152" len="384"/>
        </pattern>
        <pattern type="1" name="Slow Strings" steps="16" muted="0" pos="3072">
          <note vol="133" key="43" pan="0" pos="0" len="384"/>
          <note vol="104" key="42" pan="0" pos="384" len="384"/>
          <note vol="133" key="43" pan="0" pos="768" len="384"/>
          <note vol="110" key="42" pan="0" pos="1152" len="384"/>
        </pattern>
        <pattern type="1" name="Slow Strings" steps="16" muted="0" pos="4608">
          <note vol="133" key="43" pan="0" pos="0" len="384"/>
          <note vol="104" key="42" pan="0" pos="384" len="384"/>
          <note vol="133" key="43" pan="0" pos="768" len="384"/>
          <note vol="110" key="42" pan="0" pos="1152" len="384"/>
        </pattern>
        <pattern type="1" name="Slow Strings" steps="16" muted="0" pos="6144">
          <note vol="133" key="43" pan="0" pos="0" len="384"/>
          <note vol="104" key="42" pan="0" pos="384" len="384"/>
          <note vol="133" key="43" pan="0" pos="768" len="384"/>
          <note vol="110" key="42" pan="0" pos="1152" len="384"/>
        </pattern>
        <pattern type="1" name="Slow Strings" steps="16" muted="0" pos="7680">
          <note vol="133" key="43" pan="0" pos="0" len="384"/>
          <note vol="104" key="42" pan="0" pos="384" len="384"/>
          <note vol="133" key="43" pan="0" pos="768" len="384"/>
          <note vol="110" key="42" pan="0" pos="1152" len="384"/>
        </pattern>
        <pattern type="1" name="" steps="16" muted="0" pos="9216">
          <note vol="133" key="43" pan="0" pos="0" len="384"/>
          <note vol="104" key="42" pan="0" pos="384" len="384"/>
          <note vol="133" key="43" pan="0" pos="768" len="384"/>
          <note vol="110" key="42" pan="0" pos="1152" len="384"/>
        </pattern>
        <pattern type="1" name="" steps="16" muted="0" pos="10752">
          <note vol="133" key="43" pan="0" pos="0" len="384"/>
          <note vol="104" key="42" pan="0" pos="384" len="384"/>
          <note vol="133" key="43" pan="0" pos="768" len="384"/>
          <note vol="110" key="42" pan="0" pos="1152" len="384"/>
        </pattern>
        <pattern type="1" name="" steps="16" muted="0" pos="12288">
          <note vol="133" key="43" pan="0" pos="0" len="384"/>
          <note vol="104" key="42" pan="0" pos="384" len="384"/>
          <note vol="133" key="43" pan="0" pos="768" len="384"/>
          <note vol="110" key="42" pan="0" pos="1152" len="384"/>
        </pattern>
        <pattern type="1" name="" steps="16" muted="0" pos="13824">
          <note vol="133" key="43" pan="0" pos="0" len="384"/>
          <note vol="104" key="42" pan="0" pos="384" len="384"/>
          <note vol="133" key="43" pan="0" pos="768" len="384"/>
          <note vol="110" key="42" pan="0" pos="1152" len="384"/>
        </pattern>
      </track>
      <track type="0" name="Sweep Pad" solo="0" muted="0">
        <instrumenttrack vol="85" pitchrange="1" fxch="0" pitch="0" pan="0" basenote="57" usemasterpitch="1">
          <instrument name="sf2player">
            <sf2player reverbWidth="0.5" gain="1" reverbLevel="0.89999998" patch="95" reverbRoomSize="0.2" chorusLevel="2" reverbDamping="0.2" chorusNum="0.89999998" reverbOn="0" chorusSpeed="0.30000001" src="soundfonts/GeneralUser GS v1.471.sf2" chorusDepth="8" bank="0" chorusOn="0"/>
          </instrument>
          <eldata fres="0.5" fcut="14000" ftype="0" fwet="0">
            <elvol latt="0" lspd_syncmode="0" lspd_denominator="4" lpdel="0" x100="0" hold="0.5" sustain="0.5" pdel="0" userwavefile="" rel="0.1" lamt="0" att="0" dec="0.5" lspd="0.1" lspd_numerator="4" amt="0" lshp="0" ctlenvamt="0"/>
            <elcut latt="0" lspd_syncmode="0" lspd_denominator="4" lpdel="0" x100="0" hold="0.5" sustain="0.5" pdel="0" userwavefile="" rel="0.1" lamt="0" att="0" dec="0.5" lspd="0.1" lspd_numerator="4" amt="0" lshp="0" ctlenvamt="0"/>
            <elres latt="0" lspd_syncmode="0" lspd_denominator="4" lpdel="0" x100="0" hold="0.5" sustain="0.5" pdel="0" userwavefile="" rel="0.1" lamt="0" att="0" dec="0.5" lspd="0.1" lspd_numerator="4" amt="0" lshp="0" ctlenvamt="0"/>
          </eldata>
          <chordcreator chord-enabled="0" chordrange="1" chord="0"/>
          <arpeggiator arpgate="100" arpmiss="0" arptime_syncmode="0" arpskip="0" arpmode="0" arpcycle="0" arprange="1" arptime_numerator="4" arpdir="0" arp="0" arptime="200" arp-enabled="0" arptime_denominator="4"/>
          <midiport fixedoutputnote="-1" writable="0" outputcontroller="0" fixedoutputvelocity="-1" inputchannel="0" outputchannel="1" basevelocity="63" inputcontroller="0" outputprogram="1" fixedinputvelocity="-1" readable="0"/>
          <fxchain enabled="0" numofeffects="0"/>
        </instrumenttrack>
        <pattern type="1" name="Sweep Pad" steps="16" muted="0" pos="12288">
          <note vol="133" key="43" pan="0" pos="0" len="384"/>
          <note vol="104" key="42" pan="0" pos="384" len="384"/>
          <note vol="133" key="43" pan="0" pos="768" len="384"/>
          <note vol="110" key="42" pan="0" pos="1152" len="384"/>
        </pattern>
        <pattern type="1" name="Sweep Pad" steps="16" muted="0" pos="13824">
          <note vol="133" key="43" pan="0" pos="0" len="384"/>
          <note vol="104" key="42" pan="0" pos="384" len="384"/>
          <note vol="133" key="43" pan="0" pos="768" len="384"/>
          <note vol="110" key="42" pan="0" pos="1152" len="384"/>
        </pattern>
      </track>
      <track type="0" name="Drums" solo="0" muted="0">
        <instrumenttrack vol="100" pitchrange="1" fxch="0" pitch="0" pan="0" basenote="57" usemasterpitch="1">
          <instrument name="sf2player">
            <sf2player reverbWidth="0.5" gain="1" reverbLevel="0.89999998" patch="0" reverbRoomSize="0.2" chorusLevel="2" reverbDamping="0.2" chorusNum="0.89999998" reverbOn="0" chorusSpeed="0.30000001" src="soundfonts/GeneralUser GS v1.471.sf2" chorusDepth="8" bank="128" chorusOn="0"/>
          </instrument>
          <eldata fres="0.5" fcut="14000" ftype="0" fwet="0">
            <elvol latt="0" lspd_syncmode="0" lspd_denominator="4" lpdel="0" x100="0" hold="0.5" sustain="0.5" pdel="0" userwavefile="" rel="0.1" lamt="0" att="0" dec="0.5" lspd="0.1" lspd_numerator="4" amt="0" lshp="0" ctlenvamt="0"/>
            <elcut latt="0" lspd_syncmode="0" lspd_denominator="4" lpdel="0" x100="0" hold="0.5" sustain="0.5" pdel="0" userwavefile="" rel="0.1" lamt="0" att="0" dec="0.5" lspd="0.1" lspd_numerator="4" amt="0" lshp="0" ctlenvamt="0"/>
            <elres latt="0" lspd_syncmode="0" lspd_denominator="4" lpdel="0" x100="0" hold="0.5" sustain="0.5" pdel="0" userwavefile="" rel="0.1" lamt="0" att="0" dec="0.5" lspd="0.1" lspd_numerator="4" amt="0" lshp="0" ctlenvamt="0"/>
          </eldata>
          <chordcreator chord-enabled="0" chordrange="1" chord="0"/>
          <arpeggiator arpgate="100" arpmiss="0" arptime_syncmode="0" arpskip="0" arpmode="0" arpcycle="0" arprange="1" arptime_numerator="4" arpdir="0" arp="0" arptime="200" arp-enabled="0" arptime_denominator="4"/>
          <midiport fixedoutputnote="-1" writable="0" outputcontroller="0" fixedoutputvelocity="-1" inputchannel="0" outputchannel="1" basevelocity="63" inputcontroller="0" outputprogram="1" fixedinputvelocity="-1" readable="0"/>
          <fxchain enabled="0" numofeffects="0"/>
        </instrumenttrack>
        <pattern type="1" name="Drums" steps="16" muted="0" pos="3072">
          <note vol="127" key="24" pan="0" pos="0" len="24"/>
          <note vol="82" key="30" pan="0" pos="48" len="24"/>
          <note vol="127" key="24" pan="0" pos="72" len="24"/>
          <note vol="127" key="28" pan="0" pos="96" len="24"/>
          <note vol="85" key="30" pan="0" pos="144" len="24"/>
          <note vol="127" key="24" pan="0" pos="168" len="24"/>
          <note vol="93" key="30" pan="0" pos="192" len="24"/>
          <note vol="127" key="24" pan="0" pos="216" len="24"/>
          <note vol="127" key="24" pan="0" pos="240" len="24"/>
          <note vol="108" key="30" pan="0" pos="264" len="24"/>
          <note vol="127" key="28" pan="0" pos="288" len="24"/>
          <note vol="127" key="24" pan="0" pos="336" len="24"/>
          <note vol="102" key="30" pan="0" pos="360" len="24"/>
          <note vol="127" key="24" pan="0" pos="384" len="24"/>
          <note vol="82" key="30" pan="0" pos="432" len="24"/>
          <note vol="127" key="24" pan="0" pos="456" len="24"/>
          <note vol="127" key="28" pan="0" pos="480" len="24"/>
          <note vol="85" key="30" pan="0" pos="528" len="24"/>
          <note vol="127" key="24" pan="0" pos="552" len="24"/>
          <note vol="93" key="30" pan="0" pos="576" len="24"/>
          <note vol="127" key="24" pan="0" pos="600" len="24"/>
          <note vol="127" key="24" pan="0" pos="624" len="24"/>
          <note vol="108" key="30" pan="0" pos="648" len="24"/>
          <note vol="127" key="28" pan="0" pos="672" len="24"/>
          <note vol="127" key="24" pan="0" pos="720" len="24"/>
          <note vol="102" key="30" pan="0" pos="744" len="24"/>
          <note vol="127" key="24" pan="0" pos="768" len="24"/>
          <note vol="82" key="30" pan="0" pos="816" len="24"/>
          <note vol="127" key="24" pan="0" pos="840" len="24"/>
          <note vol="127" key="28" pan="0" pos="864" len="24"/>
          <note vol="85" key="30" pan="0" pos="912" len="24"/>
          <note vol="127" key="24" pan="0" pos="936" len="24"/>
          <note vol="93" key="30" pan="0" pos="960" len="24"/>
          <note vol="127" key="24" pan="0" pos="984" len="24"/>
          <note vol="127" key="24" pan="0" pos="1008" len="24"/>
          <note vol="108" key="30" pan="0" pos="1032" len="24"/>
          <note vol="127" key="28" pan="0" pos="1056" len="24"/>
          <note vol="127" key="24" pan="0" pos="1104" len="24"/>
          <note vol="102" key="30" pan="0" pos="1128" len="24"/>
          <note vol="127" key="24" pan="0" pos="1152" len="24"/>
          <note vol="82" key="30" pan="0" pos="1200" len="24"/>
          <note vol="127" key="24" pan="0" pos="1224" len="24"/>
          <note vol="127" key="28" pan="0" pos="1248" len="24"/>
          <note vol="85" key="30" pan="0" pos="1296" len="24"/>
          <note vol="127" key="24" pan="0" pos="1320" len="24"/>
          <note vol="93" key="30" pan="0" pos="1344" len="24"/>
          <note vol="127" key="24" pan="0" pos="1368" len="24"/>
          <note vol="127" key="24" pan="0" pos="1392" len="24"/>
          <note vol="108" key="30" pan="0" pos="1416" len="24"/>
          <note vol="127" key="28" pan="0" pos="1440" len="24"/>
          <note vol="127" key="24" pan="0" pos="1488" len="24"/>
          <note vol="102" key="30" pan="0" pos="1512" len="24"/>
        </pattern>
        <pattern type="1" name="Drums" steps="16" muted="0" pos="4608">
          <note vol="127" key="24" pan="0" pos="0" len="24"/>
          <note vol="82" key="30" pan="0" pos="48" len="24"/>
          <note vol="127" key="24" pan="0" pos="72" len="24"/>
          <note vol="127" key="28" pan="0" pos="96" len="24"/>
          <note vol="85" key="30" pan="0" pos="144" len="24"/>
          <note vol="127" key="24" pan="0" pos="168" len="24"/>
          <note vol="93" key="30" pan="0" pos="192" len="24"/>
          <note vol="127" key="24" pan="0" pos="216" len="24"/>
          <note vol="127" key="24" pan="0" pos="240" len="24"/>
          <note vol="108" key="30" pan="0" pos="264" len="24"/>
          <note vol="127" key="28" pan="0" pos="288" len="24"/>
          <note vol="127" key="24" pan="0" pos="336" len="24"/>
          <note vol="102" key="30" pan="0" pos="360" len="24"/>
          <note vol="127" key="24" pan="0" pos="384" len="24"/>
          <note vol="82" key="30" pan="0" pos="432" len="24"/>
          <note vol="127" key="24" pan="0" pos="456" len="24"/>
          <note vol="127" key="28" pan="0" pos="480" len="24"/>
          <note vol="85" key="30" pan="0" pos="528" len="24"/>
          <note vol="127" key="24" pan="0" pos="552" len="24"/>
          <note vol="93" key="30" pan="0" pos="576" len="24"/>
          <note vol="127" key="24" pan="0" pos="600" len="24"/>
          <note vol="127" key="24" pan="0" pos="624" len="24"/>
          <note vol="108" key="30" pan="0" pos="648" len="24"/>
          <note vol="127" key="28" pan="0" pos="672" len="24"/>
          <note vol="127" key="24" pan="0" pos="720" len="24"/>
          <note vol="102" key="30" pan="0" pos="744" len="24"/>
          <note vol="127" key="24" pan="0" pos="768" len="24"/>
          <note vol="82" key="30" pan="0" pos="816" len="24"/>
          <note vol="127" key="24" pan="0" pos="840" len="24"/>
          <note vol="127" key="28" pan="0" pos="864" len="24"/>
          <note vol="85" key="30" pan="0" pos="912" len="24"/>
          <note vol="127" key="24" pan="0" pos="936" len="24"/>
          <note vol="93" key="30" pan="0" pos="960" len="24"/>
          <note vol="127" key="24" pan="0" pos="984" len="24"/>
          <note vol="127" key="24" pan="0" pos="1008" len="24"/>
          <note vol="108" key="30" pan="0" pos="1032" len="24"/>
          <note vol="127" key="28" pan="0" pos="1056" len="24"/>
          <note vol="127" key="24" pan="0" pos="1104" len="24"/>
          <note vol="102" key="30" pan="0" pos="1128" len="24"/>
          <note vol="127" key="24" pan="0" pos="1152" len="24"/>
          <note vol="82" key="30" pan="0" pos="1200" len="24"/>
          <note vol="127" key="24" pan="0" pos="1224" len="24"/>
          <note vol="127" key="28" pan="0" pos="1248" len="24"/>
          <note vol="85" key="30" pan="0" pos="1296" len="24"/>
          <note vol="127" key="24" pan="0" pos="1320" len="24"/>
          <note vol="93" key="30" pan="0" pos="1344" len="24"/>
          <note vol="127" key="24" pan="0" pos="1368" len="24"/>
          <note vol="127" key="24" pan="0" pos="1392" len="24"/>
          <note vol="108" key="30" pan="0" pos="1416" len="24"/>
          <note vol="127" key="28" pan="0" pos="1440" len="24"/>
          <note vol="127" key="24" pan="0" pos="1488" len="24"/>
          <note vol="102" key="30" pan="0" pos="1512" len="24"/>
        </pattern>
        <pattern type="1" name="Drums" steps="16" muted="0" pos="6144">
          <note vol="127" key="24" pan="0" pos="0" len="24"/>
          <note vol="82" key="30" pan="0" pos="48" len="24"/>
          <note vol="127" key="24" pan="0" pos="72" len="24"/>
          <note vol="127" key="28" pan="0" pos="96" len="24"/>
          <note vol="85" key="30" pan="0" pos="144" len="24"/>
          <note vol="127" key="24" pan="0" pos="168" len="24"/>
          <note vol="93" key="30" pan="0" pos="192" len="24"/>
          <note vol="127" key="24" pan="0" pos="216" len="24"/>
          <note vol="127" key="24" pan="0" pos="240" len="24"/>
          <note vol="108" key="30" pan="0" pos="264" len="24"/>
          <note vol="127" key="28" pan="0" pos="288" len="24"/>
          <note vol="127" key="24" pan="0" pos="336" len="24"/>
          <note vol="102" key="30" pan="0" pos="360" len="24"/>
          <note vol="127" key="24" pan="0" pos="384" len="24"/>
          <note vol="82" key="30" pan="0" pos="432" len="24"/>
          <note vol="127" key="24" pan="0" pos="456" len="24"/>
          <note vol="127" key="28" pan="0" pos="480" len="24"/>
          <note vol="85" key="30" pan="0" pos="528" len="24"/>
          <note vol="127" key="24" pan="0" pos="552" len="24"/>
          <note vol="93" key="30" pan="0" pos="576" len="24"/>
          <note vol="127" key="24" pan="0" pos="600" len="24"/>
          <note vol="127" key="24" pan="0" pos="624" len="24"/>
          <note vol="108" key="30" pan="0" pos="648" len="24"/>
          <note vol="127" key="28" pan="0" pos="672" len="24"/>
          <note vol="127" key="24" pan="0" pos="720" len="24"/>
          <note vol="102" key="30" pan="0" pos="744" len="24"/>
          <note vol="127" key="24" pan="0" pos="768" len="24"/>
          <note vol="82" key="30" pan="0" pos="816" len="24"/>
          <note vol="127" key="24" pan="0" pos="840" len="24"/>
          <note vol="127" key="28" pan="0" pos="864" len="24"/>
          <note vol="85" key="30" pan="0" pos="912" len="24"/>
          <note vol="127" key="24" pan="0" pos="936" len="24"/>
          <note vol="93" key="30" pan="0" pos="960" len="24"/>
          <note vol="127" key="24" pan="0" pos="984" len="24"/>
          <note vol="127" key="24" pan="0" pos="1008" len="24"/>
          <note vol="108" key="30" pan="0" pos="1032" len="24"/>
          <note vol="127" key="28" pan="0" pos="1056" len="24"/>
          <note vol="127" key="24" pan="0" pos="1104" len="24"/>
          <note vol="102" key="30" pan="0" pos="1128" len="24"/>
          <note vol="127" key="24" pan="0" pos="1152" len="24"/>
          <note vol="82" key="30" pan="0" pos="1200" len="24"/>
          <note vol="127" key="24" pan="0" pos="1224" len="24"/>
          <note vol="127" key="28" pan="0" pos="1248" len="24"/>
          <note vol="85" key="30" pan="0" pos="1296" len="24"/>
          <note vol="127" key="24" pan="0" pos="1320" len="24"/>
          <note vol="93" key="30" pan="0" pos="1344" len="24"/>
          <note vol="127" key="24" pan="0" pos="1368" len="24"/>
          <note vol="127" key="24" pan="0" pos="1392" len="24"/>
          <note vol="108" key="30" pan="0" pos="1416" len="24"/>
          <note vol="127" key="28" pan="0" pos="1440" len="24"/>
          <note vol="127" key="24" pan="0" pos="1488" len="24"/>
          <note vol="102" key="30" pan="0" pos="1512" len="24"/>
        </pattern>
        <pattern type="1" name="Drums" steps="16" muted="0" pos="7680">
          <note vol="127" key="24" pan="0" pos="0" len="24"/>
          <note vol="82" key="30" pan="0" pos="48" len="24"/>
          <note vol="127" key="24" pan="0" pos="72" len="24"/>
          <note vol="127" key="28" pan="0" pos="96" len="24"/>
          <note vol="85" key="30" pan="0" pos="144" len="24"/>
          <note vol="127" key="24" pan="0" pos="168" len="24"/>
          <note vol="93" key="30" pan="0" pos="192" len="24"/>
          <note vol="127" key="24" pan="0" pos="216" len="24"/>
          <note vol="127" key="24" pan="0" pos="240" len="24"/>
          <note vol="108" key="30" pan="0" pos="264" len="24"/>
          <note vol="127" key="28" pan="0" pos="288" len="24"/>
          <note vol="127" key="24" pan="0" pos="336" len="24"/>
          <note vol="102" key="30" pan="0" pos="360" len="24"/>
          <note vol="127" key="24" pan="0" pos="384" len="24"/>
          <note vol="82" key="30" pan="0" pos="432" len="24"/>
          <note vol="127" key="24" pan="0" pos="456" len="24"/>
          <note vol="127" key="28" pan="0" pos="480" len="24"/>
          <note vol="85" key="30" pan="0" pos="528" len="24"/>
          <note vol="127" key="24" pan="0" pos="552" len="24"/>
          <note vol="93" key="30" pan="0" pos="576" len="24"/>
          <note vol="127" key="24" pan="0" pos="600" len="24"/>
          <note vol="127" key="24" pan="0" pos="624" len="24"/>
          <note vol="108" key="30" pan="0" pos="648" len="24"/>
          <note vol="127" key="28" pan="0" pos="672" len="24"/>
          <note vol="127" key="24" pan="0" pos="720" len="24"/>
          <note vol="102" key="30" pan="0" pos="744" len="24"/>
          <note vol="127" key="24" pan="0" pos="768" len="24"/>
          <note vol="82" key="30" pan="0" pos="816" len="24"/>
          <note vol="127" key="24" pan="0" pos="840" len="24"/>
          <note vol="127" key="28" pan="0" pos="864" len="24"/>
          <note vol="85" key="30" pan="0" pos="912" len="24"/>
          <note vol="127" key="24" pan="0" pos="936" len="24"/>
          <note vol="93" key="30" pan="0" pos="960" len="24"/>
          <note vol="127" key="24" pan="0" pos="984" len="24"/>
          <note vol="127" key="24" pan="0" pos="1008" len="24"/>
          <note vol="108" key="30" pan="0" pos="1032" len="24"/>
          <note vol="127" key="28" pan="0" pos="1056" len="24"/>
          <note vol="127" key="24" pan="0" pos="1104" len="24"/>
          <note vol="102" key="30" pan="0" pos="1128" len="24"/>
          <note vol="127" key="24" pan="0" pos="1152" len="24"/>
          <note vol="82" key="30" pan="0" pos="1200" len="24"/>
          <note vol="127" key="24" pan="0" pos="1224" len="24"/>
          <note vol="127" key="28" pan="0" pos="1248" len="24"/>
          <note vol="85" key="30" pan="0" pos="1296" len="24"/>
          <note vol="127" key="24" pan="0" pos="1320" len="24"/>
          <note vol="93" key="30" pan="0" pos="1344" len="24"/>
          <note vol="127" key="24" pan="0" pos="1368" len="24"/>
          <note vol="127" key="24" pan="0" pos="1392" len="24"/>
          <note vol="108" key="30" pan="0" pos="1416" len="24"/>
          <note vol="127" key="28" pan="0" pos="1440" len="24"/>
          <note vol="131" key="24" pan="0" pos="1464" len="24"/>
          <note vol="131" key="28" pan="0" pos="1488" len="24"/>
          <note vol="102" key="30" pan="0" pos="1512" len="24"/>
          <note vol="131" key="24" pan="0" pos="1512" len="24"/>
        </pattern>
        <pattern type="1" name="Drums" steps="16" muted="0" pos="9216">
          <note vol="105" key="41" pan="0" pos="0" len="24"/>
          <note vol="127" key="24" pan="0" pos="0" len="24"/>
          <note vol="105" key="41" pan="0" pos="48" len="24"/>
          <note vol="82" key="30" pan="0" pos="48" len="24"/>
          <note vol="127" key="24" pan="0" pos="72" len="24"/>
          <note vol="105" key="41" pan="0" pos="96" len="24"/>
          <note vol="127" key="28" pan="0" pos="96" len="24"/>
          <note vol="105" key="41" pan="0" pos="144" len="24"/>
          <note vol="85" key="30" pan="0" pos="144" len="24"/>
          <note vol="127" key="24" pan="0" pos="168" len="24"/>
          <note vol="105" key="41" pan="0" pos="192" len="24"/>
          <note vol="93" key="30" pan="0" pos="192" len="24"/>
          <note vol="127" key="24" pan="0" pos="216" len="24"/>
          <note vol="105" key="41" pan="0" pos="240" len="24"/>
          <note vol="127" key="24" pan="0" pos="240" len="24"/>
          <note vol="108" key="30" pan="0" pos="264" len="24"/>
          <note vol="105" key="41" pan="0" pos="288" len="24"/>
          <note vol="127" key="28" pan="0" pos="288" len="24"/>
          <note vol="105" key="41" pan="0" pos="312" len="24"/>
          <note vol="105" key="41" pan="0" pos="336" len="24"/>
          <note vol="127" key="24" pan="0" pos="336" len="24"/>
          <note vol="102" key="30" pan="0" pos="360" len="24"/>
          <note vol="105" key="41" pan="0" pos="384" len="24"/>
          <note vol="127" key="24" pan="0" pos="384" len="24"/>
          <note vol="105" key="41" pan="0" pos="432" len="24"/>
          <note vol="82" key="30" pan="0" pos="432" len="24"/>
          <note vol="127" key="24" pan="0" pos="456" len="24"/>
          <note vol="105" key="41" pan="0" pos="480" len="24"/>
          <note vol="127" key="28" pan="0" pos="480" len="24"/>
          <note vol="105" key="41" pan="0" pos="528" len="24"/>
          <note vol="85" key="30" pan="0" pos="528" len="24"/>
          <note vol="127" key="24" pan="0" pos="552" len="24"/>
          <note vol="105" key="41" pan="0" pos="576" len="24"/>
          <note vol="93" key="30" pan="0" pos="576" len="24"/>
          <note vol="127" key="24" pan="0" pos="600" len="24"/>
          <note vol="105" key="41" pan="0" pos="624" len="24"/>
          <note vol="127" key="24" pan="0" pos="624" len="24"/>
          <note vol="105" key="41" pan="0" pos="648" len="24"/>
          <note vol="108" key="30" pan="0" pos="648" len="24"/>
          <note vol="105" key="41" pan="0" pos="672" len="24"/>
          <note vol="127" key="28" pan="0" pos="672" len="24"/>
          <note vol="105" key="41" pan="0" pos="720" len="24"/>
          <note vol="127" key="24" pan="0" pos="720" len="24"/>
          <note vol="102" key="30" pan="0" pos="744" len="24"/>
          <note vol="105" key="41" pan="0" pos="768" len="24"/>
          <note vol="127" key="24" pan="0" pos="768" len="24"/>
          <note vol="105" key="41" pan="0" pos="816" len="24"/>
          <note vol="82" key="30" pan="0" pos="816" len="24"/>
          <note vol="127" key="24" pan="0" pos="840" len="24"/>
          <note vol="105" key="41" pan="0" pos="864" len="24"/>
          <note vol="127" key="28" pan="0" pos="864" len="24"/>
          <note vol="105" key="41" pan="0" pos="912" len="24"/>
          <note vol="85" key="30" pan="0" pos="912" len="24"/>
          <note vol="127" key="24" pan="0" pos="936" len="24"/>
          <note vol="105" key="41" pan="0" pos="960" len="24"/>
          <note vol="93" key="30" pan="0" pos="960" len="24"/>
          <note vol="127" key="24" pan="0" pos="984" len="24"/>
          <note vol="105" key="41" pan="0" pos="1008" len="24"/>
          <note vol="127" key="24" pan="0" pos="1008" len="24"/>
          <note vol="108" key="30" pan="0" pos="1032" len="24"/>
          <note vol="105" key="41" pan="0" pos="1056" len="24"/>
          <note vol="127" key="28" pan="0" pos="1056" len="24"/>
          <note vol="105" key="41" pan="0" pos="1080" len="24"/>
          <note vol="105" key="41" pan="0" pos="1104" len="24"/>
          <note vol="127" key="24" pan="0" pos="1104" len="24"/>
          <note vol="102" key="30" pan="0" pos="1128" len="24"/>
          <note vol="105" key="41" pan="0" pos="1152" len="24"/>
          <note vol="127" key="24" pan="0" pos="1152" len="24"/>
          <note vol="105" key="41" pan="0" pos="1200" len="24"/>
          <note vol="82" key="30" pan="0" pos="1200" len="24"/>
          <note vol="127" key="24" pan="0" pos="1224" len="24"/>
          <note vol="105" key="41" pan="0" pos="1248" len="24"/>
          <note vol="127" key="28" pan="0" pos="1248" len="24"/>
          <note vol="105" key="41" pan="0" pos="1296" len="24"/>
          <note vol="85" key="30" pan="0" pos="1296" len="24"/>
          <note vol="127" key="24" pan="0" pos="1320" len="24"/>
          <note vol="105" key="41" pan="0" pos="1344" len="24"/>
          <note vol="93" key="30" pan="0" pos="1344" len="24"/>
          <note vol="127" key="24" pan="0" pos="1368" len="24"/>
          <note vol="105" key="41" pan="0" pos="1392" len="24"/>
          <note vol="127" key="24" pan="0" pos="1392" len="24"/>
          <note vol="105" key="41" pan="0" pos="1416" len="24"/>
          <note vol="108" key="30" pan="0" pos="1416" len="24"/>
          <note vol="105" key="41" pan="0" pos="1440" len="24"/>
          <note vol="127" key="28" pan="0" pos="1440" len="24"/>
          <note vol="105" key="41" pan="0" pos="1488" len="24"/>
          <note vol="127" key="24" pan="0" pos="1488" len="24"/>
          <note vol="102" key="30" pan="0" pos="1512" len="24"/>
        </pattern>
        <pattern type="1" name="Drums" steps="16" muted="0" pos="10752">
          <note vol="105" key="41" pan="0" pos="0" len="24"/>
          <note vol="127" key="24" pan="0" pos="0" len="24"/>
          <note vol="105" key="41" pan="0" pos="48" len="24"/>
          <note vol="82" key="30" pan="0" pos="48" len="24"/>
          <note vol="127" key="24" pan="0" pos="72" len="24"/>
          <note vol="105" key="41" pan="0" pos="96" len="24"/>
          <note vol="127" key="28" pan="0" pos="96" len="24"/>
          <note vol="105" key="41" pan="0" pos="144" len="24"/>
          <note vol="85" key="30" pan="0" pos="144" len="24"/>
          <note vol="127" key="24" pan="0" pos="168" len="24"/>
          <note vol="105" key="41" pan="0" pos="192" len="24"/>
          <note vol="93" key="30" pan="0" pos="192" len="24"/>
          <note vol="127" key="24" pan="0" pos="216" len="24"/>
          <note vol="105" key="41" pan="0" pos="240" len="24"/>
          <note vol="127" key="24" pan="0" pos="240" len="24"/>
          <note vol="108" key="30" pan="0" pos="264" len="24"/>
          <note vol="105" key="41" pan="0" pos="288" len="24"/>
          <note vol="127" key="28" pan="0" pos="288" len="24"/>
          <note vol="105" key="41" pan="0" pos="312" len="24"/>
          <note vol="105" key="41" pan="0" pos="336" len="24"/>
          <note vol="127" key="24" pan="0" pos="336" len="24"/>
          <note vol="102" key="30" pan="0" pos="360" len="24"/>
          <note vol="105" key="41" pan="0" pos="384" len="24"/>
          <note vol="127" key="24" pan="0" pos="384" len="24"/>
          <note vol="105" key="41" pan="0" pos="432" len="24"/>
          <note vol="82" key="30" pan="0" pos="432" len="24"/>
          <note vol="127" key="24" pan="0" pos="456" len="24"/>
          <note vol="105" key="41" pan="0" pos="480" len="24"/>
          <note vol="127" key="28" pan="0" pos="480" len="24"/>
          <note vol="105" key="41" pan="0" pos="528" len="24"/>
          <note vol="85" key="30" pan="0" pos="528" len="24"/>
          <note vol="127" key="24" pan="0" pos="552" len="24"/>
          <note vol="105" key="41" pan="0" pos="576" len="24"/>
          <note vol="93" key="30" pan="0" pos="576" len="24"/>
          <note vol="127" key="24" pan="0" pos="600" len="24"/>
          <note vol="105" key="41" pan="0" pos="624" len="24"/>
          <note vol="127" key="24" pan="0" pos="624" len="24"/>
          <note vol="105" key="41" pan="0" pos="648" len="24"/>
          <note vol="108" key="30" pan="0" pos="648" len="24"/>
          <note vol="105" key="41" pan="0" pos="672" len="24"/>
          <note vol="127" key="28" pan="0" pos="672" len="24"/>
          <note vol="105" key="41" pan="0" pos="720" len="24"/>
          <note vol="127" key="24" pan="0" pos="720" len="24"/>
          <note vol="102" key="30" pan="0" pos="744" len="24"/>
          <note vol="105" key="41" pan="0" pos="768" len="24"/>
          <note vol="127" key="24" pan="0" pos="768" len="24"/>
          <note vol="105" key="41" pan="0" pos="816" len="24"/>
          <note vol="82" key="30" pan="0" pos="816" len="24"/>
          <note vol="127" key="24" pan="0" pos="840" len="24"/>
          <note vol="105" key="41" pan="0" pos="864" len="24"/>
          <note vol="127" key="28" pan="0" pos="864" len="24"/>
          <note vol="105" key="41" pan="0" pos="912" len="24"/>
          <note vol="85" key="30" pan="0" pos="912" len="24"/>
          <note vol="127" key="24" pan="0" pos="936" len="24"/>
          <note vol="105" key="41" pan="0" pos="960" len="24"/>
          <note vol="93" key="30" pan="0" pos="960" len="24"/>
          <note vol="127" key="24" pan="0" pos="984" len="24"/>
          <note vol="105" key="41" pan="0" pos="1008" len="24"/>
          <note vol="127" key="24" pan="0" pos="1008" len="24"/>
          <note vol="108" key="30" pan="0" pos="1032" len="24"/>
          <note vol="105" key="41" pan="0" pos="1056" len="24"/>
          <note vol="127" key="28" pan="0" pos="1056" len="24"/>
          <note vol="105" key="41" pan="0" pos="1080" len="24"/>
          <note vol="105" key="41" pan="0" pos="1104" len="24"/>
          <note vol="127" key="24" pan="0" pos="1104" len="24"/>
          <note vol="102" key="30" pan="0" pos="1128" len="24"/>
          <note vol="105" key="41" pan="0" pos="1152" len="24"/>
          <note vol="127" key="24" pan="0" pos="1152" len="24"/>
          <note vol="105" key="41" pan="0" pos="1200" len="24"/>
          <note vol="82" key="30" pan="0" pos="1200" len="24"/>
          <note vol="127" key="24" pan="0" pos="1224" len="24"/>
          <note vol="105" key="41" pan="0" pos="1248" len="24"/>
          <note vol="127" key="28" pan="0" pos="1248" len="24"/>
          <note vol="105" key="41" pan="0" pos="1296" len="24"/>
          <note vol="85" key="30" pan="0" pos="1296" len="24"/>
          <note vol="127" key="24" pan="0" pos="1320" len="24"/>
          <note vol="105" key="41" pan="0" pos="1344" len="24"/>
          <note vol="93" key="30" pan="0" pos="1344" len="24"/>
          <note vol="127" key="24" pan="0" pos="1368" len="24"/>
          <note vol="105" key="41" pan="0" pos="1392" len="24"/>
          <note vol="127" key="24" pan="0" pos="1392" len="24"/>
          <note vol="105" key="41" pan="0" pos="1416" len="24"/>
          <note vol="108" key="30" pan="0" pos="1416" len="24"/>
          <note vol="105" key="41" pan="0" pos="1440" len="24"/>
          <note vol="127" key="28" pan="0" pos="1440" len="24"/>
          <note vol="127" key="24" pan="0" pos="1464" len="24"/>
          <note vol="105" key="41" pan="0" pos="1488" len="24"/>
          <note vol="127" key="28" pan="0" pos="1488" len="24"/>
          <note vol="102" key="30" pan="0" pos="1512" len="24"/>
          <note vol="127" key="24" pan="0" pos="1512" len="24"/>
        </pattern>
        <pattern type="1" name="Drums" steps="16" muted="0" pos="12288">
          <note vol="127" key="24" pan="0" pos="0" len="24"/>
          <note vol="82" key="30" pan="0" pos="48" len="24"/>
          <note vol="127" key="24" pan="0" pos="72" len="24"/>
          <note vol="127" key="28" pan="0" pos="96" len="24"/>
          <note vol="85" key="30" pan="0" pos="144" len="24"/>
          <note vol="127" key="24" pan="0" pos="168" len="24"/>
          <note vol="93" key="30" pan="0" pos="192" len="24"/>
          <note vol="127" key="24" pan="0" pos="216" len="24"/>
          <note vol="127" key="24" pan="0" pos="240" len="24"/>
          <note vol="108" key="30" pan="0" pos="264" len="24"/>
          <note vol="127" key="28" pan="0" pos="288" len="24"/>
          <note vol="127" key="24" pan="0" pos="336" len="24"/>
          <note vol="102" key="30" pan="0" pos="360" len="24"/>
          <note vol="127" key="24" pan="0" pos="384" len="24"/>
          <note vol="82" key="30" pan="0" pos="432" len="24"/>
          <note vol="127" key="24" pan="0" pos="456" len="24"/>
          <note vol="127" key="28" pan="0" pos="480" len="24"/>
          <note vol="85" key="30" pan="0" pos="528" len="24"/>
          <note vol="127" key="24" pan="0" pos="552" len="24"/>
          <note vol="93" key="30" pan="0" pos="576" len="24"/>
          <note vol="127" key="24" pan="0" pos="600" len="24"/>
          <note vol="127" key="24" pan="0" pos="624" len="24"/>
          <note vol="108" key="30" pan="0" pos="648" len="24"/>
          <note vol="127" key="28" pan="0" pos="672" len="24"/>
          <note vol="127" key="24" pan="0" pos="720" len="24"/>
          <note vol="102" key="30" pan="0" pos="744" len="24"/>
          <note vol="127" key="24" pan="0" pos="768" len="24"/>
          <note vol="82" key="30" pan="0" pos="816" len="24"/>
          <note vol="127" key="24" pan="0" pos="840" len="24"/>
          <note vol="127" key="28" pan="0" pos="864" len="24"/>
          <note vol="85" key="30" pan="0" pos="912" len="24"/>
          <note vol="127" key="24" pan="0" pos="936" len="24"/>
          <note vol="93" key="30" pan="0" pos="960" len="24"/>
          <note vol="127" key="24" pan="0" pos="984" len="24"/>
          <note vol="127" key="24" pan="0" pos="1008" len="24"/>
          <note vol="108" key="30" pan="0" pos="1032" len="24"/>
          <note vol="127" key="28" pan="0" pos="1056" len="24"/>
          <note vol="127" key="24" pan="0" pos="1104" len="24"/>
          <note vol="102" key="30" pan="0" pos="1128" len="24"/>
          <note vol="127" key="24" pan="0" pos="1152" len="24"/>
          <note vol="82" key="30" pan="0" pos="1200" len="24"/>
          <note vol="127" key="24" pan="0" pos="1224" len="24"/>
          <note vol="127" key="28" pan="0" pos="1248" len="24"/>
          <note vol="85" key="30" pan="0" pos="1296" len="24"/>
          <note vol="127" key="24" pan="0" pos="1320" len="24"/>
          <note vol="93" key="30" pan="0" pos="1344" len="24"/>
          <note vol="127" key="24" pan="0" pos="1368" len="24"/>
          <note vol="127" key="24" pan="0" pos="1392" len="24"/>
          <note vol="108" key="30" pan="0" pos="1416" len="24"/>
          <note vol="127" key="28" pan="0" pos="1440" len="24"/>
          <note vol="127" key="24" pan="0" pos="1488" len="24"/>
          <note vol="102" key="30" pan="0" pos="1512" len="24"/>
        </pattern>
        <pattern type="1" name="Drums" steps="16" muted="0" pos="13824">
          <note vol="127" key="24" pan="0" pos="0" len="24"/>
          <note vol="82" key="30" pan="0" pos="48" len="24"/>
          <note vol="127" key="24" pan="0" pos="72" len="24"/>
          <note vol="127" key="28" pan="0" pos="96" len="24"/>
          <note vol="85" key="30" pan="0" pos="144" len="24"/>
          <note vol="127" key="24" pan="0" pos="168" len="24"/>
          <note vol="93" key="30" pan="0" pos="192" len="24"/>
          <note vol="127" key="24" pan="0" pos="216" len="24"/>
          <note vol="127" key="24" pan="0" pos="240" len="24"/>
          <note vol="108" key="30" pan="0" pos="264" len="24"/>
          <note vol="127" key="28" pan="0" pos="288" len="24"/>
          <note vol="127" key="24" pan="0" pos="336" len="24"/>
          <note vol="102" key="30" pan="0" pos="360" len="24"/>
          <note vol="127" key="24" pan="0" pos="384" len="24"/>
          <note vol="82" key="30" pan="0" pos="432" len="24"/>
          <note vol="127" key="24" pan="0" pos="456" len="24"/>
          <note vol="127" key="28" pan="0" pos="480" len="24"/>
          <note vol="85" key="30" pan="0" pos="528" len="24"/>
          <note vol="127" key="24" pan="0" pos="552" len="24"/>
          <note vol="93" key="30" pan="0" pos="576" len="24"/>
          <note vol="127" key="24" pan="0" pos="600" len="24"/>
          <note vol="127" key="24" pan="0" pos="624" len="24"/>
          <note vol="108" key="30" pan="0" pos="648" len="24"/>
          <note vol="127" key="28" pan="0" pos="672" len="24"/>
          <note vol="127" key="24" pan="0" pos="720" len="24"/>
          <note vol="102" key="30" pan="0" pos="744" len="24"/>
          <note vol="127" key="24" pan="0" pos="768" len="24"/>
          <note vol="82" key="30" pan="0" pos="816" len="24"/>
          <note vol="127" key="24" pan="0" pos="840" len="24"/>
          <note vol="127" key="28" pan="0" pos="864" len="24"/>
          <note vol="85" key="30" pan="0" pos="912" len="24"/>
          <note vol="127" key="24" pan="0" pos="936" len="24"/>
          <note vol="93" key="30" pan="0" pos="960" len="24"/>
          <note vol="127" key="24" pan="0" pos="984" len="24"/>
          <note vol="127" key="24" pan="0" pos="1008" len="24"/>
          <note vol="108" key="30" pan="0" pos="1032" len="24"/>
          <note vol="127" key="28" pan="0" pos="1056" len="24"/>
          <note vol="127" key="24" pan="0" pos="1104" len="24"/>
          <note vol="102" key="30" pan="0" pos="1128" len="24"/>
          <note vol="127" key="24" pan="0" pos="1152" len="24"/>
          <note vol="82" key="30" pan="0" pos="1200" len="24"/>
          <note vol="127" key="24" pan="0" pos="1224" len="24"/>
          <note vol="127" key="28" pan="0" pos="1248" len="24"/>
          <note vol="85" key="30" pan="0" pos="1296" len="24"/>
          <note vol="127" key="24" pan="0" pos="1320" len="24"/>
          <note vol="93" key="30" pan="0" pos="1344" len="24"/>
          <note vol="127" key="24" pan="0" pos="1368" len="24"/>
          <note vol="127" key="24" pan="0" pos="1392" len="24"/>
          <note vol="108" key="30" pan="0" pos="1416" len="24"/>
          <note vol="127" key="28" pan="0" pos="1440" len="24"/>
          <note vol="127" key="24" pan="0" pos="1488" len="24"/>
          <note vol="102" key="30" pan="0" pos="1512" len="24"/>
        </pattern>
      </track>
    </trackcontainer>
    <track type="6" name="Automation track" solo="0" muted="0">
      <automationtrack/>
      <automationpattern name="Numerator" mute="0" pos="0" len="192" prog="0" tens="1"/>
      <automationpattern name="Denominator" mute="0" pos="0" len="192" prog="0" tens="1"/>
      <automationpattern name="Tempo" mute="0" pos="0" len="192" prog="0" tens="1"/>
      <automationpattern name="Master volume" mute="0" pos="0" len="192" prog="0" tens="1"/>
      <automationpattern name="Master pitch" mute="0" pos="0" len="192" prog="0" tens="1"/>
      <automationpattern name="Numerator" mute="0" pos="0" len="192" prog="0" tens="1"/>
      <automationpattern name="Denominator" mute="0" pos="0" len="192" prog="0" tens="1"/>
      <automationpattern name="Tempo" mute="0" pos="0" len="192" prog="0" tens="1"/>
      <automationpattern name="Master volume" mute="0" pos="0" len="192" prog="0" tens="1"/>
      <automationpattern name="Master pitch" mute="0" pos="0" len="192" prog="0" tens="1"/>
    </track>
    <fxmixer x="75" y="497" width="561" visible="1" height="333" minimized="0" maximized="0">
      <fxchannel soloed="0" name="Master" volume="1" muted="0" num="0">
        <fxchain enabled="0" numofeffects="0"/>
      </fxchannel>
    </fxmixer>
    <ControllerRackView x="836" y="407" width="350" visible="0" height="200" minimized="0" maximized="0"/>
    <pianoroll x="70" y="362" width="860" visible="1" height="480" minimized="0" maximized="0"/>
    <automationeditor x="56" y="255" width="860" visible="0" height="400" minimized="0" maximized="0"/>
    <projectnotes x="179" y="461" width="902" visible="0" height="400" minimized="0" maximized="0"><![CDATA[<!DOCTYPE HTML PUBLIC "-//W3C//DTD HTML 4.0//EN" "http://www.w3.org/TR/REC-html40/strict.dtd">
<html><head><meta name="qrichtext" content="1" /><style type="text/css">
p, li { white-space: pre-wrap; }
</style></head><body style=" font-family:'Cantarell'; font-size:11pt; font-weight:400; font-style:normal;">
<p style=" margin-top:0px; margin-bottom:0px; margin-left:0px; margin-right:0px; -qt-block-indent:0; text-indent:0px;">Electrified Toxic Waste</p>
<p style=" margin-top:0px; margin-bottom:0px; margin-left:0px; margin-right:0px; -qt-block-indent:0; text-indent:0px;">==============</p>
<p style=" margin-top:0px; margin-bottom:0px; margin-left:0px; margin-right:0px; -qt-block-indent:0; text-indent:0px;">Notes:</p>
<p style=" margin-top:0px; margin-bottom:0px; margin-left:0px; margin-right:0px; -qt-block-indent:0; text-indent:0px;">- drum pattern change at measure 49</p></body></html>]]></projectnotes>
    <timeline lpstate="1" lp1pos="15360" lp0pos="0"/>
    <controllers/>
  </song>
</lmms-project>
