<?xml version="1.0"?>
<!DOCTYPE lmms-project>
<lmms-project type="song" version="1.0" creatorversion="1.2.2" creator="LMMS">
  <head bpm="120" mastervol="100" timesig_denominator="4" timesig_numerator="4" masterpitch="0"/>
  <song>
    <trackcontainer visible="1" y="13" type="song" maximized="0" width="1625" x="16" height="393" minimized="0">
      <track type="0" solo="0" muted="0" name="Guitar">
        <instrumenttrack pitchrange="1" pitch="0" basenote="57" vol="100" pan="0" usemasterpitch="1" fxch="0">
          <instrument name="sf2player">
            <sf2player gain="1" src="soundfonts/GeneralUser GS v1.471.sf2" reverbRoomSize="0.2" chorusLevel="2" chorusSpeed="0.30000001" patch="27" reverbLevel="0.89999998" reverbDamping="0.2" chorusNum="0.89999998" bank="0" reverbWidth="0.5" reverbOn="0" chorusOn="0" chorusDepth="8"/>
          </instrument>
          <eldata ftype="0" fcut="14000" fres="0.5" fwet="0">
            <elvol x100="0" userwavefile="" att="0" lshp="0" lamt="0" ctlenvamt="0" amt="0" pdel="0" hold="0.5" lspd_denominator="4" lspd_numerator="4" lpdel="0" dec="0.5" sustain="0.5" latt="0" lspd_syncmode="0" lspd="0.1" rel="0.1"/>
            <elcut x100="0" userwavefile="" att="0" lshp="0" lamt="0" ctlenvamt="0" amt="0" pdel="0" hold="0.5" lspd_denominator="4" lspd_numerator="4" lpdel="0" dec="0.5" sustain="0.5" latt="0" lspd_syncmode="0" lspd="0.1" rel="0.1"/>
            <elres x100="0" userwavefile="" att="0" lshp="0" lamt="0" ctlenvamt="0" amt="0" pdel="0" hold="0.5" lspd_denominator="4" lspd_numerator="4" lpdel="0" dec="0.5" sustain="0.5" latt="0" lspd_syncmode="0" lspd="0.1" rel="0.1"/>
          </eldata>
          <chordcreator chord="0" chord-enabled="0" chordrange="1"/>
          <arpeggiator arptime_numerator="4" arpcycle="0" arpgate="100" arpdir="0" arpskip="0" arp="0" arptime_syncmode="0" arpmode="0" arptime="200" arprange="1" arpmiss="0" arptime_denominator="4" arp-enabled="0"/>
          <midiport fixedinputvelocity="-1" writable="0" fixedoutputvelocity="-1" fixedoutputnote="-1" outputcontroller="0" basevelocity="63" inputchannel="0" outputchannel="1" inputcontroller="0" readable="0" outputprogram="1"/>
          <fxchain enabled="0" numofeffects="0"/>
        </instrumenttrack>
        <pattern type="1" pos="6144" muted="0" name="Guitar" steps="16">
          <note len="72" pos="0" key="31" vol="100" pan="0"/>
          <note len="72" pos="72" key="31" vol="112" pan="0"/>
          <note len="72" pos="144" key="31" vol="119" pan="0"/>
          <note len="72" pos="216" key="31" vol="121" pan="0"/>
          <note len="48" pos="288" key="31" vol="114" pan="0"/>
          <note len="48" pos="336" key="31" vol="112" pan="0"/>
          <note len="72" pos="384" key="30" vol="100" pan="0"/>
          <note len="72" pos="456" key="30" vol="117" pan="0"/>
          <note len="72" pos="528" key="30" vol="127" pan="0"/>
          <note len="72" pos="600" key="30" vol="127" pan="0"/>
          <note len="48" pos="672" key="30" vol="112" pan="0"/>
          <note len="48" pos="720" key="30" vol="123" pan="0"/>
          <note len="72" pos="768" key="31" vol="125" pan="0"/>
          <note len="72" pos="840" key="31" vol="120" pan="0"/>
          <note len="72" pos="912" key="31" vol="126" pan="0"/>
          <note len="72" pos="984" key="31" vol="130" pan="0"/>
          <note len="24" pos="1056" key="31" vol="127" pan="0"/>
          <note len="24" pos="1104" key="31" vol="127" pan="0"/>
          <note len="72" pos="1152" key="30" vol="110" pan="0"/>
          <note len="72" pos="1224" key="30" vol="117" pan="0"/>
          <note len="72" pos="1296" key="30" vol="123" pan="0"/>
          <note len="72" pos="1368" key="30" vol="127" pan="0"/>
          <note len="48" pos="1440" key="28" vol="123" pan="0"/>
          <note len="24" pos="1488" key="28" vol="100" pan="0"/>
          <note len="24" pos="1512" key="30" vol="121" pan="0"/>
        </pattern>
        <pattern type="1" pos="7680" muted="0" name="Guitar" steps="16">
          <note len="72" pos="0" key="31" vol="100" pan="0"/>
          <note len="72" pos="72" key="31" vol="112" pan="0"/>
          <note len="72" pos="144" key="31" vol="119" pan="0"/>
          <note len="72" pos="216" key="31" vol="121" pan="0"/>
          <note len="48" pos="288" key="31" vol="114" pan="0"/>
          <note len="48" pos="336" key="31" vol="112" pan="0"/>
          <note len="72" pos="384" key="30" vol="100" pan="0"/>
          <note len="72" pos="456" key="30" vol="117" pan="0"/>
          <note len="72" pos="528" key="30" vol="127" pan="0"/>
          <note len="72" pos="600" key="30" vol="127" pan="0"/>
          <note len="48" pos="672" key="30" vol="112" pan="0"/>
          <note len="48" pos="720" key="30" vol="123" pan="0"/>
          <note len="72" pos="768" key="31" vol="125" pan="0"/>
          <note len="72" pos="840" key="31" vol="120" pan="0"/>
          <note len="72" pos="912" key="31" vol="126" pan="0"/>
          <note len="72" pos="984" key="31" vol="130" pan="0"/>
          <note len="24" pos="1056" key="33" vol="127" pan="0"/>
          <note len="24" pos="1104" key="31" vol="127" pan="0"/>
          <note len="72" pos="1152" key="30" vol="110" pan="0"/>
          <note len="72" pos="1224" key="30" vol="117" pan="0"/>
          <note len="72" pos="1296" key="30" vol="123" pan="0"/>
          <note len="72" pos="1368" key="30" vol="127" pan="0"/>
          <note len="48" pos="1440" key="28" vol="123" pan="0"/>
          <note len="24" pos="1488" key="28" vol="100" pan="0"/>
          <note len="24" pos="1512" key="30" vol="121" pan="0"/>
        </pattern>
        <pattern type="1" pos="9216" muted="0" name="" steps="16">
          <note len="72" pos="0" key="31" vol="100" pan="0"/>
          <note len="72" pos="72" key="31" vol="112" pan="0"/>
          <note len="72" pos="144" key="31" vol="119" pan="0"/>
          <note len="72" pos="216" key="31" vol="121" pan="0"/>
          <note len="48" pos="288" key="31" vol="114" pan="0"/>
          <note len="48" pos="336" key="31" vol="112" pan="0"/>
          <note len="72" pos="384" key="30" vol="100" pan="0"/>
          <note len="72" pos="456" key="30" vol="117" pan="0"/>
          <note len="72" pos="528" key="30" vol="127" pan="0"/>
          <note len="72" pos="600" key="30" vol="127" pan="0"/>
          <note len="48" pos="672" key="30" vol="112" pan="0"/>
          <note len="48" pos="720" key="30" vol="123" pan="0"/>
          <note len="72" pos="768" key="31" vol="125" pan="0"/>
          <note len="72" pos="840" key="31" vol="120" pan="0"/>
          <note len="72" pos="912" key="31" vol="126" pan="0"/>
          <note len="72" pos="984" key="31" vol="130" pan="0"/>
          <note len="24" pos="1056" key="31" vol="127" pan="0"/>
          <note len="24" pos="1104" key="31" vol="127" pan="0"/>
          <note len="72" pos="1152" key="30" vol="110" pan="0"/>
          <note len="72" pos="1224" key="30" vol="117" pan="0"/>
          <note len="72" pos="1296" key="30" vol="123" pan="0"/>
          <note len="72" pos="1368" key="30" vol="127" pan="0"/>
          <note len="48" pos="1440" key="28" vol="123" pan="0"/>
          <note len="24" pos="1488" key="28" vol="100" pan="0"/>
          <note len="24" pos="1512" key="30" vol="121" pan="0"/>
        </pattern>
        <pattern type="1" pos="10752" muted="0" name="" steps="16">
          <note len="72" pos="0" key="31" vol="100" pan="0"/>
          <note len="72" pos="72" key="31" vol="112" pan="0"/>
          <note len="72" pos="144" key="31" vol="119" pan="0"/>
          <note len="72" pos="216" key="31" vol="121" pan="0"/>
          <note len="12" pos="288" key="31" vol="114" pan="0"/>
          <note len="24" pos="312" key="33" vol="114" pan="0"/>
          <note len="48" pos="336" key="31" vol="112" pan="0"/>
          <note len="72" pos="384" key="30" vol="100" pan="0"/>
          <note len="72" pos="456" key="30" vol="117" pan="0"/>
          <note len="72" pos="528" key="30" vol="127" pan="0"/>
          <note len="72" pos="600" key="30" vol="127" pan="0"/>
          <note len="48" pos="672" key="30" vol="112" pan="0"/>
          <note len="48" pos="720" key="30" vol="123" pan="0"/>
          <note len="72" pos="768" key="31" vol="125" pan="0"/>
          <note len="72" pos="840" key="31" vol="120" pan="0"/>
          <note len="72" pos="912" key="31" vol="126" pan="0"/>
          <note len="72" pos="984" key="31" vol="130" pan="0"/>
          <note len="24" pos="1056" key="33" vol="127" pan="0"/>
          <note len="24" pos="1104" key="31" vol="127" pan="0"/>
          <note len="72" pos="1152" key="30" vol="110" pan="0"/>
          <note len="72" pos="1224" key="30" vol="117" pan="0"/>
          <note len="72" pos="1296" key="30" vol="123" pan="0"/>
          <note len="72" pos="1368" key="30" vol="127" pan="0"/>
          <note len="48" pos="1440" key="28" vol="123" pan="0"/>
          <note len="24" pos="1488" key="28" vol="100" pan="0"/>
          <note len="24" pos="1512" key="30" vol="121" pan="0"/>
        </pattern>
        <pattern type="1" pos="12288" muted="0" name="" steps="16">
          <note len="72" pos="0" key="31" vol="100" pan="0"/>
          <note len="72" pos="72" key="31" vol="112" pan="0"/>
          <note len="72" pos="144" key="31" vol="119" pan="0"/>
          <note len="72" pos="216" key="31" vol="121" pan="0"/>
          <note len="48" pos="288" key="31" vol="114" pan="0"/>
          <note len="48" pos="336" key="31" vol="112" pan="0"/>
          <note len="72" pos="384" key="30" vol="100" pan="0"/>
          <note len="72" pos="456" key="30" vol="117" pan="0"/>
          <note len="72" pos="528" key="30" vol="127" pan="0"/>
          <note len="72" pos="600" key="30" vol="127" pan="0"/>
          <note len="48" pos="672" key="30" vol="112" pan="0"/>
          <note len="48" pos="720" key="30" vol="123" pan="0"/>
          <note len="72" pos="768" key="31" vol="125" pan="0"/>
          <note len="72" pos="840" key="31" vol="120" pan="0"/>
          <note len="72" pos="912" key="31" vol="126" pan="0"/>
          <note len="72" pos="984" key="31" vol="130" pan="0"/>
          <note len="24" pos="1056" key="31" vol="127" pan="0"/>
          <note len="24" pos="1104" key="31" vol="127" pan="0"/>
          <note len="72" pos="1152" key="30" vol="110" pan="0"/>
          <note len="72" pos="1224" key="30" vol="117" pan="0"/>
          <note len="72" pos="1296" key="30" vol="123" pan="0"/>
          <note len="72" pos="1368" key="30" vol="127" pan="0"/>
          <note len="48" pos="1440" key="30" vol="123" pan="0"/>
          <note len="24" pos="1488" key="30" vol="100" pan="0"/>
          <note len="24" pos="1512" key="30" vol="121" pan="0"/>
        </pattern>
        <pattern type="1" pos="13824" muted="0" name="" steps="16">
          <note len="72" pos="0" key="31" vol="100" pan="0"/>
          <note len="72" pos="72" key="31" vol="112" pan="0"/>
          <note len="72" pos="144" key="31" vol="119" pan="0"/>
          <note len="72" pos="216" key="31" vol="121" pan="0"/>
          <note len="48" pos="288" key="31" vol="114" pan="0"/>
          <note len="48" pos="336" key="31" vol="112" pan="0"/>
          <note len="72" pos="384" key="30" vol="100" pan="0"/>
          <note len="72" pos="456" key="30" vol="117" pan="0"/>
          <note len="72" pos="528" key="30" vol="127" pan="0"/>
          <note len="72" pos="600" key="30" vol="127" pan="0"/>
          <note len="48" pos="672" key="30" vol="112" pan="0"/>
          <note len="48" pos="720" key="30" vol="123" pan="0"/>
          <note len="72" pos="768" key="31" vol="125" pan="0"/>
          <note len="72" pos="840" key="31" vol="120" pan="0"/>
          <note len="72" pos="912" key="31" vol="126" pan="0"/>
          <note len="72" pos="984" key="31" vol="130" pan="0"/>
          <note len="24" pos="1056" key="33" vol="127" pan="0"/>
          <note len="24" pos="1104" key="31" vol="127" pan="0"/>
          <note len="72" pos="1152" key="30" vol="110" pan="0"/>
          <note len="72" pos="1224" key="30" vol="117" pan="0"/>
          <note len="72" pos="1296" key="30" vol="123" pan="0"/>
          <note len="72" pos="1368" key="30" vol="127" pan="0"/>
          <note len="48" pos="1440" key="28" vol="123" pan="0"/>
          <note len="24" pos="1488" key="28" vol="100" pan="0"/>
          <note len="24" pos="1512" key="30" vol="121" pan="0"/>
        </pattern>
      </track>
      <track type="0" solo="0" muted="0" name="DIstortion Guitar">
        <instrumenttrack pitchrange="1" pitch="0" basenote="57" vol="60" pan="-20" usemasterpitch="1" fxch="0">
          <instrument name="sf2player">
            <sf2player gain="1" src="soundfonts/GeneralUser GS v1.471.sf2" reverbRoomSize="0.2" chorusLevel="2" chorusSpeed="0.30000001" patch="30" reverbLevel="0.89999998" reverbDamping="0.2" chorusNum="3" bank="0" reverbWidth="0.5" reverbOn="0" chorusOn="1" chorusDepth="8"/>
          </instrument>
          <eldata ftype="0" fcut="14000" fres="0.5" fwet="0">
            <elvol x100="0" userwavefile="" att="0" lshp="0" lamt="0" ctlenvamt="0" amt="0" pdel="0" hold="0.5" lspd_denominator="4" lspd_numerator="4" lpdel="0" dec="0.5" sustain="0.5" latt="0" lspd_syncmode="0" lspd="0.1" rel="0.1"/>
            <elcut x100="0" userwavefile="" att="0" lshp="0" lamt="0" ctlenvamt="0" amt="0" pdel="0" hold="0.5" lspd_denominator="4" lspd_numerator="4" lpdel="0" dec="0.5" sustain="0.5" latt="0" lspd_syncmode="0" lspd="0.1" rel="0.1"/>
            <elres x100="0" userwavefile="" att="0" lshp="0" lamt="0" ctlenvamt="0" amt="0" pdel="0" hold="0.5" lspd_denominator="4" lspd_numerator="4" lpdel="0" dec="0.5" sustain="0.5" latt="0" lspd_syncmode="0" lspd="0.1" rel="0.1"/>
          </eldata>
          <chordcreator chord="0" chord-enabled="0" chordrange="1"/>
          <arpeggiator arptime_numerator="4" arpcycle="0" arpgate="100" arpdir="0" arpskip="0" arp="0" arptime_syncmode="0" arpmode="0" arptime="200" arprange="1" arpmiss="0" arptime_denominator="4" arp-enabled="0"/>
          <midiport fixedinputvelocity="-1" writable="0" fixedoutputvelocity="-1" fixedoutputnote="-1" outputcontroller="0" basevelocity="63" inputchannel="0" outputchannel="1" inputcontroller="0" readable="0" outputprogram="1"/>
          <fxchain enabled="0" numofeffects="0"/>
        </instrumenttrack>
        <pattern type="1" pos="6144" muted="0" name="DIstortion Guitar" steps="16">
          <note len="72" pos="0" key="31" vol="100" pan="0"/>
          <note len="72" pos="72" key="31" vol="112" pan="0"/>
          <note len="72" pos="144" key="31" vol="119" pan="0"/>
          <note len="72" pos="216" key="31" vol="121" pan="0"/>
          <note len="48" pos="288" key="31" vol="114" pan="0"/>
          <note len="48" pos="336" key="31" vol="112" pan="0"/>
          <note len="72" pos="384" key="30" vol="100" pan="0"/>
          <note len="72" pos="456" key="30" vol="117" pan="0"/>
          <note len="72" pos="528" key="30" vol="127" pan="0"/>
          <note len="72" pos="600" key="30" vol="127" pan="0"/>
          <note len="48" pos="672" key="30" vol="112" pan="0"/>
          <note len="48" pos="720" key="30" vol="123" pan="0"/>
          <note len="72" pos="768" key="31" vol="125" pan="0"/>
          <note len="72" pos="840" key="31" vol="120" pan="0"/>
          <note len="72" pos="912" key="31" vol="126" pan="0"/>
          <note len="72" pos="984" key="31" vol="130" pan="0"/>
          <note len="24" pos="1056" key="31" vol="127" pan="0"/>
          <note len="24" pos="1104" key="31" vol="127" pan="0"/>
          <note len="72" pos="1152" key="30" vol="110" pan="0"/>
          <note len="72" pos="1224" key="30" vol="117" pan="0"/>
          <note len="72" pos="1296" key="30" vol="123" pan="0"/>
          <note len="72" pos="1368" key="30" vol="127" pan="0"/>
          <note len="48" pos="1440" key="28" vol="123" pan="0"/>
          <note len="24" pos="1488" key="28" vol="100" pan="0"/>
          <note len="24" pos="1512" key="30" vol="121" pan="0"/>
        </pattern>
        <pattern type="1" pos="7680" muted="0" name="DIstortion Guitar" steps="16">
          <note len="72" pos="0" key="31" vol="100" pan="0"/>
          <note len="72" pos="72" key="31" vol="112" pan="0"/>
          <note len="72" pos="144" key="31" vol="119" pan="0"/>
          <note len="72" pos="216" key="31" vol="121" pan="0"/>
          <note len="48" pos="288" key="31" vol="114" pan="0"/>
          <note len="48" pos="336" key="31" vol="112" pan="0"/>
          <note len="72" pos="384" key="30" vol="100" pan="0"/>
          <note len="72" pos="456" key="30" vol="117" pan="0"/>
          <note len="72" pos="528" key="30" vol="127" pan="0"/>
          <note len="72" pos="600" key="30" vol="127" pan="0"/>
          <note len="48" pos="672" key="30" vol="112" pan="0"/>
          <note len="48" pos="720" key="30" vol="123" pan="0"/>
          <note len="72" pos="768" key="31" vol="125" pan="0"/>
          <note len="72" pos="840" key="31" vol="120" pan="0"/>
          <note len="72" pos="912" key="31" vol="126" pan="0"/>
          <note len="72" pos="984" key="31" vol="130" pan="0"/>
          <note len="24" pos="1056" key="31" vol="127" pan="0"/>
          <note len="24" pos="1104" key="31" vol="127" pan="0"/>
          <note len="72" pos="1152" key="30" vol="110" pan="0"/>
          <note len="72" pos="1224" key="30" vol="117" pan="0"/>
          <note len="72" pos="1296" key="30" vol="123" pan="0"/>
          <note len="72" pos="1368" key="30" vol="127" pan="0"/>
          <note len="48" pos="1440" key="28" vol="123" pan="0"/>
          <note len="24" pos="1488" key="28" vol="100" pan="0"/>
          <note len="24" pos="1512" key="30" vol="121" pan="0"/>
        </pattern>
        <pattern type="1" pos="9216" muted="0" name="" steps="16">
          <note len="72" pos="0" key="31" vol="100" pan="0"/>
          <note len="72" pos="72" key="31" vol="112" pan="0"/>
          <note len="72" pos="144" key="31" vol="119" pan="0"/>
          <note len="72" pos="216" key="31" vol="121" pan="0"/>
          <note len="48" pos="288" key="31" vol="114" pan="0"/>
          <note len="48" pos="336" key="31" vol="112" pan="0"/>
          <note len="72" pos="384" key="30" vol="100" pan="0"/>
          <note len="72" pos="456" key="30" vol="117" pan="0"/>
          <note len="72" pos="528" key="30" vol="127" pan="0"/>
          <note len="72" pos="600" key="30" vol="127" pan="0"/>
          <note len="48" pos="672" key="30" vol="112" pan="0"/>
          <note len="48" pos="720" key="30" vol="123" pan="0"/>
          <note len="72" pos="768" key="31" vol="125" pan="0"/>
          <note len="72" pos="840" key="31" vol="120" pan="0"/>
          <note len="72" pos="912" key="31" vol="126" pan="0"/>
          <note len="72" pos="984" key="31" vol="130" pan="0"/>
          <note len="24" pos="1056" key="31" vol="127" pan="0"/>
          <note len="24" pos="1104" key="31" vol="127" pan="0"/>
          <note len="72" pos="1152" key="30" vol="110" pan="0"/>
          <note len="72" pos="1224" key="30" vol="117" pan="0"/>
          <note len="72" pos="1296" key="30" vol="123" pan="0"/>
          <note len="72" pos="1368" key="30" vol="127" pan="0"/>
          <note len="48" pos="1440" key="28" vol="123" pan="0"/>
          <note len="24" pos="1488" key="28" vol="100" pan="0"/>
          <note len="24" pos="1512" key="30" vol="121" pan="0"/>
        </pattern>
        <pattern type="1" pos="10752" muted="0" name="" steps="16">
          <note len="72" pos="0" key="31" vol="100" pan="0"/>
          <note len="72" pos="72" key="31" vol="112" pan="0"/>
          <note len="72" pos="144" key="31" vol="119" pan="0"/>
          <note len="72" pos="216" key="31" vol="121" pan="0"/>
          <note len="12" pos="288" key="31" vol="114" pan="0"/>
          <note len="24" pos="312" key="33" vol="114" pan="0"/>
          <note len="48" pos="336" key="31" vol="112" pan="0"/>
          <note len="72" pos="384" key="30" vol="100" pan="0"/>
          <note len="72" pos="456" key="30" vol="117" pan="0"/>
          <note len="72" pos="528" key="30" vol="127" pan="0"/>
          <note len="72" pos="600" key="30" vol="127" pan="0"/>
          <note len="48" pos="672" key="30" vol="112" pan="0"/>
          <note len="48" pos="720" key="30" vol="123" pan="0"/>
          <note len="72" pos="768" key="31" vol="125" pan="0"/>
          <note len="72" pos="840" key="31" vol="120" pan="0"/>
          <note len="72" pos="912" key="31" vol="126" pan="0"/>
          <note len="72" pos="984" key="31" vol="130" pan="0"/>
          <note len="24" pos="1056" key="31" vol="127" pan="0"/>
          <note len="24" pos="1104" key="31" vol="127" pan="0"/>
          <note len="72" pos="1152" key="30" vol="110" pan="0"/>
          <note len="72" pos="1224" key="30" vol="117" pan="0"/>
          <note len="72" pos="1296" key="30" vol="123" pan="0"/>
          <note len="72" pos="1368" key="30" vol="127" pan="0"/>
          <note len="48" pos="1440" key="28" vol="123" pan="0"/>
          <note len="24" pos="1488" key="28" vol="100" pan="0"/>
          <note len="24" pos="1512" key="30" vol="121" pan="0"/>
        </pattern>
        <pattern type="1" pos="12288" muted="0" name="" steps="16">
          <note len="72" pos="0" key="31" vol="100" pan="0"/>
          <note len="72" pos="72" key="31" vol="112" pan="0"/>
          <note len="72" pos="144" key="31" vol="119" pan="0"/>
          <note len="72" pos="216" key="31" vol="121" pan="0"/>
          <note len="48" pos="288" key="31" vol="114" pan="0"/>
          <note len="48" pos="336" key="31" vol="112" pan="0"/>
          <note len="72" pos="384" key="30" vol="100" pan="0"/>
          <note len="72" pos="456" key="30" vol="117" pan="0"/>
          <note len="72" pos="528" key="30" vol="127" pan="0"/>
          <note len="72" pos="600" key="30" vol="127" pan="0"/>
          <note len="48" pos="672" key="30" vol="112" pan="0"/>
          <note len="48" pos="720" key="30" vol="123" pan="0"/>
          <note len="72" pos="768" key="31" vol="125" pan="0"/>
          <note len="72" pos="840" key="31" vol="120" pan="0"/>
          <note len="72" pos="912" key="31" vol="126" pan="0"/>
          <note len="72" pos="984" key="31" vol="130" pan="0"/>
          <note len="24" pos="1056" key="31" vol="127" pan="0"/>
          <note len="24" pos="1104" key="31" vol="127" pan="0"/>
          <note len="72" pos="1152" key="30" vol="110" pan="0"/>
          <note len="72" pos="1224" key="30" vol="117" pan="0"/>
          <note len="72" pos="1296" key="30" vol="123" pan="0"/>
          <note len="72" pos="1368" key="30" vol="127" pan="0"/>
          <note len="48" pos="1440" key="30" vol="123" pan="0"/>
          <note len="24" pos="1488" key="30" vol="100" pan="0"/>
          <note len="24" pos="1512" key="30" vol="121" pan="0"/>
        </pattern>
        <pattern type="1" pos="13824" muted="0" name="" steps="16">
          <note len="72" pos="0" key="31" vol="100" pan="0"/>
          <note len="72" pos="72" key="31" vol="112" pan="0"/>
          <note len="72" pos="144" key="31" vol="119" pan="0"/>
          <note len="72" pos="216" key="31" vol="121" pan="0"/>
          <note len="48" pos="288" key="31" vol="114" pan="0"/>
          <note len="48" pos="336" key="31" vol="112" pan="0"/>
          <note len="72" pos="384" key="30" vol="100" pan="0"/>
          <note len="72" pos="456" key="30" vol="117" pan="0"/>
          <note len="72" pos="528" key="30" vol="127" pan="0"/>
          <note len="72" pos="600" key="30" vol="127" pan="0"/>
          <note len="48" pos="672" key="30" vol="112" pan="0"/>
          <note len="48" pos="720" key="30" vol="123" pan="0"/>
          <note len="72" pos="768" key="31" vol="125" pan="0"/>
          <note len="72" pos="840" key="31" vol="120" pan="0"/>
          <note len="72" pos="912" key="31" vol="126" pan="0"/>
          <note len="72" pos="984" key="31" vol="130" pan="0"/>
          <note len="24" pos="1056" key="31" vol="127" pan="0"/>
          <note len="24" pos="1104" key="31" vol="127" pan="0"/>
          <note len="72" pos="1152" key="30" vol="110" pan="0"/>
          <note len="72" pos="1224" key="30" vol="117" pan="0"/>
          <note len="72" pos="1296" key="30" vol="123" pan="0"/>
          <note len="72" pos="1368" key="30" vol="127" pan="0"/>
          <note len="48" pos="1440" key="30" vol="123" pan="0"/>
          <note len="24" pos="1488" key="30" vol="100" pan="0"/>
          <note len="24" pos="1512" key="30" vol="121" pan="0"/>
        </pattern>
      </track>
      <track type="0" solo="0" muted="0" name="Bass (Overdrive Guitar)">
        <instrumenttrack pitchrange="1" pitch="0" basenote="57" vol="54" pan="20" usemasterpitch="1" fxch="0">
          <instrument name="sf2player">
            <sf2player gain="1" src="soundfonts/GeneralUser GS v1.471.sf2" reverbRoomSize="0.2" chorusLevel="2" chorusSpeed="0.30000001" patch="29" reverbLevel="0.89999998" reverbDamping="0.2" chorusNum="3" bank="0" reverbWidth="0.5" reverbOn="0" chorusOn="1" chorusDepth="8"/>
          </instrument>
          <eldata ftype="0" fcut="14000" fres="0.5" fwet="0">
            <elvol x100="0" userwavefile="" att="0" lshp="0" lamt="0" ctlenvamt="0" amt="0" pdel="0" hold="0.5" lspd_denominator="4" lspd_numerator="4" lpdel="0" dec="0.5" sustain="0.5" latt="0" lspd_syncmode="0" lspd="0.1" rel="0.1"/>
            <elcut x100="0" userwavefile="" att="0" lshp="0" lamt="0" ctlenvamt="0" amt="0" pdel="0" hold="0.5" lspd_denominator="4" lspd_numerator="4" lpdel="0" dec="0.5" sustain="0.5" latt="0" lspd_syncmode="0" lspd="0.1" rel="0.1"/>
            <elres x100="0" userwavefile="" att="0" lshp="0" lamt="0" ctlenvamt="0" amt="0" pdel="0" hold="0.5" lspd_denominator="4" lspd_numerator="4" lpdel="0" dec="0.5" sustain="0.5" latt="0" lspd_syncmode="0" lspd="0.1" rel="0.1"/>
          </eldata>
          <chordcreator chord="0" chord-enabled="0" chordrange="1"/>
          <arpeggiator arptime_numerator="4" arpcycle="0" arpgate="100" arpdir="0" arpskip="0" arp="0" arptime_syncmode="0" arpmode="0" arptime="200" arprange="1" arpmiss="0" arptime_denominator="4" arp-enabled="0"/>
          <midiport fixedinputvelocity="-1" writable="0" fixedoutputvelocity="-1" fixedoutputnote="-1" outputcontroller="0" basevelocity="63" inputchannel="0" outputchannel="1" inputcontroller="0" readable="0" outputprogram="1"/>
          <fxchain enabled="0" numofeffects="0"/>
        </instrumenttrack>
        <pattern type="1" pos="3072" muted="0" name="Bass (Overdrive Guitar)" steps="16">
          <note len="24" pos="0" key="31" vol="63" pan="0"/>
          <note len="24" pos="24" key="31" vol="78" pan="0"/>
          <note len="24" pos="48" key="31" vol="97" pan="0"/>
          <note len="24" pos="72" key="31" vol="108" pan="0"/>
          <note len="24" pos="96" key="31" vol="102" pan="0"/>
          <note len="24" pos="120" key="31" vol="91" pan="0"/>
          <note len="24" pos="144" key="31" vol="82" pan="0"/>
          <note len="24" pos="168" key="31" vol="95" pan="0"/>
          <note len="24" pos="192" key="31" vol="102" pan="0"/>
          <note len="24" pos="216" key="31" vol="114" pan="0"/>
          <note len="24" pos="240" key="31" vol="104" pan="0"/>
          <note len="24" pos="264" key="31" vol="91" pan="0"/>
          <note len="12" pos="288" key="31" vol="133" pan="0"/>
          <note len="12" pos="312" key="31" vol="139" pan="0"/>
          <note len="12" pos="336" key="31" vol="133" pan="0"/>
          <note len="12" pos="360" key="31" vol="139" pan="0"/>
          <note len="24" pos="384" key="30" vol="63" pan="0"/>
          <note len="24" pos="408" key="30" vol="78" pan="0"/>
          <note len="24" pos="432" key="30" vol="97" pan="0"/>
          <note len="24" pos="456" key="30" vol="108" pan="0"/>
          <note len="24" pos="480" key="30" vol="102" pan="0"/>
          <note len="24" pos="504" key="30" vol="91" pan="0"/>
          <note len="24" pos="528" key="30" vol="82" pan="0"/>
          <note len="24" pos="552" key="30" vol="95" pan="0"/>
          <note len="24" pos="576" key="30" vol="102" pan="0"/>
          <note len="24" pos="600" key="30" vol="114" pan="0"/>
          <note len="24" pos="624" key="30" vol="104" pan="0"/>
          <note len="24" pos="648" key="30" vol="91" pan="0"/>
          <note len="12" pos="672" key="30" vol="133" pan="0"/>
          <note len="12" pos="696" key="30" vol="139" pan="0"/>
          <note len="12" pos="720" key="30" vol="133" pan="0"/>
          <note len="12" pos="744" key="30" vol="139" pan="0"/>
          <note len="24" pos="768" key="31" vol="63" pan="0"/>
          <note len="24" pos="792" key="31" vol="78" pan="0"/>
          <note len="24" pos="816" key="31" vol="97" pan="0"/>
          <note len="24" pos="840" key="31" vol="108" pan="0"/>
          <note len="24" pos="864" key="31" vol="102" pan="0"/>
          <note len="24" pos="888" key="31" vol="91" pan="0"/>
          <note len="24" pos="912" key="31" vol="82" pan="0"/>
          <note len="24" pos="936" key="31" vol="95" pan="0"/>
          <note len="24" pos="960" key="31" vol="102" pan="0"/>
          <note len="24" pos="984" key="31" vol="114" pan="0"/>
          <note len="24" pos="1008" key="31" vol="104" pan="0"/>
          <note len="24" pos="1032" key="31" vol="91" pan="0"/>
          <note len="12" pos="1056" key="31" vol="133" pan="0"/>
          <note len="12" pos="1080" key="31" vol="139" pan="0"/>
          <note len="12" pos="1104" key="31" vol="133" pan="0"/>
          <note len="12" pos="1128" key="31" vol="139" pan="0"/>
          <note len="24" pos="1152" key="30" vol="63" pan="0"/>
          <note len="24" pos="1176" key="30" vol="78" pan="0"/>
          <note len="24" pos="1200" key="30" vol="97" pan="0"/>
          <note len="24" pos="1224" key="30" vol="108" pan="0"/>
          <note len="24" pos="1248" key="30" vol="102" pan="0"/>
          <note len="24" pos="1272" key="30" vol="91" pan="0"/>
          <note len="24" pos="1296" key="30" vol="82" pan="0"/>
          <note len="24" pos="1320" key="30" vol="95" pan="0"/>
          <note len="24" pos="1344" key="30" vol="102" pan="0"/>
          <note len="24" pos="1368" key="30" vol="114" pan="0"/>
          <note len="24" pos="1392" key="30" vol="104" pan="0"/>
          <note len="24" pos="1416" key="30" vol="91" pan="0"/>
          <note len="12" pos="1440" key="30" vol="133" pan="0"/>
          <note len="12" pos="1464" key="30" vol="139" pan="0"/>
          <note len="12" pos="1488" key="30" vol="133" pan="0"/>
          <note len="12" pos="1512" key="30" vol="139" pan="0"/>
        </pattern>
        <pattern type="1" pos="4608" muted="0" name="Bass (Overdrive Guitar)" steps="16">
          <note len="24" pos="0" key="31" vol="63" pan="0"/>
          <note len="24" pos="24" key="31" vol="78" pan="0"/>
          <note len="24" pos="48" key="31" vol="97" pan="0"/>
          <note len="24" pos="72" key="31" vol="108" pan="0"/>
          <note len="24" pos="96" key="31" vol="102" pan="0"/>
          <note len="24" pos="120" key="31" vol="91" pan="0"/>
          <note len="24" pos="144" key="31" vol="82" pan="0"/>
          <note len="24" pos="168" key="31" vol="95" pan="0"/>
          <note len="24" pos="192" key="31" vol="102" pan="0"/>
          <note len="24" pos="216" key="31" vol="114" pan="0"/>
          <note len="24" pos="240" key="31" vol="104" pan="0"/>
          <note len="24" pos="264" key="31" vol="91" pan="0"/>
          <note len="12" pos="288" key="31" vol="133" pan="0"/>
          <note len="12" pos="312" key="31" vol="139" pan="0"/>
          <note len="12" pos="336" key="31" vol="133" pan="0"/>
          <note len="12" pos="360" key="31" vol="139" pan="0"/>
          <note len="24" pos="384" key="30" vol="63" pan="0"/>
          <note len="24" pos="408" key="30" vol="78" pan="0"/>
          <note len="24" pos="432" key="30" vol="97" pan="0"/>
          <note len="24" pos="456" key="30" vol="108" pan="0"/>
          <note len="24" pos="480" key="30" vol="102" pan="0"/>
          <note len="24" pos="504" key="30" vol="91" pan="0"/>
          <note len="24" pos="528" key="30" vol="82" pan="0"/>
          <note len="24" pos="552" key="30" vol="95" pan="0"/>
          <note len="24" pos="576" key="30" vol="102" pan="0"/>
          <note len="24" pos="600" key="30" vol="114" pan="0"/>
          <note len="24" pos="624" key="30" vol="104" pan="0"/>
          <note len="24" pos="648" key="30" vol="91" pan="0"/>
          <note len="12" pos="672" key="30" vol="133" pan="0"/>
          <note len="12" pos="696" key="30" vol="139" pan="0"/>
          <note len="12" pos="720" key="30" vol="133" pan="0"/>
          <note len="12" pos="744" key="30" vol="139" pan="0"/>
          <note len="24" pos="768" key="31" vol="63" pan="0"/>
          <note len="24" pos="792" key="31" vol="78" pan="0"/>
          <note len="24" pos="816" key="31" vol="97" pan="0"/>
          <note len="24" pos="840" key="31" vol="108" pan="0"/>
          <note len="24" pos="864" key="31" vol="102" pan="0"/>
          <note len="24" pos="888" key="31" vol="91" pan="0"/>
          <note len="24" pos="912" key="31" vol="82" pan="0"/>
          <note len="24" pos="936" key="31" vol="95" pan="0"/>
          <note len="24" pos="960" key="31" vol="102" pan="0"/>
          <note len="24" pos="984" key="31" vol="114" pan="0"/>
          <note len="24" pos="1008" key="31" vol="104" pan="0"/>
          <note len="24" pos="1032" key="31" vol="91" pan="0"/>
          <note len="12" pos="1056" key="31" vol="133" pan="0"/>
          <note len="12" pos="1080" key="31" vol="139" pan="0"/>
          <note len="12" pos="1104" key="31" vol="133" pan="0"/>
          <note len="12" pos="1128" key="31" vol="139" pan="0"/>
          <note len="24" pos="1152" key="30" vol="63" pan="0"/>
          <note len="24" pos="1176" key="30" vol="78" pan="0"/>
          <note len="24" pos="1200" key="30" vol="97" pan="0"/>
          <note len="24" pos="1224" key="30" vol="108" pan="0"/>
          <note len="24" pos="1248" key="30" vol="102" pan="0"/>
          <note len="24" pos="1272" key="30" vol="91" pan="0"/>
          <note len="24" pos="1296" key="30" vol="82" pan="0"/>
          <note len="24" pos="1320" key="30" vol="95" pan="0"/>
          <note len="24" pos="1344" key="30" vol="102" pan="0"/>
          <note len="24" pos="1368" key="30" vol="114" pan="0"/>
          <note len="24" pos="1392" key="30" vol="104" pan="0"/>
          <note len="24" pos="1416" key="30" vol="91" pan="0"/>
          <note len="12" pos="1440" key="30" vol="133" pan="0"/>
          <note len="12" pos="1464" key="30" vol="139" pan="0"/>
          <note len="12" pos="1488" key="30" vol="133" pan="0"/>
          <note len="12" pos="1512" key="30" vol="139" pan="0"/>
        </pattern>
        <pattern type="1" pos="6144" muted="0" name="Bass (Overdrive Guitar)" steps="16">
          <note len="24" pos="0" key="31" vol="63" pan="0"/>
          <note len="24" pos="24" key="31" vol="78" pan="0"/>
          <note len="24" pos="48" key="31" vol="97" pan="0"/>
          <note len="24" pos="72" key="31" vol="108" pan="0"/>
          <note len="24" pos="96" key="31" vol="102" pan="0"/>
          <note len="24" pos="120" key="31" vol="91" pan="0"/>
          <note len="24" pos="144" key="31" vol="82" pan="0"/>
          <note len="24" pos="168" key="31" vol="95" pan="0"/>
          <note len="24" pos="192" key="31" vol="102" pan="0"/>
          <note len="24" pos="216" key="31" vol="114" pan="0"/>
          <note len="24" pos="240" key="31" vol="104" pan="0"/>
          <note len="24" pos="264" key="31" vol="91" pan="0"/>
          <note len="12" pos="288" key="31" vol="133" pan="0"/>
          <note len="12" pos="312" key="31" vol="139" pan="0"/>
          <note len="12" pos="336" key="31" vol="133" pan="0"/>
          <note len="12" pos="360" key="31" vol="139" pan="0"/>
          <note len="24" pos="384" key="30" vol="63" pan="0"/>
          <note len="24" pos="408" key="30" vol="78" pan="0"/>
          <note len="24" pos="432" key="30" vol="97" pan="0"/>
          <note len="24" pos="456" key="30" vol="108" pan="0"/>
          <note len="24" pos="480" key="30" vol="102" pan="0"/>
          <note len="24" pos="504" key="30" vol="91" pan="0"/>
          <note len="24" pos="528" key="30" vol="82" pan="0"/>
          <note len="24" pos="552" key="30" vol="95" pan="0"/>
          <note len="24" pos="576" key="30" vol="102" pan="0"/>
          <note len="24" pos="600" key="30" vol="114" pan="0"/>
          <note len="24" pos="624" key="30" vol="104" pan="0"/>
          <note len="24" pos="648" key="30" vol="91" pan="0"/>
          <note len="12" pos="672" key="30" vol="133" pan="0"/>
          <note len="12" pos="696" key="30" vol="139" pan="0"/>
          <note len="12" pos="720" key="30" vol="133" pan="0"/>
          <note len="12" pos="744" key="30" vol="139" pan="0"/>
          <note len="24" pos="768" key="31" vol="63" pan="0"/>
          <note len="24" pos="792" key="31" vol="78" pan="0"/>
          <note len="24" pos="816" key="31" vol="97" pan="0"/>
          <note len="24" pos="840" key="31" vol="108" pan="0"/>
          <note len="24" pos="864" key="31" vol="102" pan="0"/>
          <note len="24" pos="888" key="31" vol="91" pan="0"/>
          <note len="24" pos="912" key="31" vol="82" pan="0"/>
          <note len="24" pos="936" key="31" vol="95" pan="0"/>
          <note len="24" pos="960" key="31" vol="102" pan="0"/>
          <note len="24" pos="984" key="31" vol="114" pan="0"/>
          <note len="24" pos="1008" key="31" vol="104" pan="0"/>
          <note len="24" pos="1032" key="31" vol="91" pan="0"/>
          <note len="12" pos="1056" key="31" vol="133" pan="0"/>
          <note len="12" pos="1080" key="31" vol="139" pan="0"/>
          <note len="12" pos="1104" key="31" vol="133" pan="0"/>
          <note len="12" pos="1128" key="31" vol="139" pan="0"/>
          <note len="24" pos="1152" key="30" vol="63" pan="0"/>
          <note len="24" pos="1176" key="30" vol="78" pan="0"/>
          <note len="24" pos="1200" key="30" vol="97" pan="0"/>
          <note len="24" pos="1224" key="30" vol="108" pan="0"/>
          <note len="24" pos="1248" key="30" vol="102" pan="0"/>
          <note len="24" pos="1272" key="30" vol="91" pan="0"/>
          <note len="24" pos="1296" key="30" vol="82" pan="0"/>
          <note len="24" pos="1320" key="30" vol="95" pan="0"/>
          <note len="24" pos="1344" key="30" vol="102" pan="0"/>
          <note len="24" pos="1368" key="30" vol="114" pan="0"/>
          <note len="24" pos="1392" key="30" vol="104" pan="0"/>
          <note len="24" pos="1416" key="30" vol="91" pan="0"/>
          <note len="12" pos="1440" key="30" vol="133" pan="0"/>
          <note len="12" pos="1464" key="30" vol="139" pan="0"/>
          <note len="12" pos="1488" key="30" vol="133" pan="0"/>
          <note len="12" pos="1512" key="30" vol="139" pan="0"/>
        </pattern>
        <pattern type="1" pos="7680" muted="0" name="Bass (Overdrive Guitar)" steps="16">
          <note len="24" pos="0" key="31" vol="63" pan="0"/>
          <note len="24" pos="24" key="31" vol="78" pan="0"/>
          <note len="24" pos="48" key="31" vol="97" pan="0"/>
          <note len="24" pos="72" key="31" vol="108" pan="0"/>
          <note len="24" pos="96" key="31" vol="102" pan="0"/>
          <note len="24" pos="120" key="31" vol="91" pan="0"/>
          <note len="24" pos="144" key="31" vol="82" pan="0"/>
          <note len="24" pos="168" key="31" vol="95" pan="0"/>
          <note len="24" pos="192" key="31" vol="102" pan="0"/>
          <note len="24" pos="216" key="31" vol="114" pan="0"/>
          <note len="24" pos="240" key="31" vol="104" pan="0"/>
          <note len="24" pos="264" key="31" vol="91" pan="0"/>
          <note len="12" pos="288" key="31" vol="133" pan="0"/>
          <note len="12" pos="312" key="31" vol="139" pan="0"/>
          <note len="12" pos="336" key="31" vol="133" pan="0"/>
          <note len="12" pos="360" key="31" vol="139" pan="0"/>
          <note len="24" pos="384" key="30" vol="63" pan="0"/>
          <note len="24" pos="408" key="30" vol="78" pan="0"/>
          <note len="24" pos="432" key="30" vol="97" pan="0"/>
          <note len="24" pos="456" key="30" vol="108" pan="0"/>
          <note len="24" pos="480" key="30" vol="102" pan="0"/>
          <note len="24" pos="504" key="30" vol="91" pan="0"/>
          <note len="24" pos="528" key="30" vol="82" pan="0"/>
          <note len="24" pos="552" key="30" vol="95" pan="0"/>
          <note len="24" pos="576" key="30" vol="102" pan="0"/>
          <note len="24" pos="600" key="30" vol="114" pan="0"/>
          <note len="24" pos="624" key="30" vol="104" pan="0"/>
          <note len="24" pos="648" key="30" vol="91" pan="0"/>
          <note len="12" pos="672" key="30" vol="133" pan="0"/>
          <note len="12" pos="696" key="30" vol="139" pan="0"/>
          <note len="12" pos="720" key="30" vol="133" pan="0"/>
          <note len="12" pos="744" key="30" vol="139" pan="0"/>
          <note len="24" pos="768" key="31" vol="63" pan="0"/>
          <note len="24" pos="792" key="31" vol="78" pan="0"/>
          <note len="24" pos="816" key="31" vol="97" pan="0"/>
          <note len="24" pos="840" key="31" vol="108" pan="0"/>
          <note len="24" pos="864" key="31" vol="102" pan="0"/>
          <note len="24" pos="888" key="31" vol="91" pan="0"/>
          <note len="24" pos="912" key="31" vol="82" pan="0"/>
          <note len="24" pos="936" key="31" vol="95" pan="0"/>
          <note len="24" pos="960" key="31" vol="102" pan="0"/>
          <note len="24" pos="984" key="31" vol="114" pan="0"/>
          <note len="24" pos="1008" key="31" vol="104" pan="0"/>
          <note len="24" pos="1032" key="31" vol="91" pan="0"/>
          <note len="12" pos="1056" key="31" vol="133" pan="0"/>
          <note len="12" pos="1080" key="31" vol="139" pan="0"/>
          <note len="12" pos="1104" key="31" vol="133" pan="0"/>
          <note len="12" pos="1128" key="31" vol="139" pan="0"/>
          <note len="24" pos="1152" key="30" vol="63" pan="0"/>
          <note len="24" pos="1176" key="30" vol="78" pan="0"/>
          <note len="24" pos="1200" key="30" vol="97" pan="0"/>
          <note len="24" pos="1224" key="30" vol="108" pan="0"/>
          <note len="24" pos="1248" key="30" vol="102" pan="0"/>
          <note len="24" pos="1272" key="30" vol="91" pan="0"/>
          <note len="24" pos="1296" key="30" vol="82" pan="0"/>
          <note len="24" pos="1320" key="30" vol="95" pan="0"/>
          <note len="24" pos="1344" key="30" vol="102" pan="0"/>
          <note len="24" pos="1368" key="30" vol="114" pan="0"/>
          <note len="24" pos="1392" key="30" vol="104" pan="0"/>
          <note len="24" pos="1416" key="30" vol="91" pan="0"/>
          <note len="12" pos="1440" key="30" vol="133" pan="0"/>
          <note len="12" pos="1464" key="30" vol="139" pan="0"/>
          <note len="12" pos="1488" key="30" vol="133" pan="0"/>
          <note len="12" pos="1512" key="30" vol="139" pan="0"/>
        </pattern>
        <pattern type="1" pos="9216" muted="0" name="" steps="16">
          <note len="24" pos="0" key="31" vol="63" pan="0"/>
          <note len="24" pos="24" key="31" vol="78" pan="0"/>
          <note len="24" pos="48" key="31" vol="97" pan="0"/>
          <note len="24" pos="72" key="31" vol="108" pan="0"/>
          <note len="24" pos="96" key="31" vol="102" pan="0"/>
          <note len="24" pos="120" key="31" vol="91" pan="0"/>
          <note len="24" pos="144" key="31" vol="82" pan="0"/>
          <note len="24" pos="168" key="31" vol="95" pan="0"/>
          <note len="24" pos="192" key="31" vol="102" pan="0"/>
          <note len="24" pos="216" key="31" vol="114" pan="0"/>
          <note len="24" pos="240" key="31" vol="104" pan="0"/>
          <note len="24" pos="264" key="31" vol="91" pan="0"/>
          <note len="12" pos="288" key="31" vol="133" pan="0"/>
          <note len="12" pos="312" key="31" vol="139" pan="0"/>
          <note len="12" pos="336" key="31" vol="133" pan="0"/>
          <note len="12" pos="360" key="31" vol="139" pan="0"/>
          <note len="24" pos="384" key="30" vol="63" pan="0"/>
          <note len="24" pos="408" key="30" vol="78" pan="0"/>
          <note len="24" pos="432" key="30" vol="97" pan="0"/>
          <note len="24" pos="456" key="30" vol="108" pan="0"/>
          <note len="24" pos="480" key="30" vol="102" pan="0"/>
          <note len="24" pos="504" key="30" vol="91" pan="0"/>
          <note len="24" pos="528" key="30" vol="82" pan="0"/>
          <note len="24" pos="552" key="30" vol="95" pan="0"/>
          <note len="24" pos="576" key="30" vol="102" pan="0"/>
          <note len="24" pos="600" key="30" vol="114" pan="0"/>
          <note len="24" pos="624" key="30" vol="104" pan="0"/>
          <note len="24" pos="648" key="30" vol="91" pan="0"/>
          <note len="12" pos="672" key="30" vol="133" pan="0"/>
          <note len="12" pos="696" key="30" vol="139" pan="0"/>
          <note len="12" pos="720" key="30" vol="133" pan="0"/>
          <note len="12" pos="744" key="30" vol="139" pan="0"/>
          <note len="24" pos="768" key="31" vol="63" pan="0"/>
          <note len="24" pos="792" key="31" vol="78" pan="0"/>
          <note len="24" pos="816" key="31" vol="97" pan="0"/>
          <note len="24" pos="840" key="31" vol="108" pan="0"/>
          <note len="24" pos="864" key="31" vol="102" pan="0"/>
          <note len="24" pos="888" key="31" vol="91" pan="0"/>
          <note len="24" pos="912" key="31" vol="82" pan="0"/>
          <note len="24" pos="936" key="31" vol="95" pan="0"/>
          <note len="24" pos="960" key="31" vol="102" pan="0"/>
          <note len="24" pos="984" key="31" vol="114" pan="0"/>
          <note len="24" pos="1008" key="31" vol="104" pan="0"/>
          <note len="24" pos="1032" key="31" vol="91" pan="0"/>
          <note len="12" pos="1056" key="31" vol="133" pan="0"/>
          <note len="12" pos="1080" key="31" vol="139" pan="0"/>
          <note len="12" pos="1104" key="31" vol="133" pan="0"/>
          <note len="12" pos="1128" key="31" vol="139" pan="0"/>
          <note len="24" pos="1152" key="30" vol="63" pan="0"/>
          <note len="24" pos="1176" key="30" vol="78" pan="0"/>
          <note len="24" pos="1200" key="30" vol="97" pan="0"/>
          <note len="24" pos="1224" key="30" vol="108" pan="0"/>
          <note len="24" pos="1248" key="30" vol="102" pan="0"/>
          <note len="24" pos="1272" key="30" vol="91" pan="0"/>
          <note len="24" pos="1296" key="30" vol="82" pan="0"/>
          <note len="24" pos="1320" key="30" vol="95" pan="0"/>
          <note len="24" pos="1344" key="30" vol="102" pan="0"/>
          <note len="24" pos="1368" key="30" vol="114" pan="0"/>
          <note len="24" pos="1392" key="30" vol="104" pan="0"/>
          <note len="24" pos="1416" key="30" vol="91" pan="0"/>
          <note len="12" pos="1440" key="30" vol="133" pan="0"/>
          <note len="12" pos="1464" key="30" vol="139" pan="0"/>
          <note len="12" pos="1488" key="30" vol="133" pan="0"/>
          <note len="12" pos="1512" key="30" vol="139" pan="0"/>
        </pattern>
        <pattern type="1" pos="10752" muted="0" name="" steps="16">
          <note len="24" pos="0" key="31" vol="63" pan="0"/>
          <note len="24" pos="24" key="31" vol="78" pan="0"/>
          <note len="24" pos="48" key="31" vol="97" pan="0"/>
          <note len="24" pos="72" key="31" vol="108" pan="0"/>
          <note len="24" pos="96" key="31" vol="102" pan="0"/>
          <note len="24" pos="120" key="31" vol="91" pan="0"/>
          <note len="24" pos="144" key="31" vol="82" pan="0"/>
          <note len="24" pos="168" key="31" vol="95" pan="0"/>
          <note len="24" pos="192" key="31" vol="102" pan="0"/>
          <note len="24" pos="216" key="31" vol="114" pan="0"/>
          <note len="24" pos="240" key="31" vol="104" pan="0"/>
          <note len="24" pos="264" key="31" vol="91" pan="0"/>
          <note len="12" pos="288" key="31" vol="133" pan="0"/>
          <note len="12" pos="312" key="31" vol="139" pan="0"/>
          <note len="12" pos="336" key="31" vol="133" pan="0"/>
          <note len="12" pos="360" key="31" vol="139" pan="0"/>
          <note len="24" pos="384" key="30" vol="63" pan="0"/>
          <note len="24" pos="408" key="30" vol="78" pan="0"/>
          <note len="24" pos="432" key="30" vol="97" pan="0"/>
          <note len="24" pos="456" key="30" vol="108" pan="0"/>
          <note len="24" pos="480" key="30" vol="102" pan="0"/>
          <note len="24" pos="504" key="30" vol="91" pan="0"/>
          <note len="24" pos="528" key="30" vol="82" pan="0"/>
          <note len="24" pos="552" key="30" vol="95" pan="0"/>
          <note len="24" pos="576" key="30" vol="102" pan="0"/>
          <note len="24" pos="600" key="30" vol="114" pan="0"/>
          <note len="24" pos="624" key="30" vol="104" pan="0"/>
          <note len="24" pos="648" key="30" vol="91" pan="0"/>
          <note len="12" pos="672" key="30" vol="133" pan="0"/>
          <note len="12" pos="696" key="30" vol="139" pan="0"/>
          <note len="12" pos="720" key="30" vol="133" pan="0"/>
          <note len="12" pos="744" key="30" vol="139" pan="0"/>
          <note len="24" pos="768" key="31" vol="63" pan="0"/>
          <note len="24" pos="792" key="31" vol="78" pan="0"/>
          <note len="24" pos="816" key="31" vol="97" pan="0"/>
          <note len="24" pos="840" key="31" vol="108" pan="0"/>
          <note len="24" pos="864" key="31" vol="102" pan="0"/>
          <note len="24" pos="888" key="31" vol="91" pan="0"/>
          <note len="24" pos="912" key="31" vol="82" pan="0"/>
          <note len="24" pos="936" key="31" vol="95" pan="0"/>
          <note len="24" pos="960" key="31" vol="102" pan="0"/>
          <note len="24" pos="984" key="31" vol="114" pan="0"/>
          <note len="24" pos="1008" key="31" vol="104" pan="0"/>
          <note len="24" pos="1032" key="31" vol="91" pan="0"/>
          <note len="12" pos="1056" key="31" vol="133" pan="0"/>
          <note len="12" pos="1080" key="31" vol="139" pan="0"/>
          <note len="12" pos="1104" key="31" vol="133" pan="0"/>
          <note len="12" pos="1128" key="31" vol="139" pan="0"/>
          <note len="24" pos="1152" key="30" vol="63" pan="0"/>
          <note len="24" pos="1176" key="30" vol="78" pan="0"/>
          <note len="24" pos="1200" key="30" vol="97" pan="0"/>
          <note len="24" pos="1224" key="30" vol="108" pan="0"/>
          <note len="24" pos="1248" key="30" vol="102" pan="0"/>
          <note len="24" pos="1272" key="30" vol="91" pan="0"/>
          <note len="24" pos="1296" key="30" vol="82" pan="0"/>
          <note len="24" pos="1320" key="30" vol="95" pan="0"/>
          <note len="24" pos="1344" key="30" vol="102" pan="0"/>
          <note len="24" pos="1368" key="30" vol="114" pan="0"/>
          <note len="24" pos="1392" key="30" vol="104" pan="0"/>
          <note len="24" pos="1416" key="30" vol="91" pan="0"/>
          <note len="12" pos="1440" key="30" vol="133" pan="0"/>
          <note len="12" pos="1464" key="30" vol="139" pan="0"/>
          <note len="12" pos="1488" key="30" vol="133" pan="0"/>
          <note len="12" pos="1512" key="30" vol="139" pan="0"/>
        </pattern>
        <pattern type="1" pos="12288" muted="0" name="" steps="16">
          <note len="24" pos="0" key="31" vol="63" pan="0"/>
          <note len="24" pos="24" key="31" vol="78" pan="0"/>
          <note len="24" pos="48" key="31" vol="97" pan="0"/>
          <note len="24" pos="72" key="31" vol="108" pan="0"/>
          <note len="24" pos="96" key="31" vol="102" pan="0"/>
          <note len="24" pos="120" key="31" vol="91" pan="0"/>
          <note len="24" pos="144" key="31" vol="82" pan="0"/>
          <note len="24" pos="168" key="31" vol="95" pan="0"/>
          <note len="24" pos="192" key="31" vol="102" pan="0"/>
          <note len="24" pos="216" key="31" vol="114" pan="0"/>
          <note len="24" pos="240" key="31" vol="104" pan="0"/>
          <note len="24" pos="264" key="31" vol="91" pan="0"/>
          <note len="12" pos="288" key="31" vol="133" pan="0"/>
          <note len="12" pos="312" key="31" vol="139" pan="0"/>
          <note len="12" pos="336" key="31" vol="133" pan="0"/>
          <note len="12" pos="360" key="31" vol="139" pan="0"/>
          <note len="24" pos="384" key="30" vol="63" pan="0"/>
          <note len="24" pos="408" key="30" vol="78" pan="0"/>
          <note len="24" pos="432" key="30" vol="97" pan="0"/>
          <note len="24" pos="456" key="30" vol="108" pan="0"/>
          <note len="24" pos="480" key="30" vol="102" pan="0"/>
          <note len="24" pos="504" key="30" vol="91" pan="0"/>
          <note len="24" pos="528" key="30" vol="82" pan="0"/>
          <note len="24" pos="552" key="30" vol="95" pan="0"/>
          <note len="24" pos="576" key="30" vol="102" pan="0"/>
          <note len="24" pos="600" key="30" vol="114" pan="0"/>
          <note len="24" pos="624" key="30" vol="104" pan="0"/>
          <note len="24" pos="648" key="30" vol="91" pan="0"/>
          <note len="12" pos="672" key="30" vol="133" pan="0"/>
          <note len="12" pos="696" key="30" vol="139" pan="0"/>
          <note len="12" pos="720" key="30" vol="133" pan="0"/>
          <note len="12" pos="744" key="30" vol="139" pan="0"/>
          <note len="24" pos="768" key="31" vol="63" pan="0"/>
          <note len="24" pos="792" key="31" vol="78" pan="0"/>
          <note len="24" pos="816" key="31" vol="97" pan="0"/>
          <note len="24" pos="840" key="31" vol="108" pan="0"/>
          <note len="24" pos="864" key="31" vol="102" pan="0"/>
          <note len="24" pos="888" key="31" vol="91" pan="0"/>
          <note len="24" pos="912" key="31" vol="82" pan="0"/>
          <note len="24" pos="936" key="31" vol="95" pan="0"/>
          <note len="24" pos="960" key="31" vol="102" pan="0"/>
          <note len="24" pos="984" key="31" vol="114" pan="0"/>
          <note len="24" pos="1008" key="31" vol="104" pan="0"/>
          <note len="24" pos="1032" key="31" vol="91" pan="0"/>
          <note len="12" pos="1056" key="31" vol="133" pan="0"/>
          <note len="12" pos="1080" key="31" vol="139" pan="0"/>
          <note len="12" pos="1104" key="31" vol="133" pan="0"/>
          <note len="12" pos="1128" key="31" vol="139" pan="0"/>
          <note len="24" pos="1152" key="30" vol="63" pan="0"/>
          <note len="24" pos="1176" key="30" vol="78" pan="0"/>
          <note len="24" pos="1200" key="30" vol="97" pan="0"/>
          <note len="24" pos="1224" key="30" vol="108" pan="0"/>
          <note len="24" pos="1248" key="30" vol="102" pan="0"/>
          <note len="24" pos="1272" key="30" vol="91" pan="0"/>
          <note len="24" pos="1296" key="30" vol="82" pan="0"/>
          <note len="24" pos="1320" key="30" vol="95" pan="0"/>
          <note len="24" pos="1344" key="30" vol="102" pan="0"/>
          <note len="24" pos="1368" key="30" vol="114" pan="0"/>
          <note len="24" pos="1392" key="30" vol="104" pan="0"/>
          <note len="24" pos="1416" key="30" vol="91" pan="0"/>
          <note len="12" pos="1440" key="30" vol="133" pan="0"/>
          <note len="12" pos="1464" key="30" vol="139" pan="0"/>
          <note len="12" pos="1488" key="30" vol="133" pan="0"/>
          <note len="12" pos="1512" key="30" vol="139" pan="0"/>
        </pattern>
        <pattern type="1" pos="13824" muted="0" name="" steps="16">
          <note len="24" pos="0" key="31" vol="63" pan="0"/>
          <note len="24" pos="24" key="31" vol="78" pan="0"/>
          <note len="24" pos="48" key="31" vol="97" pan="0"/>
          <note len="24" pos="72" key="31" vol="108" pan="0"/>
          <note len="24" pos="96" key="31" vol="102" pan="0"/>
          <note len="24" pos="120" key="31" vol="91" pan="0"/>
          <note len="24" pos="144" key="31" vol="82" pan="0"/>
          <note len="24" pos="168" key="31" vol="95" pan="0"/>
          <note len="24" pos="192" key="31" vol="102" pan="0"/>
          <note len="24" pos="216" key="31" vol="114" pan="0"/>
          <note len="24" pos="240" key="31" vol="104" pan="0"/>
          <note len="24" pos="264" key="31" vol="91" pan="0"/>
          <note len="12" pos="288" key="31" vol="133" pan="0"/>
          <note len="12" pos="312" key="31" vol="139" pan="0"/>
          <note len="12" pos="336" key="31" vol="133" pan="0"/>
          <note len="12" pos="360" key="31" vol="139" pan="0"/>
          <note len="24" pos="384" key="30" vol="63" pan="0"/>
          <note len="24" pos="408" key="30" vol="78" pan="0"/>
          <note len="24" pos="432" key="30" vol="97" pan="0"/>
          <note len="24" pos="456" key="30" vol="108" pan="0"/>
          <note len="24" pos="480" key="30" vol="102" pan="0"/>
          <note len="24" pos="504" key="30" vol="91" pan="0"/>
          <note len="24" pos="528" key="30" vol="82" pan="0"/>
          <note len="24" pos="552" key="30" vol="95" pan="0"/>
          <note len="24" pos="576" key="30" vol="102" pan="0"/>
          <note len="24" pos="600" key="30" vol="114" pan="0"/>
          <note len="24" pos="624" key="30" vol="104" pan="0"/>
          <note len="24" pos="648" key="30" vol="91" pan="0"/>
          <note len="12" pos="672" key="30" vol="133" pan="0"/>
          <note len="12" pos="696" key="30" vol="139" pan="0"/>
          <note len="12" pos="720" key="30" vol="133" pan="0"/>
          <note len="12" pos="744" key="30" vol="139" pan="0"/>
          <note len="24" pos="768" key="31" vol="63" pan="0"/>
          <note len="24" pos="792" key="31" vol="78" pan="0"/>
          <note len="24" pos="816" key="31" vol="97" pan="0"/>
          <note len="24" pos="840" key="31" vol="108" pan="0"/>
          <note len="24" pos="864" key="31" vol="102" pan="0"/>
          <note len="24" pos="888" key="31" vol="91" pan="0"/>
          <note len="24" pos="912" key="31" vol="82" pan="0"/>
          <note len="24" pos="936" key="31" vol="95" pan="0"/>
          <note len="24" pos="960" key="31" vol="102" pan="0"/>
          <note len="24" pos="984" key="31" vol="114" pan="0"/>
          <note len="24" pos="1008" key="31" vol="104" pan="0"/>
          <note len="24" pos="1032" key="31" vol="91" pan="0"/>
          <note len="12" pos="1056" key="31" vol="133" pan="0"/>
          <note len="12" pos="1080" key="31" vol="139" pan="0"/>
          <note len="12" pos="1104" key="31" vol="133" pan="0"/>
          <note len="12" pos="1128" key="31" vol="139" pan="0"/>
          <note len="24" pos="1152" key="30" vol="63" pan="0"/>
          <note len="24" pos="1176" key="30" vol="78" pan="0"/>
          <note len="24" pos="1200" key="30" vol="97" pan="0"/>
          <note len="24" pos="1224" key="30" vol="108" pan="0"/>
          <note len="24" pos="1248" key="30" vol="102" pan="0"/>
          <note len="24" pos="1272" key="30" vol="91" pan="0"/>
          <note len="24" pos="1296" key="30" vol="82" pan="0"/>
          <note len="24" pos="1320" key="30" vol="95" pan="0"/>
          <note len="24" pos="1344" key="30" vol="102" pan="0"/>
          <note len="24" pos="1368" key="30" vol="114" pan="0"/>
          <note len="24" pos="1392" key="30" vol="104" pan="0"/>
          <note len="24" pos="1416" key="30" vol="91" pan="0"/>
          <note len="12" pos="1440" key="30" vol="133" pan="0"/>
          <note len="12" pos="1464" key="30" vol="139" pan="0"/>
          <note len="12" pos="1488" key="30" vol="133" pan="0"/>
          <note len="12" pos="1512" key="30" vol="139" pan="0"/>
        </pattern>
      </track>
      <track type="0" solo="0" muted="0" name="Fretless Bass">
        <instrumenttrack pitchrange="1" pitch="0" basenote="57" vol="122.8" pan="0" usemasterpitch="1" fxch="0">
          <instrument name="sf2player">
            <sf2player gain="1" src="soundfonts/GeneralUser GS v1.471.sf2" reverbRoomSize="0.2" chorusLevel="2" chorusSpeed="0.30000001" patch="35" reverbLevel="0.89999998" reverbDamping="0.2" chorusNum="3" bank="0" reverbWidth="0.5" reverbOn="0" chorusOn="1" chorusDepth="8"/>
          </instrument>
          <eldata ftype="0" fcut="14000" fres="0.5" fwet="0">
            <elvol x100="0" userwavefile="" att="0" lshp="0" lamt="0" ctlenvamt="0" amt="0" pdel="0" hold="0.5" lspd_denominator="4" lspd_numerator="4" lpdel="0" dec="0.5" sustain="0.5" latt="0" lspd_syncmode="0" lspd="0.1" rel="0.1"/>
            <elcut x100="0" userwavefile="" att="0" lshp="0" lamt="0" ctlenvamt="0" amt="0" pdel="0" hold="0.5" lspd_denominator="4" lspd_numerator="4" lpdel="0" dec="0.5" sustain="0.5" latt="0" lspd_syncmode="0" lspd="0.1" rel="0.1"/>
            <elres x100="0" userwavefile="" att="0" lshp="0" lamt="0" ctlenvamt="0" amt="0" pdel="0" hold="0.5" lspd_denominator="4" lspd_numerator="4" lpdel="0" dec="0.5" sustain="0.5" latt="0" lspd_syncmode="0" lspd="0.1" rel="0.1"/>
          </eldata>
          <chordcreator chord="0" chord-enabled="0" chordrange="1"/>
          <arpeggiator arptime_numerator="4" arpcycle="0" arpgate="100" arpdir="0" arpskip="0" arp="0" arptime_syncmode="0" arpmode="0" arptime="200" arprange="1" arpmiss="0" arptime_denominator="4" arp-enabled="0"/>
          <midiport fixedinputvelocity="-1" writable="0" fixedoutputvelocity="-1" fixedoutputnote="-1" outputcontroller="0" basevelocity="63" inputchannel="0" outputchannel="1" inputcontroller="0" readable="0" outputprogram="1"/>
          <fxchain enabled="0" numofeffects="0"/>
        </instrumenttrack>
        <pattern type="1" pos="0" muted="0" name="Fretless Bass" steps="16">
          <note len="24" pos="0" key="31" vol="63" pan="0"/>
          <note len="24" pos="24" key="31" vol="78" pan="0"/>
          <note len="24" pos="48" key="31" vol="97" pan="0"/>
          <note len="24" pos="72" key="31" vol="108" pan="0"/>
          <note len="24" pos="96" key="31" vol="102" pan="0"/>
          <note len="24" pos="120" key="31" vol="91" pan="0"/>
          <note len="24" pos="144" key="31" vol="82" pan="0"/>
          <note len="24" pos="168" key="31" vol="95" pan="0"/>
          <note len="24" pos="192" key="31" vol="102" pan="0"/>
          <note len="24" pos="216" key="31" vol="114" pan="0"/>
          <note len="24" pos="240" key="31" vol="104" pan="0"/>
          <note len="24" pos="264" key="31" vol="91" pan="0"/>
          <note len="24" pos="288" key="31" vol="94" pan="0"/>
          <note len="24" pos="312" key="31" vol="100" pan="0"/>
          <note len="24" pos="336" key="31" vol="94" pan="0"/>
          <note len="24" pos="360" key="31" vol="100" pan="0"/>
          <note len="24" pos="384" key="30" vol="63" pan="0"/>
          <note len="24" pos="408" key="30" vol="78" pan="0"/>
          <note len="24" pos="432" key="30" vol="97" pan="0"/>
          <note len="24" pos="456" key="30" vol="108" pan="0"/>
          <note len="24" pos="480" key="30" vol="102" pan="0"/>
          <note len="24" pos="504" key="30" vol="91" pan="0"/>
          <note len="24" pos="528" key="30" vol="82" pan="0"/>
          <note len="24" pos="552" key="30" vol="95" pan="0"/>
          <note len="24" pos="576" key="30" vol="102" pan="0"/>
          <note len="24" pos="600" key="30" vol="114" pan="0"/>
          <note len="24" pos="624" key="30" vol="104" pan="0"/>
          <note len="24" pos="648" key="30" vol="91" pan="0"/>
          <note len="24" pos="672" key="30" vol="83" pan="0"/>
          <note len="24" pos="696" key="30" vol="89" pan="0"/>
          <note len="24" pos="720" key="30" vol="83" pan="0"/>
          <note len="24" pos="744" key="30" vol="89" pan="0"/>
          <note len="24" pos="768" key="31" vol="63" pan="0"/>
          <note len="24" pos="792" key="31" vol="78" pan="0"/>
          <note len="24" pos="816" key="31" vol="97" pan="0"/>
          <note len="24" pos="840" key="31" vol="108" pan="0"/>
          <note len="24" pos="864" key="31" vol="102" pan="0"/>
          <note len="24" pos="888" key="31" vol="91" pan="0"/>
          <note len="24" pos="912" key="31" vol="82" pan="0"/>
          <note len="24" pos="936" key="31" vol="95" pan="0"/>
          <note len="24" pos="960" key="31" vol="102" pan="0"/>
          <note len="24" pos="984" key="31" vol="114" pan="0"/>
          <note len="24" pos="1008" key="31" vol="104" pan="0"/>
          <note len="24" pos="1032" key="31" vol="91" pan="0"/>
          <note len="24" pos="1056" key="31" vol="78" pan="0"/>
          <note len="24" pos="1080" key="31" vol="84" pan="0"/>
          <note len="24" pos="1104" key="31" vol="78" pan="0"/>
          <note len="24" pos="1128" key="31" vol="84" pan="0"/>
          <note len="24" pos="1152" key="30" vol="63" pan="0"/>
          <note len="24" pos="1176" key="30" vol="78" pan="0"/>
          <note len="24" pos="1200" key="30" vol="97" pan="0"/>
          <note len="24" pos="1224" key="30" vol="108" pan="0"/>
          <note len="24" pos="1248" key="30" vol="102" pan="0"/>
          <note len="24" pos="1272" key="30" vol="91" pan="0"/>
          <note len="24" pos="1296" key="30" vol="82" pan="0"/>
          <note len="24" pos="1320" key="30" vol="95" pan="0"/>
          <note len="24" pos="1344" key="30" vol="102" pan="0"/>
          <note len="24" pos="1368" key="30" vol="114" pan="0"/>
          <note len="24" pos="1392" key="30" vol="104" pan="0"/>
          <note len="24" pos="1416" key="30" vol="91" pan="0"/>
          <note len="24" pos="1440" key="30" vol="78" pan="0"/>
          <note len="24" pos="1464" key="30" vol="84" pan="0"/>
          <note len="24" pos="1488" key="30" vol="78" pan="0"/>
          <note len="24" pos="1512" key="30" vol="84" pan="0"/>
        </pattern>
        <pattern type="1" pos="1536" muted="0" name="Fretless Bass" steps="16">
          <note len="24" pos="0" key="31" vol="63" pan="0"/>
          <note len="24" pos="24" key="31" vol="78" pan="0"/>
          <note len="24" pos="48" key="31" vol="97" pan="0"/>
          <note len="24" pos="72" key="31" vol="108" pan="0"/>
          <note len="24" pos="96" key="31" vol="102" pan="0"/>
          <note len="24" pos="120" key="31" vol="91" pan="0"/>
          <note len="24" pos="144" key="31" vol="82" pan="0"/>
          <note len="24" pos="168" key="31" vol="95" pan="0"/>
          <note len="24" pos="192" key="31" vol="102" pan="0"/>
          <note len="24" pos="216" key="31" vol="114" pan="0"/>
          <note len="24" pos="240" key="31" vol="104" pan="0"/>
          <note len="24" pos="264" key="31" vol="91" pan="0"/>
          <note len="24" pos="288" key="31" vol="94" pan="0"/>
          <note len="24" pos="312" key="31" vol="100" pan="0"/>
          <note len="24" pos="336" key="31" vol="94" pan="0"/>
          <note len="24" pos="360" key="31" vol="100" pan="0"/>
          <note len="24" pos="384" key="30" vol="63" pan="0"/>
          <note len="24" pos="408" key="30" vol="78" pan="0"/>
          <note len="24" pos="432" key="30" vol="97" pan="0"/>
          <note len="24" pos="456" key="30" vol="108" pan="0"/>
          <note len="24" pos="480" key="30" vol="102" pan="0"/>
          <note len="24" pos="504" key="30" vol="91" pan="0"/>
          <note len="24" pos="528" key="30" vol="82" pan="0"/>
          <note len="24" pos="552" key="30" vol="95" pan="0"/>
          <note len="24" pos="576" key="30" vol="102" pan="0"/>
          <note len="24" pos="600" key="30" vol="114" pan="0"/>
          <note len="24" pos="624" key="30" vol="104" pan="0"/>
          <note len="24" pos="648" key="30" vol="91" pan="0"/>
          <note len="24" pos="672" key="30" vol="83" pan="0"/>
          <note len="24" pos="696" key="30" vol="89" pan="0"/>
          <note len="24" pos="720" key="30" vol="83" pan="0"/>
          <note len="24" pos="744" key="30" vol="89" pan="0"/>
          <note len="24" pos="768" key="31" vol="63" pan="0"/>
          <note len="24" pos="792" key="31" vol="78" pan="0"/>
          <note len="24" pos="816" key="31" vol="97" pan="0"/>
          <note len="24" pos="840" key="31" vol="108" pan="0"/>
          <note len="24" pos="864" key="31" vol="102" pan="0"/>
          <note len="24" pos="888" key="31" vol="91" pan="0"/>
          <note len="24" pos="912" key="31" vol="82" pan="0"/>
          <note len="24" pos="936" key="31" vol="95" pan="0"/>
          <note len="24" pos="960" key="31" vol="102" pan="0"/>
          <note len="24" pos="984" key="31" vol="114" pan="0"/>
          <note len="24" pos="1008" key="31" vol="104" pan="0"/>
          <note len="24" pos="1032" key="31" vol="91" pan="0"/>
          <note len="24" pos="1056" key="31" vol="78" pan="0"/>
          <note len="24" pos="1080" key="31" vol="84" pan="0"/>
          <note len="24" pos="1104" key="31" vol="78" pan="0"/>
          <note len="24" pos="1128" key="31" vol="84" pan="0"/>
          <note len="24" pos="1152" key="30" vol="63" pan="0"/>
          <note len="24" pos="1176" key="30" vol="78" pan="0"/>
          <note len="24" pos="1200" key="30" vol="97" pan="0"/>
          <note len="24" pos="1224" key="30" vol="108" pan="0"/>
          <note len="24" pos="1248" key="30" vol="102" pan="0"/>
          <note len="24" pos="1272" key="30" vol="91" pan="0"/>
          <note len="24" pos="1296" key="30" vol="82" pan="0"/>
          <note len="24" pos="1320" key="30" vol="95" pan="0"/>
          <note len="24" pos="1344" key="30" vol="102" pan="0"/>
          <note len="24" pos="1368" key="30" vol="114" pan="0"/>
          <note len="24" pos="1392" key="30" vol="104" pan="0"/>
          <note len="24" pos="1416" key="30" vol="91" pan="0"/>
          <note len="12" pos="1440" key="30" vol="116" pan="0"/>
          <note len="12" pos="1464" key="30" vol="122" pan="0"/>
          <note len="12" pos="1488" key="30" vol="116" pan="0"/>
          <note len="12" pos="1512" key="30" vol="122" pan="0"/>
        </pattern>
        <pattern type="1" pos="3072" muted="0" name="Fretless Bass" steps="16">
          <note len="24" pos="0" key="31" vol="63" pan="0"/>
          <note len="24" pos="24" key="31" vol="78" pan="0"/>
          <note len="24" pos="48" key="31" vol="97" pan="0"/>
          <note len="24" pos="72" key="31" vol="108" pan="0"/>
          <note len="24" pos="96" key="31" vol="102" pan="0"/>
          <note len="24" pos="120" key="31" vol="91" pan="0"/>
          <note len="24" pos="144" key="31" vol="82" pan="0"/>
          <note len="24" pos="168" key="31" vol="95" pan="0"/>
          <note len="24" pos="192" key="31" vol="102" pan="0"/>
          <note len="24" pos="216" key="31" vol="114" pan="0"/>
          <note len="24" pos="240" key="31" vol="104" pan="0"/>
          <note len="24" pos="264" key="31" vol="91" pan="0"/>
          <note len="24" pos="288" key="31" vol="94" pan="0"/>
          <note len="24" pos="312" key="31" vol="100" pan="0"/>
          <note len="24" pos="336" key="31" vol="94" pan="0"/>
          <note len="24" pos="360" key="31" vol="100" pan="0"/>
          <note len="24" pos="384" key="30" vol="63" pan="0"/>
          <note len="24" pos="408" key="30" vol="78" pan="0"/>
          <note len="24" pos="432" key="30" vol="97" pan="0"/>
          <note len="24" pos="456" key="30" vol="108" pan="0"/>
          <note len="24" pos="480" key="30" vol="102" pan="0"/>
          <note len="24" pos="504" key="30" vol="91" pan="0"/>
          <note len="24" pos="528" key="30" vol="82" pan="0"/>
          <note len="24" pos="552" key="30" vol="95" pan="0"/>
          <note len="24" pos="576" key="30" vol="102" pan="0"/>
          <note len="24" pos="600" key="30" vol="114" pan="0"/>
          <note len="24" pos="624" key="30" vol="104" pan="0"/>
          <note len="24" pos="648" key="30" vol="91" pan="0"/>
          <note len="24" pos="672" key="30" vol="83" pan="0"/>
          <note len="24" pos="696" key="30" vol="89" pan="0"/>
          <note len="24" pos="720" key="30" vol="83" pan="0"/>
          <note len="24" pos="744" key="30" vol="89" pan="0"/>
          <note len="24" pos="768" key="31" vol="63" pan="0"/>
          <note len="24" pos="792" key="31" vol="78" pan="0"/>
          <note len="24" pos="816" key="31" vol="97" pan="0"/>
          <note len="24" pos="840" key="31" vol="108" pan="0"/>
          <note len="24" pos="864" key="31" vol="102" pan="0"/>
          <note len="24" pos="888" key="31" vol="91" pan="0"/>
          <note len="24" pos="912" key="31" vol="82" pan="0"/>
          <note len="24" pos="936" key="31" vol="95" pan="0"/>
          <note len="24" pos="960" key="31" vol="102" pan="0"/>
          <note len="24" pos="984" key="31" vol="114" pan="0"/>
          <note len="24" pos="1008" key="31" vol="104" pan="0"/>
          <note len="24" pos="1032" key="31" vol="91" pan="0"/>
          <note len="24" pos="1056" key="31" vol="78" pan="0"/>
          <note len="24" pos="1080" key="31" vol="84" pan="0"/>
          <note len="24" pos="1104" key="31" vol="78" pan="0"/>
          <note len="24" pos="1128" key="31" vol="84" pan="0"/>
          <note len="24" pos="1152" key="30" vol="63" pan="0"/>
          <note len="24" pos="1176" key="30" vol="78" pan="0"/>
          <note len="24" pos="1200" key="30" vol="97" pan="0"/>
          <note len="24" pos="1224" key="30" vol="108" pan="0"/>
          <note len="24" pos="1248" key="30" vol="102" pan="0"/>
          <note len="24" pos="1272" key="30" vol="91" pan="0"/>
          <note len="24" pos="1296" key="30" vol="82" pan="0"/>
          <note len="24" pos="1320" key="30" vol="95" pan="0"/>
          <note len="24" pos="1344" key="30" vol="102" pan="0"/>
          <note len="24" pos="1368" key="30" vol="114" pan="0"/>
          <note len="24" pos="1392" key="30" vol="104" pan="0"/>
          <note len="24" pos="1416" key="30" vol="91" pan="0"/>
          <note len="12" pos="1440" key="30" vol="116" pan="0"/>
          <note len="12" pos="1464" key="30" vol="122" pan="0"/>
          <note len="12" pos="1488" key="30" vol="116" pan="0"/>
          <note len="12" pos="1512" key="30" vol="122" pan="0"/>
        </pattern>
        <pattern type="1" pos="4608" muted="0" name="Fretless Bass" steps="16">
          <note len="24" pos="0" key="31" vol="63" pan="0"/>
          <note len="24" pos="24" key="31" vol="78" pan="0"/>
          <note len="24" pos="48" key="31" vol="97" pan="0"/>
          <note len="24" pos="72" key="31" vol="108" pan="0"/>
          <note len="24" pos="96" key="31" vol="102" pan="0"/>
          <note len="24" pos="120" key="31" vol="91" pan="0"/>
          <note len="24" pos="144" key="31" vol="82" pan="0"/>
          <note len="24" pos="168" key="31" vol="95" pan="0"/>
          <note len="24" pos="192" key="31" vol="102" pan="0"/>
          <note len="24" pos="216" key="31" vol="114" pan="0"/>
          <note len="24" pos="240" key="31" vol="104" pan="0"/>
          <note len="24" pos="264" key="31" vol="91" pan="0"/>
          <note len="24" pos="288" key="31" vol="94" pan="0"/>
          <note len="24" pos="312" key="31" vol="100" pan="0"/>
          <note len="24" pos="336" key="31" vol="94" pan="0"/>
          <note len="24" pos="360" key="31" vol="100" pan="0"/>
          <note len="24" pos="384" key="30" vol="63" pan="0"/>
          <note len="24" pos="408" key="30" vol="78" pan="0"/>
          <note len="24" pos="432" key="30" vol="97" pan="0"/>
          <note len="24" pos="456" key="30" vol="108" pan="0"/>
          <note len="24" pos="480" key="30" vol="102" pan="0"/>
          <note len="24" pos="504" key="30" vol="91" pan="0"/>
          <note len="24" pos="528" key="30" vol="82" pan="0"/>
          <note len="24" pos="552" key="30" vol="95" pan="0"/>
          <note len="24" pos="576" key="30" vol="102" pan="0"/>
          <note len="24" pos="600" key="30" vol="114" pan="0"/>
          <note len="24" pos="624" key="30" vol="104" pan="0"/>
          <note len="24" pos="648" key="30" vol="91" pan="0"/>
          <note len="24" pos="672" key="30" vol="83" pan="0"/>
          <note len="24" pos="696" key="30" vol="89" pan="0"/>
          <note len="24" pos="720" key="30" vol="83" pan="0"/>
          <note len="24" pos="744" key="30" vol="89" pan="0"/>
          <note len="24" pos="768" key="31" vol="63" pan="0"/>
          <note len="24" pos="792" key="31" vol="78" pan="0"/>
          <note len="24" pos="816" key="31" vol="97" pan="0"/>
          <note len="24" pos="840" key="31" vol="108" pan="0"/>
          <note len="24" pos="864" key="31" vol="102" pan="0"/>
          <note len="24" pos="888" key="31" vol="91" pan="0"/>
          <note len="24" pos="912" key="31" vol="82" pan="0"/>
          <note len="24" pos="936" key="31" vol="95" pan="0"/>
          <note len="24" pos="960" key="31" vol="102" pan="0"/>
          <note len="24" pos="984" key="31" vol="114" pan="0"/>
          <note len="24" pos="1008" key="31" vol="104" pan="0"/>
          <note len="24" pos="1032" key="31" vol="91" pan="0"/>
          <note len="24" pos="1056" key="31" vol="78" pan="0"/>
          <note len="24" pos="1080" key="31" vol="84" pan="0"/>
          <note len="24" pos="1104" key="31" vol="78" pan="0"/>
          <note len="24" pos="1128" key="31" vol="84" pan="0"/>
          <note len="24" pos="1152" key="30" vol="63" pan="0"/>
          <note len="24" pos="1176" key="30" vol="78" pan="0"/>
          <note len="24" pos="1200" key="30" vol="97" pan="0"/>
          <note len="24" pos="1224" key="30" vol="108" pan="0"/>
          <note len="24" pos="1248" key="30" vol="102" pan="0"/>
          <note len="24" pos="1272" key="30" vol="91" pan="0"/>
          <note len="24" pos="1296" key="30" vol="82" pan="0"/>
          <note len="24" pos="1320" key="30" vol="95" pan="0"/>
          <note len="24" pos="1344" key="30" vol="102" pan="0"/>
          <note len="24" pos="1368" key="30" vol="114" pan="0"/>
          <note len="24" pos="1392" key="30" vol="104" pan="0"/>
          <note len="24" pos="1416" key="30" vol="91" pan="0"/>
          <note len="12" pos="1440" key="30" vol="116" pan="0"/>
          <note len="12" pos="1464" key="30" vol="122" pan="0"/>
          <note len="12" pos="1488" key="30" vol="116" pan="0"/>
          <note len="12" pos="1512" key="30" vol="122" pan="0"/>
        </pattern>
        <pattern type="1" pos="6144" muted="0" name="Fretless Bass" steps="16">
          <note len="24" pos="0" key="31" vol="63" pan="0"/>
          <note len="24" pos="24" key="31" vol="78" pan="0"/>
          <note len="24" pos="48" key="31" vol="97" pan="0"/>
          <note len="24" pos="72" key="31" vol="108" pan="0"/>
          <note len="24" pos="96" key="31" vol="102" pan="0"/>
          <note len="24" pos="120" key="31" vol="91" pan="0"/>
          <note len="24" pos="144" key="31" vol="82" pan="0"/>
          <note len="24" pos="168" key="31" vol="95" pan="0"/>
          <note len="24" pos="192" key="31" vol="102" pan="0"/>
          <note len="24" pos="216" key="31" vol="114" pan="0"/>
          <note len="24" pos="240" key="31" vol="104" pan="0"/>
          <note len="24" pos="264" key="31" vol="91" pan="0"/>
          <note len="24" pos="288" key="31" vol="94" pan="0"/>
          <note len="24" pos="312" key="31" vol="100" pan="0"/>
          <note len="24" pos="336" key="31" vol="94" pan="0"/>
          <note len="24" pos="360" key="31" vol="100" pan="0"/>
          <note len="24" pos="384" key="30" vol="63" pan="0"/>
          <note len="24" pos="408" key="30" vol="78" pan="0"/>
          <note len="24" pos="432" key="30" vol="97" pan="0"/>
          <note len="24" pos="456" key="30" vol="108" pan="0"/>
          <note len="24" pos="480" key="30" vol="102" pan="0"/>
          <note len="24" pos="504" key="30" vol="91" pan="0"/>
          <note len="24" pos="528" key="30" vol="82" pan="0"/>
          <note len="24" pos="552" key="30" vol="95" pan="0"/>
          <note len="24" pos="576" key="30" vol="102" pan="0"/>
          <note len="24" pos="600" key="30" vol="114" pan="0"/>
          <note len="24" pos="624" key="30" vol="104" pan="0"/>
          <note len="24" pos="648" key="30" vol="91" pan="0"/>
          <note len="24" pos="672" key="30" vol="83" pan="0"/>
          <note len="24" pos="696" key="30" vol="89" pan="0"/>
          <note len="24" pos="720" key="30" vol="83" pan="0"/>
          <note len="24" pos="744" key="30" vol="89" pan="0"/>
          <note len="24" pos="768" key="31" vol="63" pan="0"/>
          <note len="24" pos="792" key="31" vol="78" pan="0"/>
          <note len="24" pos="816" key="31" vol="97" pan="0"/>
          <note len="24" pos="840" key="31" vol="108" pan="0"/>
          <note len="24" pos="864" key="31" vol="102" pan="0"/>
          <note len="24" pos="888" key="31" vol="91" pan="0"/>
          <note len="24" pos="912" key="31" vol="82" pan="0"/>
          <note len="24" pos="936" key="31" vol="95" pan="0"/>
          <note len="24" pos="960" key="31" vol="102" pan="0"/>
          <note len="24" pos="984" key="31" vol="114" pan="0"/>
          <note len="24" pos="1008" key="31" vol="104" pan="0"/>
          <note len="24" pos="1032" key="31" vol="91" pan="0"/>
          <note len="24" pos="1056" key="31" vol="78" pan="0"/>
          <note len="24" pos="1080" key="31" vol="84" pan="0"/>
          <note len="24" pos="1104" key="31" vol="78" pan="0"/>
          <note len="24" pos="1128" key="31" vol="84" pan="0"/>
          <note len="24" pos="1152" key="30" vol="63" pan="0"/>
          <note len="24" pos="1176" key="30" vol="78" pan="0"/>
          <note len="24" pos="1200" key="30" vol="97" pan="0"/>
          <note len="24" pos="1224" key="30" vol="108" pan="0"/>
          <note len="24" pos="1248" key="30" vol="102" pan="0"/>
          <note len="24" pos="1272" key="30" vol="91" pan="0"/>
          <note len="24" pos="1296" key="30" vol="82" pan="0"/>
          <note len="24" pos="1320" key="30" vol="95" pan="0"/>
          <note len="24" pos="1344" key="30" vol="102" pan="0"/>
          <note len="24" pos="1368" key="30" vol="114" pan="0"/>
          <note len="24" pos="1392" key="30" vol="104" pan="0"/>
          <note len="24" pos="1416" key="30" vol="91" pan="0"/>
          <note len="12" pos="1440" key="30" vol="116" pan="0"/>
          <note len="12" pos="1464" key="30" vol="122" pan="0"/>
          <note len="12" pos="1488" key="30" vol="116" pan="0"/>
          <note len="12" pos="1512" key="30" vol="122" pan="0"/>
        </pattern>
        <pattern type="1" pos="7680" muted="0" name="Fretless Bass" steps="16">
          <note len="24" pos="0" key="31" vol="63" pan="0"/>
          <note len="24" pos="24" key="31" vol="78" pan="0"/>
          <note len="24" pos="48" key="31" vol="97" pan="0"/>
          <note len="24" pos="72" key="31" vol="108" pan="0"/>
          <note len="24" pos="96" key="31" vol="102" pan="0"/>
          <note len="24" pos="120" key="31" vol="91" pan="0"/>
          <note len="24" pos="144" key="31" vol="82" pan="0"/>
          <note len="24" pos="168" key="31" vol="95" pan="0"/>
          <note len="24" pos="192" key="31" vol="102" pan="0"/>
          <note len="24" pos="216" key="31" vol="114" pan="0"/>
          <note len="24" pos="240" key="31" vol="104" pan="0"/>
          <note len="24" pos="264" key="31" vol="91" pan="0"/>
          <note len="24" pos="288" key="31" vol="94" pan="0"/>
          <note len="24" pos="312" key="31" vol="100" pan="0"/>
          <note len="24" pos="336" key="31" vol="94" pan="0"/>
          <note len="24" pos="360" key="31" vol="100" pan="0"/>
          <note len="24" pos="384" key="30" vol="63" pan="0"/>
          <note len="24" pos="408" key="30" vol="78" pan="0"/>
          <note len="24" pos="432" key="30" vol="97" pan="0"/>
          <note len="24" pos="456" key="30" vol="108" pan="0"/>
          <note len="24" pos="480" key="30" vol="102" pan="0"/>
          <note len="24" pos="504" key="30" vol="91" pan="0"/>
          <note len="24" pos="528" key="30" vol="82" pan="0"/>
          <note len="24" pos="552" key="30" vol="95" pan="0"/>
          <note len="24" pos="576" key="30" vol="102" pan="0"/>
          <note len="24" pos="600" key="30" vol="114" pan="0"/>
          <note len="24" pos="624" key="30" vol="104" pan="0"/>
          <note len="24" pos="648" key="30" vol="91" pan="0"/>
          <note len="24" pos="672" key="30" vol="83" pan="0"/>
          <note len="24" pos="696" key="30" vol="89" pan="0"/>
          <note len="24" pos="720" key="30" vol="83" pan="0"/>
          <note len="24" pos="744" key="30" vol="89" pan="0"/>
          <note len="24" pos="768" key="31" vol="63" pan="0"/>
          <note len="24" pos="792" key="31" vol="78" pan="0"/>
          <note len="24" pos="816" key="31" vol="97" pan="0"/>
          <note len="24" pos="840" key="31" vol="108" pan="0"/>
          <note len="24" pos="864" key="31" vol="102" pan="0"/>
          <note len="24" pos="888" key="31" vol="91" pan="0"/>
          <note len="24" pos="912" key="31" vol="82" pan="0"/>
          <note len="24" pos="936" key="31" vol="95" pan="0"/>
          <note len="24" pos="960" key="31" vol="102" pan="0"/>
          <note len="24" pos="984" key="31" vol="114" pan="0"/>
          <note len="24" pos="1008" key="31" vol="104" pan="0"/>
          <note len="24" pos="1032" key="31" vol="91" pan="0"/>
          <note len="24" pos="1056" key="31" vol="78" pan="0"/>
          <note len="24" pos="1080" key="31" vol="84" pan="0"/>
          <note len="24" pos="1104" key="31" vol="78" pan="0"/>
          <note len="24" pos="1128" key="31" vol="84" pan="0"/>
          <note len="24" pos="1152" key="30" vol="63" pan="0"/>
          <note len="24" pos="1176" key="30" vol="78" pan="0"/>
          <note len="24" pos="1200" key="30" vol="97" pan="0"/>
          <note len="24" pos="1224" key="30" vol="108" pan="0"/>
          <note len="24" pos="1248" key="30" vol="102" pan="0"/>
          <note len="24" pos="1272" key="30" vol="91" pan="0"/>
          <note len="24" pos="1296" key="30" vol="82" pan="0"/>
          <note len="24" pos="1320" key="30" vol="95" pan="0"/>
          <note len="24" pos="1344" key="30" vol="102" pan="0"/>
          <note len="24" pos="1368" key="30" vol="114" pan="0"/>
          <note len="24" pos="1392" key="30" vol="104" pan="0"/>
          <note len="24" pos="1416" key="30" vol="91" pan="0"/>
          <note len="12" pos="1440" key="30" vol="116" pan="0"/>
          <note len="12" pos="1464" key="30" vol="122" pan="0"/>
          <note len="12" pos="1488" key="30" vol="116" pan="0"/>
          <note len="12" pos="1512" key="30" vol="122" pan="0"/>
        </pattern>
        <pattern type="1" pos="9216" muted="0" name="Fretless Bass" steps="16">
          <note len="24" pos="0" key="31" vol="63" pan="0"/>
          <note len="24" pos="24" key="31" vol="78" pan="0"/>
          <note len="24" pos="48" key="31" vol="97" pan="0"/>
          <note len="24" pos="72" key="31" vol="108" pan="0"/>
          <note len="24" pos="96" key="31" vol="102" pan="0"/>
          <note len="24" pos="120" key="31" vol="91" pan="0"/>
          <note len="24" pos="144" key="31" vol="82" pan="0"/>
          <note len="24" pos="168" key="31" vol="95" pan="0"/>
          <note len="24" pos="192" key="31" vol="102" pan="0"/>
          <note len="24" pos="216" key="31" vol="114" pan="0"/>
          <note len="24" pos="240" key="31" vol="104" pan="0"/>
          <note len="24" pos="264" key="31" vol="91" pan="0"/>
          <note len="24" pos="288" key="31" vol="94" pan="0"/>
          <note len="24" pos="312" key="31" vol="100" pan="0"/>
          <note len="24" pos="336" key="31" vol="94" pan="0"/>
          <note len="24" pos="360" key="31" vol="100" pan="0"/>
          <note len="24" pos="384" key="30" vol="63" pan="0"/>
          <note len="24" pos="408" key="30" vol="78" pan="0"/>
          <note len="24" pos="432" key="30" vol="97" pan="0"/>
          <note len="24" pos="456" key="30" vol="108" pan="0"/>
          <note len="24" pos="480" key="30" vol="102" pan="0"/>
          <note len="24" pos="504" key="30" vol="91" pan="0"/>
          <note len="24" pos="528" key="30" vol="82" pan="0"/>
          <note len="24" pos="552" key="30" vol="95" pan="0"/>
          <note len="24" pos="576" key="30" vol="102" pan="0"/>
          <note len="24" pos="600" key="30" vol="114" pan="0"/>
          <note len="24" pos="624" key="30" vol="104" pan="0"/>
          <note len="24" pos="648" key="30" vol="91" pan="0"/>
          <note len="24" pos="672" key="30" vol="83" pan="0"/>
          <note len="24" pos="696" key="30" vol="89" pan="0"/>
          <note len="24" pos="720" key="30" vol="83" pan="0"/>
          <note len="24" pos="744" key="30" vol="89" pan="0"/>
          <note len="24" pos="768" key="31" vol="63" pan="0"/>
          <note len="24" pos="792" key="31" vol="78" pan="0"/>
          <note len="24" pos="816" key="31" vol="97" pan="0"/>
          <note len="24" pos="840" key="31" vol="108" pan="0"/>
          <note len="24" pos="864" key="31" vol="102" pan="0"/>
          <note len="24" pos="888" key="31" vol="91" pan="0"/>
          <note len="24" pos="912" key="31" vol="82" pan="0"/>
          <note len="24" pos="936" key="31" vol="95" pan="0"/>
          <note len="24" pos="960" key="31" vol="102" pan="0"/>
          <note len="24" pos="984" key="31" vol="114" pan="0"/>
          <note len="24" pos="1008" key="31" vol="104" pan="0"/>
          <note len="24" pos="1032" key="31" vol="91" pan="0"/>
          <note len="24" pos="1056" key="31" vol="78" pan="0"/>
          <note len="24" pos="1080" key="31" vol="84" pan="0"/>
          <note len="24" pos="1104" key="31" vol="78" pan="0"/>
          <note len="24" pos="1128" key="31" vol="84" pan="0"/>
          <note len="24" pos="1152" key="30" vol="63" pan="0"/>
          <note len="24" pos="1176" key="30" vol="78" pan="0"/>
          <note len="24" pos="1200" key="30" vol="97" pan="0"/>
          <note len="24" pos="1224" key="30" vol="108" pan="0"/>
          <note len="24" pos="1248" key="30" vol="102" pan="0"/>
          <note len="24" pos="1272" key="30" vol="91" pan="0"/>
          <note len="24" pos="1296" key="30" vol="82" pan="0"/>
          <note len="24" pos="1320" key="30" vol="95" pan="0"/>
          <note len="24" pos="1344" key="30" vol="102" pan="0"/>
          <note len="24" pos="1368" key="30" vol="114" pan="0"/>
          <note len="24" pos="1392" key="30" vol="104" pan="0"/>
          <note len="24" pos="1416" key="30" vol="91" pan="0"/>
          <note len="12" pos="1440" key="30" vol="116" pan="0"/>
          <note len="12" pos="1464" key="30" vol="122" pan="0"/>
          <note len="12" pos="1488" key="30" vol="116" pan="0"/>
          <note len="12" pos="1512" key="30" vol="122" pan="0"/>
        </pattern>
        <pattern type="1" pos="10752" muted="0" name="Fretless Bass" steps="16">
          <note len="24" pos="0" key="31" vol="63" pan="0"/>
          <note len="24" pos="24" key="31" vol="78" pan="0"/>
          <note len="24" pos="48" key="31" vol="97" pan="0"/>
          <note len="24" pos="72" key="31" vol="108" pan="0"/>
          <note len="24" pos="96" key="31" vol="102" pan="0"/>
          <note len="24" pos="120" key="31" vol="91" pan="0"/>
          <note len="24" pos="144" key="31" vol="82" pan="0"/>
          <note len="24" pos="168" key="31" vol="95" pan="0"/>
          <note len="24" pos="192" key="31" vol="102" pan="0"/>
          <note len="24" pos="216" key="31" vol="114" pan="0"/>
          <note len="24" pos="240" key="31" vol="104" pan="0"/>
          <note len="24" pos="264" key="31" vol="91" pan="0"/>
          <note len="24" pos="288" key="31" vol="94" pan="0"/>
          <note len="24" pos="312" key="31" vol="100" pan="0"/>
          <note len="24" pos="336" key="31" vol="94" pan="0"/>
          <note len="24" pos="360" key="31" vol="100" pan="0"/>
          <note len="24" pos="384" key="30" vol="63" pan="0"/>
          <note len="24" pos="408" key="30" vol="78" pan="0"/>
          <note len="24" pos="432" key="30" vol="97" pan="0"/>
          <note len="24" pos="456" key="30" vol="108" pan="0"/>
          <note len="24" pos="480" key="30" vol="102" pan="0"/>
          <note len="24" pos="504" key="30" vol="91" pan="0"/>
          <note len="24" pos="528" key="30" vol="82" pan="0"/>
          <note len="24" pos="552" key="30" vol="95" pan="0"/>
          <note len="24" pos="576" key="30" vol="102" pan="0"/>
          <note len="24" pos="600" key="30" vol="114" pan="0"/>
          <note len="24" pos="624" key="30" vol="104" pan="0"/>
          <note len="24" pos="648" key="30" vol="91" pan="0"/>
          <note len="24" pos="672" key="30" vol="83" pan="0"/>
          <note len="24" pos="696" key="30" vol="89" pan="0"/>
          <note len="24" pos="720" key="30" vol="83" pan="0"/>
          <note len="24" pos="744" key="30" vol="89" pan="0"/>
          <note len="24" pos="768" key="31" vol="63" pan="0"/>
          <note len="24" pos="792" key="31" vol="78" pan="0"/>
          <note len="24" pos="816" key="31" vol="97" pan="0"/>
          <note len="24" pos="840" key="31" vol="108" pan="0"/>
          <note len="24" pos="864" key="31" vol="102" pan="0"/>
          <note len="24" pos="888" key="31" vol="91" pan="0"/>
          <note len="24" pos="912" key="31" vol="82" pan="0"/>
          <note len="24" pos="936" key="31" vol="95" pan="0"/>
          <note len="24" pos="960" key="31" vol="102" pan="0"/>
          <note len="24" pos="984" key="31" vol="114" pan="0"/>
          <note len="24" pos="1008" key="31" vol="104" pan="0"/>
          <note len="24" pos="1032" key="31" vol="91" pan="0"/>
          <note len="24" pos="1056" key="31" vol="78" pan="0"/>
          <note len="24" pos="1080" key="31" vol="84" pan="0"/>
          <note len="24" pos="1104" key="31" vol="78" pan="0"/>
          <note len="24" pos="1128" key="31" vol="84" pan="0"/>
          <note len="24" pos="1152" key="30" vol="63" pan="0"/>
          <note len="24" pos="1176" key="30" vol="78" pan="0"/>
          <note len="24" pos="1200" key="30" vol="97" pan="0"/>
          <note len="24" pos="1224" key="30" vol="108" pan="0"/>
          <note len="24" pos="1248" key="30" vol="102" pan="0"/>
          <note len="24" pos="1272" key="30" vol="91" pan="0"/>
          <note len="24" pos="1296" key="30" vol="82" pan="0"/>
          <note len="24" pos="1320" key="30" vol="95" pan="0"/>
          <note len="24" pos="1344" key="30" vol="102" pan="0"/>
          <note len="24" pos="1368" key="30" vol="114" pan="0"/>
          <note len="24" pos="1392" key="30" vol="104" pan="0"/>
          <note len="24" pos="1416" key="30" vol="91" pan="0"/>
          <note len="12" pos="1440" key="30" vol="116" pan="0"/>
          <note len="12" pos="1464" key="30" vol="122" pan="0"/>
          <note len="12" pos="1488" key="30" vol="116" pan="0"/>
          <note len="12" pos="1512" key="30" vol="122" pan="0"/>
        </pattern>
        <pattern type="1" pos="12288" muted="0" name="Fretless Bass" steps="16">
          <note len="24" pos="0" key="31" vol="63" pan="0"/>
          <note len="24" pos="24" key="31" vol="78" pan="0"/>
          <note len="24" pos="48" key="31" vol="97" pan="0"/>
          <note len="24" pos="72" key="31" vol="108" pan="0"/>
          <note len="24" pos="96" key="31" vol="102" pan="0"/>
          <note len="24" pos="120" key="31" vol="91" pan="0"/>
          <note len="24" pos="144" key="31" vol="82" pan="0"/>
          <note len="24" pos="168" key="31" vol="95" pan="0"/>
          <note len="24" pos="192" key="31" vol="102" pan="0"/>
          <note len="24" pos="216" key="31" vol="114" pan="0"/>
          <note len="24" pos="240" key="31" vol="104" pan="0"/>
          <note len="24" pos="264" key="31" vol="91" pan="0"/>
          <note len="24" pos="288" key="31" vol="94" pan="0"/>
          <note len="24" pos="312" key="31" vol="100" pan="0"/>
          <note len="24" pos="336" key="31" vol="94" pan="0"/>
          <note len="24" pos="360" key="31" vol="100" pan="0"/>
          <note len="24" pos="384" key="30" vol="63" pan="0"/>
          <note len="24" pos="408" key="30" vol="78" pan="0"/>
          <note len="24" pos="432" key="30" vol="97" pan="0"/>
          <note len="24" pos="456" key="30" vol="108" pan="0"/>
          <note len="24" pos="480" key="30" vol="102" pan="0"/>
          <note len="24" pos="504" key="30" vol="91" pan="0"/>
          <note len="24" pos="528" key="30" vol="82" pan="0"/>
          <note len="24" pos="552" key="30" vol="95" pan="0"/>
          <note len="24" pos="576" key="30" vol="102" pan="0"/>
          <note len="24" pos="600" key="30" vol="114" pan="0"/>
          <note len="24" pos="624" key="30" vol="104" pan="0"/>
          <note len="24" pos="648" key="30" vol="91" pan="0"/>
          <note len="24" pos="672" key="30" vol="83" pan="0"/>
          <note len="24" pos="696" key="30" vol="89" pan="0"/>
          <note len="24" pos="720" key="30" vol="83" pan="0"/>
          <note len="24" pos="744" key="30" vol="89" pan="0"/>
          <note len="24" pos="768" key="31" vol="63" pan="0"/>
          <note len="24" pos="792" key="31" vol="78" pan="0"/>
          <note len="24" pos="816" key="31" vol="97" pan="0"/>
          <note len="24" pos="840" key="31" vol="108" pan="0"/>
          <note len="24" pos="864" key="31" vol="102" pan="0"/>
          <note len="24" pos="888" key="31" vol="91" pan="0"/>
          <note len="24" pos="912" key="31" vol="82" pan="0"/>
          <note len="24" pos="936" key="31" vol="95" pan="0"/>
          <note len="24" pos="960" key="31" vol="102" pan="0"/>
          <note len="24" pos="984" key="31" vol="114" pan="0"/>
          <note len="24" pos="1008" key="31" vol="104" pan="0"/>
          <note len="24" pos="1032" key="31" vol="91" pan="0"/>
          <note len="24" pos="1056" key="31" vol="78" pan="0"/>
          <note len="24" pos="1080" key="31" vol="84" pan="0"/>
          <note len="24" pos="1104" key="31" vol="78" pan="0"/>
          <note len="24" pos="1128" key="31" vol="84" pan="0"/>
          <note len="24" pos="1152" key="30" vol="63" pan="0"/>
          <note len="24" pos="1176" key="30" vol="78" pan="0"/>
          <note len="24" pos="1200" key="30" vol="97" pan="0"/>
          <note len="24" pos="1224" key="30" vol="108" pan="0"/>
          <note len="24" pos="1248" key="30" vol="102" pan="0"/>
          <note len="24" pos="1272" key="30" vol="91" pan="0"/>
          <note len="24" pos="1296" key="30" vol="82" pan="0"/>
          <note len="24" pos="1320" key="30" vol="95" pan="0"/>
          <note len="24" pos="1344" key="30" vol="102" pan="0"/>
          <note len="24" pos="1368" key="30" vol="114" pan="0"/>
          <note len="24" pos="1392" key="30" vol="104" pan="0"/>
          <note len="24" pos="1416" key="30" vol="91" pan="0"/>
          <note len="12" pos="1440" key="30" vol="116" pan="0"/>
          <note len="12" pos="1464" key="30" vol="122" pan="0"/>
          <note len="12" pos="1488" key="30" vol="116" pan="0"/>
          <note len="12" pos="1512" key="30" vol="122" pan="0"/>
        </pattern>
        <pattern type="1" pos="13824" muted="0" name="Fretless Bass" steps="16">
          <note len="24" pos="0" key="31" vol="63" pan="0"/>
          <note len="24" pos="24" key="31" vol="78" pan="0"/>
          <note len="24" pos="48" key="31" vol="97" pan="0"/>
          <note len="24" pos="72" key="31" vol="108" pan="0"/>
          <note len="24" pos="96" key="31" vol="102" pan="0"/>
          <note len="24" pos="120" key="31" vol="91" pan="0"/>
          <note len="24" pos="144" key="31" vol="82" pan="0"/>
          <note len="24" pos="168" key="31" vol="95" pan="0"/>
          <note len="24" pos="192" key="31" vol="102" pan="0"/>
          <note len="24" pos="216" key="31" vol="114" pan="0"/>
          <note len="24" pos="240" key="31" vol="104" pan="0"/>
          <note len="24" pos="264" key="31" vol="91" pan="0"/>
          <note len="24" pos="288" key="31" vol="94" pan="0"/>
          <note len="24" pos="312" key="31" vol="100" pan="0"/>
          <note len="24" pos="336" key="31" vol="94" pan="0"/>
          <note len="24" pos="360" key="31" vol="100" pan="0"/>
          <note len="24" pos="384" key="30" vol="63" pan="0"/>
          <note len="24" pos="408" key="30" vol="78" pan="0"/>
          <note len="24" pos="432" key="30" vol="97" pan="0"/>
          <note len="24" pos="456" key="30" vol="108" pan="0"/>
          <note len="24" pos="480" key="30" vol="102" pan="0"/>
          <note len="24" pos="504" key="30" vol="91" pan="0"/>
          <note len="24" pos="528" key="30" vol="82" pan="0"/>
          <note len="24" pos="552" key="30" vol="95" pan="0"/>
          <note len="24" pos="576" key="30" vol="102" pan="0"/>
          <note len="24" pos="600" key="30" vol="114" pan="0"/>
          <note len="24" pos="624" key="30" vol="104" pan="0"/>
          <note len="24" pos="648" key="30" vol="91" pan="0"/>
          <note len="24" pos="672" key="30" vol="83" pan="0"/>
          <note len="24" pos="696" key="30" vol="89" pan="0"/>
          <note len="24" pos="720" key="30" vol="83" pan="0"/>
          <note len="24" pos="744" key="30" vol="89" pan="0"/>
          <note len="24" pos="768" key="31" vol="63" pan="0"/>
          <note len="24" pos="792" key="31" vol="78" pan="0"/>
          <note len="24" pos="816" key="31" vol="97" pan="0"/>
          <note len="24" pos="840" key="31" vol="108" pan="0"/>
          <note len="24" pos="864" key="31" vol="102" pan="0"/>
          <note len="24" pos="888" key="31" vol="91" pan="0"/>
          <note len="24" pos="912" key="31" vol="82" pan="0"/>
          <note len="24" pos="936" key="31" vol="95" pan="0"/>
          <note len="24" pos="960" key="31" vol="102" pan="0"/>
          <note len="24" pos="984" key="31" vol="114" pan="0"/>
          <note len="24" pos="1008" key="31" vol="104" pan="0"/>
          <note len="24" pos="1032" key="31" vol="91" pan="0"/>
          <note len="24" pos="1056" key="31" vol="78" pan="0"/>
          <note len="24" pos="1080" key="31" vol="84" pan="0"/>
          <note len="24" pos="1104" key="31" vol="78" pan="0"/>
          <note len="24" pos="1128" key="31" vol="84" pan="0"/>
          <note len="24" pos="1152" key="30" vol="63" pan="0"/>
          <note len="24" pos="1176" key="30" vol="78" pan="0"/>
          <note len="24" pos="1200" key="30" vol="97" pan="0"/>
          <note len="24" pos="1224" key="30" vol="108" pan="0"/>
          <note len="24" pos="1248" key="30" vol="102" pan="0"/>
          <note len="24" pos="1272" key="30" vol="91" pan="0"/>
          <note len="24" pos="1296" key="30" vol="82" pan="0"/>
          <note len="24" pos="1320" key="30" vol="95" pan="0"/>
          <note len="24" pos="1344" key="30" vol="102" pan="0"/>
          <note len="24" pos="1368" key="30" vol="114" pan="0"/>
          <note len="24" pos="1392" key="30" vol="104" pan="0"/>
          <note len="24" pos="1416" key="30" vol="91" pan="0"/>
          <note len="12" pos="1440" key="30" vol="116" pan="0"/>
          <note len="12" pos="1464" key="30" vol="122" pan="0"/>
          <note len="12" pos="1488" key="30" vol="116" pan="0"/>
          <note len="12" pos="1512" key="30" vol="122" pan="0"/>
        </pattern>
      </track>
      <track type="0" solo="0" muted="0" name="Slow Strings">
        <instrumenttrack pitchrange="1" pitch="0" basenote="57" vol="65" pan="0" usemasterpitch="1" fxch="0">
          <instrument name="sf2player">
            <sf2player gain="1" src="soundfonts/GeneralUser GS v1.471.sf2" reverbRoomSize="0.2" chorusLevel="2" chorusSpeed="0.30000001" patch="49" reverbLevel="0.89999998" reverbDamping="0.2" chorusNum="0.89999998" bank="1" reverbWidth="0.5" reverbOn="0" chorusOn="0" chorusDepth="8"/>
          </instrument>
          <eldata ftype="0" fcut="14000" fres="0.5" fwet="0">
            <elvol x100="0" userwavefile="" att="0" lshp="0" lamt="0" ctlenvamt="0" amt="0" pdel="0" hold="0.5" lspd_denominator="4" lspd_numerator="4" lpdel="0" dec="0.5" sustain="0.5" latt="0" lspd_syncmode="0" lspd="0.1" rel="0.1"/>
            <elcut x100="0" userwavefile="" att="0" lshp="0" lamt="0" ctlenvamt="0" amt="0" pdel="0" hold="0.5" lspd_denominator="4" lspd_numerator="4" lpdel="0" dec="0.5" sustain="0.5" latt="0" lspd_syncmode="0" lspd="0.1" rel="0.1"/>
            <elres x100="0" userwavefile="" att="0" lshp="0" lamt="0" ctlenvamt="0" amt="0" pdel="0" hold="0.5" lspd_denominator="4" lspd_numerator="4" lpdel="0" dec="0.5" sustain="0.5" latt="0" lspd_syncmode="0" lspd="0.1" rel="0.1"/>
          </eldata>
          <chordcreator chord="0" chord-enabled="0" chordrange="1"/>
          <arpeggiator arptime_numerator="4" arpcycle="0" arpgate="100" arpdir="0" arpskip="0" arp="0" arptime_syncmode="0" arpmode="0" arptime="200" arprange="1" arpmiss="0" arptime_denominator="4" arp-enabled="0"/>
          <midiport fixedinputvelocity="-1" writable="0" fixedoutputvelocity="-1" fixedoutputnote="-1" outputcontroller="0" basevelocity="63" inputchannel="0" outputchannel="1" inputcontroller="0" readable="0" outputprogram="1"/>
          <fxchain enabled="0" numofeffects="0"/>
        </instrumenttrack>
        <pattern type="1" pos="0" muted="0" name="Slow Strings" steps="16">
          <note len="384" pos="0" key="43" vol="133" pan="0"/>
          <note len="384" pos="384" key="42" vol="104" pan="0"/>
          <note len="384" pos="768" key="43" vol="133" pan="0"/>
          <note len="384" pos="1152" key="42" vol="110" pan="0"/>
        </pattern>
        <pattern type="1" pos="1536" muted="0" name="Slow Strings" steps="16">
          <note len="384" pos="0" key="43" vol="133" pan="0"/>
          <note len="384" pos="384" key="42" vol="104" pan="0"/>
          <note len="384" pos="768" key="43" vol="133" pan="0"/>
          <note len="384" pos="1152" key="42" vol="110" pan="0"/>
        </pattern>
        <pattern type="1" pos="3072" muted="0" name="Slow Strings" steps="16">
          <note len="384" pos="0" key="43" vol="133" pan="0"/>
          <note len="384" pos="384" key="42" vol="104" pan="0"/>
          <note len="384" pos="768" key="43" vol="133" pan="0"/>
          <note len="384" pos="1152" key="42" vol="110" pan="0"/>
        </pattern>
        <pattern type="1" pos="4608" muted="0" name="Slow Strings" steps="16">
          <note len="384" pos="0" key="43" vol="133" pan="0"/>
          <note len="384" pos="384" key="42" vol="104" pan="0"/>
          <note len="384" pos="768" key="43" vol="133" pan="0"/>
          <note len="384" pos="1152" key="42" vol="110" pan="0"/>
        </pattern>
        <pattern type="1" pos="6144" muted="0" name="Slow Strings" steps="16">
          <note len="384" pos="0" key="43" vol="133" pan="0"/>
          <note len="384" pos="384" key="42" vol="104" pan="0"/>
          <note len="384" pos="768" key="43" vol="133" pan="0"/>
          <note len="384" pos="1152" key="42" vol="110" pan="0"/>
        </pattern>
        <pattern type="1" pos="7680" muted="0" name="Slow Strings" steps="16">
          <note len="384" pos="0" key="43" vol="133" pan="0"/>
          <note len="384" pos="384" key="42" vol="104" pan="0"/>
          <note len="384" pos="768" key="43" vol="133" pan="0"/>
          <note len="384" pos="1152" key="42" vol="110" pan="0"/>
        </pattern>
        <pattern type="1" pos="9216" muted="0" name="" steps="16">
          <note len="384" pos="0" key="43" vol="133" pan="0"/>
          <note len="384" pos="384" key="42" vol="104" pan="0"/>
          <note len="384" pos="768" key="43" vol="133" pan="0"/>
          <note len="384" pos="1152" key="42" vol="110" pan="0"/>
        </pattern>
        <pattern type="1" pos="10752" muted="0" name="" steps="16">
          <note len="384" pos="0" key="43" vol="133" pan="0"/>
          <note len="384" pos="384" key="42" vol="104" pan="0"/>
          <note len="384" pos="768" key="43" vol="133" pan="0"/>
          <note len="384" pos="1152" key="42" vol="110" pan="0"/>
        </pattern>
        <pattern type="1" pos="12288" muted="0" name="" steps="16">
          <note len="384" pos="0" key="43" vol="133" pan="0"/>
          <note len="384" pos="384" key="42" vol="104" pan="0"/>
          <note len="384" pos="768" key="43" vol="133" pan="0"/>
          <note len="384" pos="1152" key="42" vol="110" pan="0"/>
        </pattern>
        <pattern type="1" pos="13824" muted="0" name="" steps="16">
          <note len="384" pos="0" key="43" vol="133" pan="0"/>
          <note len="384" pos="384" key="42" vol="104" pan="0"/>
          <note len="384" pos="768" key="43" vol="133" pan="0"/>
          <note len="384" pos="1152" key="42" vol="110" pan="0"/>
        </pattern>
      </track>
      <track type="0" solo="0" muted="0" name="Sweep Pad">
        <instrumenttrack pitchrange="1" pitch="0" basenote="57" vol="85" pan="0" usemasterpitch="1" fxch="0">
          <instrument name="sf2player">
            <sf2player gain="1" src="soundfonts/GeneralUser GS v1.471.sf2" reverbRoomSize="0.2" chorusLevel="2" chorusSpeed="0.30000001" patch="95" reverbLevel="0.89999998" reverbDamping="0.2" chorusNum="0.89999998" bank="0" reverbWidth="0.5" reverbOn="0" chorusOn="0" chorusDepth="8"/>
          </instrument>
          <eldata ftype="0" fcut="14000" fres="0.5" fwet="0">
            <elvol x100="0" userwavefile="" att="0" lshp="0" lamt="0" ctlenvamt="0" amt="0" pdel="0" hold="0.5" lspd_denominator="4" lspd_numerator="4" lpdel="0" dec="0.5" sustain="0.5" latt="0" lspd_syncmode="0" lspd="0.1" rel="0.1"/>
            <elcut x100="0" userwavefile="" att="0" lshp="0" lamt="0" ctlenvamt="0" amt="0" pdel="0" hold="0.5" lspd_denominator="4" lspd_numerator="4" lpdel="0" dec="0.5" sustain="0.5" latt="0" lspd_syncmode="0" lspd="0.1" rel="0.1"/>
            <elres x100="0" userwavefile="" att="0" lshp="0" lamt="0" ctlenvamt="0" amt="0" pdel="0" hold="0.5" lspd_denominator="4" lspd_numerator="4" lpdel="0" dec="0.5" sustain="0.5" latt="0" lspd_syncmode="0" lspd="0.1" rel="0.1"/>
          </eldata>
          <chordcreator chord="0" chord-enabled="0" chordrange="1"/>
          <arpeggiator arptime_numerator="4" arpcycle="0" arpgate="100" arpdir="0" arpskip="0" arp="0" arptime_syncmode="0" arpmode="0" arptime="200" arprange="1" arpmiss="0" arptime_denominator="4" arp-enabled="0"/>
          <midiport fixedinputvelocity="-1" writable="0" fixedoutputvelocity="-1" fixedoutputnote="-1" outputcontroller="0" basevelocity="63" inputchannel="0" outputchannel="1" inputcontroller="0" readable="0" outputprogram="1"/>
          <fxchain enabled="0" numofeffects="0"/>
        </instrumenttrack>
        <pattern type="1" pos="12288" muted="0" name="Sweep Pad" steps="16">
          <note len="384" pos="0" key="43" vol="133" pan="0"/>
          <note len="384" pos="384" key="42" vol="104" pan="0"/>
          <note len="384" pos="768" key="43" vol="133" pan="0"/>
          <note len="384" pos="1152" key="42" vol="110" pan="0"/>
        </pattern>
        <pattern type="1" pos="13824" muted="0" name="Sweep Pad" steps="16">
          <note len="384" pos="0" key="43" vol="133" pan="0"/>
          <note len="384" pos="384" key="42" vol="104" pan="0"/>
          <note len="384" pos="768" key="43" vol="133" pan="0"/>
          <note len="384" pos="1152" key="42" vol="110" pan="0"/>
        </pattern>
      </track>
      <track type="1" solo="0" muted="0" name="Beat/Bassline 0">
        <bbtrack>
          <trackcontainer visible="0" y="462" type="bbtrackcontainer" maximized="0" width="700" x="646" height="300" minimized="0">
            <track type="0" solo="0" muted="0" name="Sf2 Player">
              <instrumenttrack pitchrange="1" pitch="0" basenote="57" vol="100" pan="0" usemasterpitch="1" fxch="0">
                <instrument name="sf2player">
                  <sf2player gain="1" src="soundfonts/gzdoom.sf2" reverbRoomSize="0.2" chorusLevel="2" chorusSpeed="0.30000001" patch="0" reverbLevel="0.89999998" reverbDamping="0.2" chorusNum="0.89999998" bank="128" reverbWidth="0.5" reverbOn="0" chorusOn="0" chorusDepth="8"/>
                </instrument>
                <eldata ftype="0" fcut="14000" fres="0.5" fwet="0">
                  <elvol x100="0" userwavefile="" att="0" lshp="0" lamt="0" ctlenvamt="0" amt="0" pdel="0" hold="0.5" lspd_denominator="4" lspd_numerator="4" lpdel="0" dec="0.5" sustain="0.5" latt="0" lspd_syncmode="0" lspd="0.1" rel="0.1"/>
                  <elcut x100="0" userwavefile="" att="0" lshp="0" lamt="0" ctlenvamt="0" amt="0" pdel="0" hold="0.5" lspd_denominator="4" lspd_numerator="4" lpdel="0" dec="0.5" sustain="0.5" latt="0" lspd_syncmode="0" lspd="0.1" rel="0.1"/>
                  <elres x100="0" userwavefile="" att="0" lshp="0" lamt="0" ctlenvamt="0" amt="0" pdel="0" hold="0.5" lspd_denominator="4" lspd_numerator="4" lpdel="0" dec="0.5" sustain="0.5" latt="0" lspd_syncmode="0" lspd="0.1" rel="0.1"/>
                </eldata>
                <chordcreator chord="0" chord-enabled="0" chordrange="1"/>
                <arpeggiator arptime_numerator="4" arpcycle="0" arpgate="100" arpdir="0" arpskip="0" arp="0" arptime_syncmode="0" arpmode="0" arptime="200" arprange="1" arpmiss="0" arptime_denominator="4" arp-enabled="0"/>
                <midiport fixedinputvelocity="-1" writable="0" fixedoutputvelocity="-1" fixedoutputnote="-1" outputcontroller="0" basevelocity="63" inputchannel="0" outputchannel="1" inputcontroller="0" readable="0" outputprogram="1"/>
                <fxchain enabled="0" numofeffects="0"/>
              </instrumenttrack>
              <pattern type="0" pos="0" muted="0" name="Sf2 Player" steps="64">
                <note len="-192" pos="0" key="57" vol="100" pan="0"/>
                <note len="-192" pos="24" key="57" vol="30" pan="0"/>
                <note len="-192" pos="48" key="57" vol="10" pan="0"/>
                <note len="-192" pos="72" key="57" vol="15" pan="0"/>
                <note len="-192" pos="96" key="57" vol="10" pan="0"/>
                <note len="-192" pos="120" key="57" vol="10" pan="0"/>
                <note len="-192" pos="144" key="57" vol="100" pan="0"/>
                <note len="-192" pos="168" key="57" vol="25" pan="0"/>
                <note len="-192" pos="192" key="57" vol="10" pan="0"/>
                <note len="-192" pos="216" key="57" vol="10" pan="0"/>
                <note len="-192" pos="240" key="57" vol="10" pan="0"/>
                <note len="-192" pos="264" key="57" vol="20" pan="0"/>
                <note len="-192" pos="288" key="57" vol="100" pan="0"/>
                <note len="-192" pos="312" key="57" vol="25" pan="0"/>
                <note len="-192" pos="336" key="57" vol="10" pan="0"/>
                <note len="-192" pos="360" key="57" vol="10" pan="0"/>
                <note len="-192" pos="384" key="57" vol="100" pan="0"/>
                <note len="-192" pos="408" key="57" vol="20" pan="0"/>
                <note len="-192" pos="432" key="57" vol="10" pan="0"/>
                <note len="-192" pos="456" key="57" vol="10" pan="0"/>
                <note len="-192" pos="480" key="57" vol="10" pan="0"/>
                <note len="-192" pos="504" key="57" vol="10" pan="0"/>
                <note len="-192" pos="528" key="57" vol="100" pan="0"/>
                <note len="-192" pos="552" key="57" vol="20" pan="0"/>
                <note len="-192" pos="576" key="57" vol="10" pan="0"/>
                <note len="-192" pos="600" key="57" vol="10" pan="0"/>
                <note len="-192" pos="624" key="57" vol="10" pan="0"/>
                <note len="-192" pos="648" key="57" vol="20" pan="0"/>
                <note len="-192" pos="672" key="57" vol="100" pan="0"/>
                <note len="-192" pos="696" key="57" vol="20" pan="0"/>
                <note len="-192" pos="720" key="57" vol="10" pan="0"/>
                <note len="-192" pos="744" key="57" vol="10" pan="0"/>
              </pattern>
            </track>
          </trackcontainer>
        </bbtrack>
        <bbtco usestyle="1" color="4286611584" len="1536" pos="4608" muted="0" name=""/>
        <bbtco usestyle="1" color="4286611584" len="1536" pos="10752" muted="0" name=""/>
      </track>
      <track type="0" solo="0" muted="0" name="Drums">
        <instrumenttrack pitchrange="1" pitch="0" basenote="57" vol="100" pan="0" usemasterpitch="1" fxch="0">
          <instrument name="sf2player">
            <sf2player gain="1" src="soundfonts/GeneralUser GS v1.471.sf2" reverbRoomSize="0.2" chorusLevel="2" chorusSpeed="0.30000001" patch="0" reverbLevel="0.89999998" reverbDamping="0.2" chorusNum="0.89999998" bank="128" reverbWidth="0.5" reverbOn="0" chorusOn="0" chorusDepth="8"/>
          </instrument>
          <eldata ftype="0" fcut="14000" fres="0.5" fwet="0">
            <elvol x100="0" userwavefile="" att="0" lshp="0" lamt="0" ctlenvamt="0" amt="0" pdel="0" hold="0.5" lspd_denominator="4" lspd_numerator="4" lpdel="0" dec="0.5" sustain="0.5" latt="0" lspd_syncmode="0" lspd="0.1" rel="0.1"/>
            <elcut x100="0" userwavefile="" att="0" lshp="0" lamt="0" ctlenvamt="0" amt="0" pdel="0" hold="0.5" lspd_denominator="4" lspd_numerator="4" lpdel="0" dec="0.5" sustain="0.5" latt="0" lspd_syncmode="0" lspd="0.1" rel="0.1"/>
            <elres x100="0" userwavefile="" att="0" lshp="0" lamt="0" ctlenvamt="0" amt="0" pdel="0" hold="0.5" lspd_denominator="4" lspd_numerator="4" lpdel="0" dec="0.5" sustain="0.5" latt="0" lspd_syncmode="0" lspd="0.1" rel="0.1"/>
          </eldata>
          <chordcreator chord="0" chord-enabled="0" chordrange="1"/>
          <arpeggiator arptime_numerator="4" arpcycle="0" arpgate="100" arpdir="0" arpskip="0" arp="0" arptime_syncmode="0" arpmode="0" arptime="200" arprange="1" arpmiss="0" arptime_denominator="4" arp-enabled="0"/>
          <midiport fixedinputvelocity="-1" writable="0" fixedoutputvelocity="-1" fixedoutputnote="-1" outputcontroller="0" basevelocity="63" inputchannel="0" outputchannel="1" inputcontroller="0" readable="0" outputprogram="1"/>
          <fxchain enabled="0" numofeffects="0"/>
        </instrumenttrack>
        <pattern type="1" pos="3072" muted="0" name="Drums" steps="16">
          <note len="24" pos="0" key="24" vol="127" pan="0"/>
          <note len="24" pos="48" key="30" vol="82" pan="0"/>
          <note len="24" pos="72" key="24" vol="127" pan="0"/>
          <note len="24" pos="96" key="28" vol="127" pan="0"/>
          <note len="24" pos="144" key="30" vol="85" pan="0"/>
          <note len="24" pos="168" key="24" vol="127" pan="0"/>
          <note len="24" pos="192" key="30" vol="93" pan="0"/>
          <note len="24" pos="216" key="24" vol="127" pan="0"/>
          <note len="24" pos="240" key="24" vol="127" pan="0"/>
          <note len="24" pos="264" key="30" vol="108" pan="0"/>
          <note len="24" pos="288" key="28" vol="127" pan="0"/>
          <note len="24" pos="336" key="24" vol="127" pan="0"/>
          <note len="24" pos="360" key="30" vol="102" pan="0"/>
          <note len="24" pos="384" key="24" vol="127" pan="0"/>
          <note len="24" pos="432" key="30" vol="82" pan="0"/>
          <note len="24" pos="456" key="24" vol="127" pan="0"/>
          <note len="24" pos="480" key="28" vol="127" pan="0"/>
          <note len="24" pos="528" key="30" vol="85" pan="0"/>
          <note len="24" pos="552" key="24" vol="127" pan="0"/>
          <note len="24" pos="576" key="30" vol="93" pan="0"/>
          <note len="24" pos="600" key="24" vol="127" pan="0"/>
          <note len="24" pos="624" key="24" vol="127" pan="0"/>
          <note len="24" pos="648" key="30" vol="108" pan="0"/>
          <note len="24" pos="672" key="28" vol="127" pan="0"/>
          <note len="24" pos="720" key="24" vol="127" pan="0"/>
          <note len="24" pos="744" key="30" vol="102" pan="0"/>
          <note len="24" pos="768" key="24" vol="127" pan="0"/>
          <note len="24" pos="816" key="30" vol="82" pan="0"/>
          <note len="24" pos="840" key="24" vol="127" pan="0"/>
          <note len="24" pos="864" key="28" vol="127" pan="0"/>
          <note len="24" pos="912" key="30" vol="85" pan="0"/>
          <note len="24" pos="936" key="24" vol="127" pan="0"/>
          <note len="24" pos="960" key="30" vol="93" pan="0"/>
          <note len="24" pos="984" key="24" vol="127" pan="0"/>
          <note len="24" pos="1008" key="24" vol="127" pan="0"/>
          <note len="24" pos="1032" key="30" vol="108" pan="0"/>
          <note len="24" pos="1056" key="28" vol="127" pan="0"/>
          <note len="24" pos="1104" key="24" vol="127" pan="0"/>
          <note len="24" pos="1128" key="30" vol="102" pan="0"/>
          <note len="24" pos="1152" key="24" vol="127" pan="0"/>
          <note len="24" pos="1200" key="30" vol="82" pan="0"/>
          <note len="24" pos="1224" key="24" vol="127" pan="0"/>
          <note len="24" pos="1248" key="28" vol="127" pan="0"/>
          <note len="24" pos="1296" key="30" vol="85" pan="0"/>
          <note len="24" pos="1320" key="24" vol="127" pan="0"/>
          <note len="24" pos="1344" key="30" vol="93" pan="0"/>
          <note len="24" pos="1368" key="24" vol="127" pan="0"/>
          <note len="24" pos="1392" key="24" vol="127" pan="0"/>
          <note len="24" pos="1416" key="30" vol="108" pan="0"/>
          <note len="24" pos="1440" key="28" vol="127" pan="0"/>
          <note len="24" pos="1488" key="24" vol="127" pan="0"/>
          <note len="24" pos="1512" key="30" vol="102" pan="0"/>
        </pattern>
        <pattern type="1" pos="4608" muted="0" name="Drums" steps="16">
          <note len="24" pos="0" key="24" vol="127" pan="0"/>
          <note len="24" pos="48" key="30" vol="82" pan="0"/>
          <note len="24" pos="72" key="24" vol="127" pan="0"/>
          <note len="24" pos="96" key="28" vol="127" pan="0"/>
          <note len="24" pos="144" key="30" vol="85" pan="0"/>
          <note len="24" pos="168" key="24" vol="127" pan="0"/>
          <note len="24" pos="192" key="30" vol="93" pan="0"/>
          <note len="24" pos="216" key="24" vol="127" pan="0"/>
          <note len="24" pos="240" key="24" vol="127" pan="0"/>
          <note len="24" pos="264" key="30" vol="108" pan="0"/>
          <note len="24" pos="288" key="28" vol="127" pan="0"/>
          <note len="24" pos="336" key="24" vol="127" pan="0"/>
          <note len="24" pos="360" key="30" vol="102" pan="0"/>
          <note len="24" pos="384" key="24" vol="127" pan="0"/>
          <note len="24" pos="432" key="30" vol="82" pan="0"/>
          <note len="24" pos="456" key="24" vol="127" pan="0"/>
          <note len="24" pos="480" key="28" vol="127" pan="0"/>
          <note len="24" pos="528" key="30" vol="85" pan="0"/>
          <note len="24" pos="552" key="24" vol="127" pan="0"/>
          <note len="24" pos="576" key="30" vol="93" pan="0"/>
          <note len="24" pos="600" key="24" vol="127" pan="0"/>
          <note len="24" pos="624" key="24" vol="127" pan="0"/>
          <note len="24" pos="648" key="30" vol="108" pan="0"/>
          <note len="24" pos="672" key="28" vol="127" pan="0"/>
          <note len="24" pos="720" key="24" vol="127" pan="0"/>
          <note len="24" pos="744" key="30" vol="102" pan="0"/>
          <note len="24" pos="768" key="24" vol="127" pan="0"/>
          <note len="24" pos="816" key="30" vol="82" pan="0"/>
          <note len="24" pos="840" key="24" vol="127" pan="0"/>
          <note len="24" pos="864" key="28" vol="127" pan="0"/>
          <note len="24" pos="912" key="30" vol="85" pan="0"/>
          <note len="24" pos="936" key="24" vol="127" pan="0"/>
          <note len="24" pos="960" key="30" vol="93" pan="0"/>
          <note len="24" pos="984" key="24" vol="127" pan="0"/>
          <note len="24" pos="1008" key="24" vol="127" pan="0"/>
          <note len="24" pos="1032" key="30" vol="108" pan="0"/>
          <note len="24" pos="1056" key="28" vol="127" pan="0"/>
          <note len="24" pos="1104" key="24" vol="127" pan="0"/>
          <note len="24" pos="1128" key="30" vol="102" pan="0"/>
          <note len="24" pos="1152" key="24" vol="127" pan="0"/>
          <note len="24" pos="1200" key="30" vol="82" pan="0"/>
          <note len="24" pos="1224" key="24" vol="127" pan="0"/>
          <note len="24" pos="1248" key="28" vol="127" pan="0"/>
          <note len="24" pos="1296" key="30" vol="85" pan="0"/>
          <note len="24" pos="1320" key="24" vol="127" pan="0"/>
          <note len="24" pos="1344" key="30" vol="93" pan="0"/>
          <note len="24" pos="1368" key="24" vol="127" pan="0"/>
          <note len="24" pos="1392" key="24" vol="127" pan="0"/>
          <note len="24" pos="1416" key="30" vol="108" pan="0"/>
          <note len="24" pos="1440" key="28" vol="127" pan="0"/>
          <note len="24" pos="1488" key="24" vol="127" pan="0"/>
          <note len="24" pos="1512" key="30" vol="102" pan="0"/>
        </pattern>
        <pattern type="1" pos="6144" muted="0" name="Drums" steps="16">
          <note len="24" pos="0" key="24" vol="127" pan="0"/>
          <note len="24" pos="48" key="30" vol="82" pan="0"/>
          <note len="24" pos="72" key="24" vol="127" pan="0"/>
          <note len="24" pos="96" key="28" vol="127" pan="0"/>
          <note len="24" pos="144" key="30" vol="85" pan="0"/>
          <note len="24" pos="168" key="24" vol="127" pan="0"/>
          <note len="24" pos="192" key="30" vol="93" pan="0"/>
          <note len="24" pos="216" key="24" vol="127" pan="0"/>
          <note len="24" pos="240" key="24" vol="127" pan="0"/>
          <note len="24" pos="264" key="30" vol="108" pan="0"/>
          <note len="24" pos="288" key="28" vol="127" pan="0"/>
          <note len="24" pos="336" key="24" vol="127" pan="0"/>
          <note len="24" pos="360" key="30" vol="102" pan="0"/>
          <note len="24" pos="384" key="24" vol="127" pan="0"/>
          <note len="24" pos="432" key="30" vol="82" pan="0"/>
          <note len="24" pos="456" key="24" vol="127" pan="0"/>
          <note len="24" pos="480" key="28" vol="127" pan="0"/>
          <note len="24" pos="528" key="30" vol="85" pan="0"/>
          <note len="24" pos="552" key="24" vol="127" pan="0"/>
          <note len="24" pos="576" key="30" vol="93" pan="0"/>
          <note len="24" pos="600" key="24" vol="127" pan="0"/>
          <note len="24" pos="624" key="24" vol="127" pan="0"/>
          <note len="24" pos="648" key="30" vol="108" pan="0"/>
          <note len="24" pos="672" key="28" vol="127" pan="0"/>
          <note len="24" pos="720" key="24" vol="127" pan="0"/>
          <note len="24" pos="744" key="30" vol="102" pan="0"/>
          <note len="24" pos="768" key="24" vol="127" pan="0"/>
          <note len="24" pos="816" key="30" vol="82" pan="0"/>
          <note len="24" pos="840" key="24" vol="127" pan="0"/>
          <note len="24" pos="864" key="28" vol="127" pan="0"/>
          <note len="24" pos="912" key="30" vol="85" pan="0"/>
          <note len="24" pos="936" key="24" vol="127" pan="0"/>
          <note len="24" pos="960" key="30" vol="93" pan="0"/>
          <note len="24" pos="984" key="24" vol="127" pan="0"/>
          <note len="24" pos="1008" key="24" vol="127" pan="0"/>
          <note len="24" pos="1032" key="30" vol="108" pan="0"/>
          <note len="24" pos="1056" key="28" vol="127" pan="0"/>
          <note len="24" pos="1104" key="24" vol="127" pan="0"/>
          <note len="24" pos="1128" key="30" vol="102" pan="0"/>
          <note len="24" pos="1152" key="24" vol="127" pan="0"/>
          <note len="24" pos="1200" key="30" vol="82" pan="0"/>
          <note len="24" pos="1224" key="24" vol="127" pan="0"/>
          <note len="24" pos="1248" key="28" vol="127" pan="0"/>
          <note len="24" pos="1296" key="30" vol="85" pan="0"/>
          <note len="24" pos="1320" key="24" vol="127" pan="0"/>
          <note len="24" pos="1344" key="30" vol="93" pan="0"/>
          <note len="24" pos="1368" key="24" vol="127" pan="0"/>
          <note len="24" pos="1392" key="24" vol="127" pan="0"/>
          <note len="24" pos="1416" key="30" vol="108" pan="0"/>
          <note len="24" pos="1440" key="28" vol="127" pan="0"/>
          <note len="24" pos="1488" key="24" vol="127" pan="0"/>
          <note len="24" pos="1512" key="30" vol="102" pan="0"/>
        </pattern>
        <pattern type="1" pos="7680" muted="0" name="Drums" steps="16">
          <note len="24" pos="0" key="24" vol="127" pan="0"/>
          <note len="24" pos="48" key="30" vol="82" pan="0"/>
          <note len="24" pos="72" key="24" vol="127" pan="0"/>
          <note len="24" pos="96" key="28" vol="127" pan="0"/>
          <note len="24" pos="144" key="30" vol="85" pan="0"/>
          <note len="24" pos="168" key="24" vol="127" pan="0"/>
          <note len="24" pos="192" key="30" vol="93" pan="0"/>
          <note len="24" pos="216" key="24" vol="127" pan="0"/>
          <note len="24" pos="240" key="24" vol="127" pan="0"/>
          <note len="24" pos="264" key="30" vol="108" pan="0"/>
          <note len="24" pos="288" key="28" vol="127" pan="0"/>
          <note len="24" pos="336" key="24" vol="127" pan="0"/>
          <note len="24" pos="360" key="30" vol="102" pan="0"/>
          <note len="24" pos="384" key="24" vol="127" pan="0"/>
          <note len="24" pos="432" key="30" vol="82" pan="0"/>
          <note len="24" pos="456" key="24" vol="127" pan="0"/>
          <note len="24" pos="480" key="28" vol="127" pan="0"/>
          <note len="24" pos="528" key="30" vol="85" pan="0"/>
          <note len="24" pos="552" key="24" vol="127" pan="0"/>
          <note len="24" pos="576" key="30" vol="93" pan="0"/>
          <note len="24" pos="600" key="24" vol="127" pan="0"/>
          <note len="24" pos="624" key="24" vol="127" pan="0"/>
          <note len="24" pos="648" key="30" vol="108" pan="0"/>
          <note len="24" pos="672" key="28" vol="127" pan="0"/>
          <note len="24" pos="720" key="24" vol="127" pan="0"/>
          <note len="24" pos="744" key="30" vol="102" pan="0"/>
          <note len="24" pos="768" key="24" vol="127" pan="0"/>
          <note len="24" pos="816" key="30" vol="82" pan="0"/>
          <note len="24" pos="840" key="24" vol="127" pan="0"/>
          <note len="24" pos="864" key="28" vol="127" pan="0"/>
          <note len="24" pos="912" key="30" vol="85" pan="0"/>
          <note len="24" pos="936" key="24" vol="127" pan="0"/>
          <note len="24" pos="960" key="30" vol="93" pan="0"/>
          <note len="24" pos="984" key="24" vol="127" pan="0"/>
          <note len="24" pos="1008" key="24" vol="127" pan="0"/>
          <note len="24" pos="1032" key="30" vol="108" pan="0"/>
          <note len="24" pos="1056" key="28" vol="127" pan="0"/>
          <note len="24" pos="1104" key="24" vol="127" pan="0"/>
          <note len="24" pos="1128" key="30" vol="102" pan="0"/>
          <note len="24" pos="1152" key="24" vol="127" pan="0"/>
          <note len="24" pos="1200" key="30" vol="82" pan="0"/>
          <note len="24" pos="1224" key="24" vol="127" pan="0"/>
          <note len="24" pos="1248" key="28" vol="127" pan="0"/>
          <note len="24" pos="1296" key="30" vol="85" pan="0"/>
          <note len="24" pos="1320" key="24" vol="127" pan="0"/>
          <note len="24" pos="1344" key="30" vol="93" pan="0"/>
          <note len="24" pos="1368" key="24" vol="127" pan="0"/>
          <note len="24" pos="1392" key="24" vol="127" pan="0"/>
          <note len="24" pos="1416" key="30" vol="108" pan="0"/>
          <note len="24" pos="1440" key="28" vol="127" pan="0"/>
          <note len="24" pos="1464" key="24" vol="131" pan="0"/>
          <note len="24" pos="1488" key="28" vol="131" pan="0"/>
          <note len="24" pos="1512" key="30" vol="102" pan="0"/>
          <note len="24" pos="1512" key="24" vol="131" pan="0"/>
        </pattern>
        <pattern type="1" pos="9216" muted="0" name="Drums" steps="16">
          <note len="24" pos="0" key="41" vol="105" pan="0"/>
          <note len="24" pos="0" key="24" vol="127" pan="0"/>
          <note len="24" pos="48" key="41" vol="105" pan="0"/>
          <note len="24" pos="48" key="30" vol="82" pan="0"/>
          <note len="24" pos="72" key="24" vol="127" pan="0"/>
          <note len="24" pos="96" key="41" vol="105" pan="0"/>
          <note len="24" pos="96" key="28" vol="127" pan="0"/>
          <note len="24" pos="144" key="41" vol="105" pan="0"/>
          <note len="24" pos="144" key="30" vol="85" pan="0"/>
          <note len="24" pos="168" key="24" vol="127" pan="0"/>
          <note len="24" pos="192" key="41" vol="105" pan="0"/>
          <note len="24" pos="192" key="30" vol="93" pan="0"/>
          <note len="24" pos="216" key="24" vol="127" pan="0"/>
          <note len="24" pos="240" key="41" vol="105" pan="0"/>
          <note len="24" pos="240" key="24" vol="127" pan="0"/>
          <note len="24" pos="264" key="30" vol="108" pan="0"/>
          <note len="24" pos="288" key="41" vol="105" pan="0"/>
          <note len="24" pos="288" key="28" vol="127" pan="0"/>
          <note len="24" pos="312" key="41" vol="105" pan="0"/>
          <note len="24" pos="336" key="41" vol="105" pan="0"/>
          <note len="24" pos="336" key="24" vol="127" pan="0"/>
          <note len="24" pos="360" key="30" vol="102" pan="0"/>
          <note len="24" pos="384" key="41" vol="105" pan="0"/>
          <note len="24" pos="384" key="24" vol="127" pan="0"/>
          <note len="24" pos="432" key="41" vol="105" pan="0"/>
          <note len="24" pos="432" key="30" vol="82" pan="0"/>
          <note len="24" pos="456" key="24" vol="127" pan="0"/>
          <note len="24" pos="480" key="41" vol="105" pan="0"/>
          <note len="24" pos="480" key="28" vol="127" pan="0"/>
          <note len="24" pos="528" key="41" vol="105" pan="0"/>
          <note len="24" pos="528" key="30" vol="85" pan="0"/>
          <note len="24" pos="552" key="24" vol="127" pan="0"/>
          <note len="24" pos="576" key="41" vol="105" pan="0"/>
          <note len="24" pos="576" key="30" vol="93" pan="0"/>
          <note len="24" pos="600" key="24" vol="127" pan="0"/>
          <note len="24" pos="624" key="41" vol="105" pan="0"/>
          <note len="24" pos="624" key="24" vol="127" pan="0"/>
          <note len="24" pos="648" key="41" vol="105" pan="0"/>
          <note len="24" pos="648" key="30" vol="108" pan="0"/>
          <note len="24" pos="672" key="41" vol="105" pan="0"/>
          <note len="24" pos="672" key="28" vol="127" pan="0"/>
          <note len="24" pos="720" key="41" vol="105" pan="0"/>
          <note len="24" pos="720" key="24" vol="127" pan="0"/>
          <note len="24" pos="744" key="30" vol="102" pan="0"/>
          <note len="24" pos="768" key="41" vol="105" pan="0"/>
          <note len="24" pos="768" key="24" vol="127" pan="0"/>
          <note len="24" pos="816" key="41" vol="105" pan="0"/>
          <note len="24" pos="816" key="30" vol="82" pan="0"/>
          <note len="24" pos="840" key="24" vol="127" pan="0"/>
          <note len="24" pos="864" key="41" vol="105" pan="0"/>
          <note len="24" pos="864" key="28" vol="127" pan="0"/>
          <note len="24" pos="912" key="41" vol="105" pan="0"/>
          <note len="24" pos="912" key="30" vol="85" pan="0"/>
          <note len="24" pos="936" key="24" vol="127" pan="0"/>
          <note len="24" pos="960" key="41" vol="105" pan="0"/>
          <note len="24" pos="960" key="30" vol="93" pan="0"/>
          <note len="24" pos="984" key="24" vol="127" pan="0"/>
          <note len="24" pos="1008" key="41" vol="105" pan="0"/>
          <note len="24" pos="1008" key="24" vol="127" pan="0"/>
          <note len="24" pos="1032" key="30" vol="108" pan="0"/>
          <note len="24" pos="1056" key="41" vol="105" pan="0"/>
          <note len="24" pos="1056" key="28" vol="127" pan="0"/>
          <note len="24" pos="1080" key="41" vol="105" pan="0"/>
          <note len="24" pos="1104" key="41" vol="105" pan="0"/>
          <note len="24" pos="1104" key="24" vol="127" pan="0"/>
          <note len="24" pos="1128" key="30" vol="102" pan="0"/>
          <note len="24" pos="1152" key="41" vol="105" pan="0"/>
          <note len="24" pos="1152" key="24" vol="127" pan="0"/>
          <note len="24" pos="1200" key="41" vol="105" pan="0"/>
          <note len="24" pos="1200" key="30" vol="82" pan="0"/>
          <note len="24" pos="1224" key="24" vol="127" pan="0"/>
          <note len="24" pos="1248" key="41" vol="105" pan="0"/>
          <note len="24" pos="1248" key="28" vol="127" pan="0"/>
          <note len="24" pos="1296" key="41" vol="105" pan="0"/>
          <note len="24" pos="1296" key="30" vol="85" pan="0"/>
          <note len="24" pos="1320" key="24" vol="127" pan="0"/>
          <note len="24" pos="1344" key="41" vol="105" pan="0"/>
          <note len="24" pos="1344" key="30" vol="93" pan="0"/>
          <note len="24" pos="1368" key="24" vol="127" pan="0"/>
          <note len="24" pos="1392" key="41" vol="105" pan="0"/>
          <note len="24" pos="1392" key="24" vol="127" pan="0"/>
          <note len="24" pos="1416" key="41" vol="105" pan="0"/>
          <note len="24" pos="1416" key="30" vol="108" pan="0"/>
          <note len="24" pos="1440" key="41" vol="105" pan="0"/>
          <note len="24" pos="1440" key="28" vol="127" pan="0"/>
          <note len="24" pos="1488" key="41" vol="105" pan="0"/>
          <note len="24" pos="1488" key="24" vol="127" pan="0"/>
          <note len="24" pos="1512" key="30" vol="102" pan="0"/>
        </pattern>
        <pattern type="1" pos="10752" muted="0" name="Drums" steps="16">
          <note len="24" pos="0" key="41" vol="105" pan="0"/>
          <note len="24" pos="0" key="24" vol="127" pan="0"/>
          <note len="24" pos="48" key="41" vol="105" pan="0"/>
          <note len="24" pos="48" key="30" vol="82" pan="0"/>
          <note len="24" pos="72" key="24" vol="127" pan="0"/>
          <note len="24" pos="96" key="41" vol="105" pan="0"/>
          <note len="24" pos="96" key="28" vol="127" pan="0"/>
          <note len="24" pos="144" key="41" vol="105" pan="0"/>
          <note len="24" pos="144" key="30" vol="85" pan="0"/>
          <note len="24" pos="168" key="24" vol="127" pan="0"/>
          <note len="24" pos="192" key="41" vol="105" pan="0"/>
          <note len="24" pos="192" key="30" vol="93" pan="0"/>
          <note len="24" pos="216" key="24" vol="127" pan="0"/>
          <note len="24" pos="240" key="41" vol="105" pan="0"/>
          <note len="24" pos="240" key="24" vol="127" pan="0"/>
          <note len="24" pos="264" key="30" vol="108" pan="0"/>
          <note len="24" pos="288" key="41" vol="105" pan="0"/>
          <note len="24" pos="288" key="28" vol="127" pan="0"/>
          <note len="24" pos="312" key="41" vol="105" pan="0"/>
          <note len="24" pos="336" key="41" vol="105" pan="0"/>
          <note len="24" pos="336" key="24" vol="127" pan="0"/>
          <note len="24" pos="360" key="30" vol="102" pan="0"/>
          <note len="24" pos="384" key="41" vol="105" pan="0"/>
          <note len="24" pos="384" key="24" vol="127" pan="0"/>
          <note len="24" pos="432" key="41" vol="105" pan="0"/>
          <note len="24" pos="432" key="30" vol="82" pan="0"/>
          <note len="24" pos="456" key="24" vol="127" pan="0"/>
          <note len="24" pos="480" key="41" vol="105" pan="0"/>
          <note len="24" pos="480" key="28" vol="127" pan="0"/>
          <note len="24" pos="528" key="41" vol="105" pan="0"/>
          <note len="24" pos="528" key="30" vol="85" pan="0"/>
          <note len="24" pos="552" key="24" vol="127" pan="0"/>
          <note len="24" pos="576" key="41" vol="105" pan="0"/>
          <note len="24" pos="576" key="30" vol="93" pan="0"/>
          <note len="24" pos="600" key="24" vol="127" pan="0"/>
          <note len="24" pos="624" key="41" vol="105" pan="0"/>
          <note len="24" pos="624" key="24" vol="127" pan="0"/>
          <note len="24" pos="648" key="41" vol="105" pan="0"/>
          <note len="24" pos="648" key="30" vol="108" pan="0"/>
          <note len="24" pos="672" key="41" vol="105" pan="0"/>
          <note len="24" pos="672" key="28" vol="127" pan="0"/>
          <note len="24" pos="720" key="41" vol="105" pan="0"/>
          <note len="24" pos="720" key="24" vol="127" pan="0"/>
          <note len="24" pos="744" key="30" vol="102" pan="0"/>
          <note len="24" pos="768" key="41" vol="105" pan="0"/>
          <note len="24" pos="768" key="24" vol="127" pan="0"/>
          <note len="24" pos="816" key="41" vol="105" pan="0"/>
          <note len="24" pos="816" key="30" vol="82" pan="0"/>
          <note len="24" pos="840" key="24" vol="127" pan="0"/>
          <note len="24" pos="864" key="41" vol="105" pan="0"/>
          <note len="24" pos="864" key="28" vol="127" pan="0"/>
          <note len="24" pos="912" key="41" vol="105" pan="0"/>
          <note len="24" pos="912" key="30" vol="85" pan="0"/>
          <note len="24" pos="936" key="24" vol="127" pan="0"/>
          <note len="24" pos="960" key="41" vol="105" pan="0"/>
          <note len="24" pos="960" key="30" vol="93" pan="0"/>
          <note len="24" pos="984" key="24" vol="127" pan="0"/>
          <note len="24" pos="1008" key="41" vol="105" pan="0"/>
          <note len="24" pos="1008" key="24" vol="127" pan="0"/>
          <note len="24" pos="1032" key="30" vol="108" pan="0"/>
          <note len="24" pos="1056" key="41" vol="105" pan="0"/>
          <note len="24" pos="1056" key="28" vol="127" pan="0"/>
          <note len="24" pos="1080" key="41" vol="105" pan="0"/>
          <note len="24" pos="1104" key="41" vol="105" pan="0"/>
          <note len="24" pos="1104" key="24" vol="127" pan="0"/>
          <note len="24" pos="1128" key="30" vol="102" pan="0"/>
          <note len="24" pos="1152" key="41" vol="105" pan="0"/>
          <note len="24" pos="1152" key="24" vol="127" pan="0"/>
          <note len="24" pos="1200" key="41" vol="105" pan="0"/>
          <note len="24" pos="1200" key="30" vol="82" pan="0"/>
          <note len="24" pos="1224" key="24" vol="127" pan="0"/>
          <note len="24" pos="1248" key="41" vol="105" pan="0"/>
          <note len="24" pos="1248" key="28" vol="127" pan="0"/>
          <note len="24" pos="1296" key="41" vol="105" pan="0"/>
          <note len="24" pos="1296" key="30" vol="85" pan="0"/>
          <note len="24" pos="1320" key="24" vol="127" pan="0"/>
          <note len="24" pos="1344" key="41" vol="105" pan="0"/>
          <note len="24" pos="1344" key="30" vol="93" pan="0"/>
          <note len="24" pos="1368" key="24" vol="127" pan="0"/>
          <note len="24" pos="1392" key="41" vol="105" pan="0"/>
          <note len="24" pos="1392" key="24" vol="127" pan="0"/>
          <note len="24" pos="1416" key="41" vol="105" pan="0"/>
          <note len="24" pos="1416" key="30" vol="108" pan="0"/>
          <note len="24" pos="1440" key="41" vol="105" pan="0"/>
          <note len="24" pos="1440" key="28" vol="127" pan="0"/>
          <note len="24" pos="1464" key="24" vol="127" pan="0"/>
          <note len="24" pos="1488" key="41" vol="105" pan="0"/>
          <note len="24" pos="1488" key="28" vol="127" pan="0"/>
          <note len="24" pos="1512" key="30" vol="102" pan="0"/>
          <note len="24" pos="1512" key="24" vol="127" pan="0"/>
        </pattern>
        <pattern type="1" pos="12288" muted="0" name="Drums" steps="16">
          <note len="24" pos="0" key="24" vol="127" pan="0"/>
          <note len="24" pos="48" key="30" vol="82" pan="0"/>
          <note len="24" pos="72" key="24" vol="127" pan="0"/>
          <note len="24" pos="96" key="28" vol="127" pan="0"/>
          <note len="24" pos="144" key="30" vol="85" pan="0"/>
          <note len="24" pos="168" key="24" vol="127" pan="0"/>
          <note len="24" pos="192" key="30" vol="93" pan="0"/>
          <note len="24" pos="216" key="24" vol="127" pan="0"/>
          <note len="24" pos="240" key="24" vol="127" pan="0"/>
          <note len="24" pos="264" key="30" vol="108" pan="0"/>
          <note len="24" pos="288" key="28" vol="127" pan="0"/>
          <note len="24" pos="336" key="24" vol="127" pan="0"/>
          <note len="24" pos="360" key="30" vol="102" pan="0"/>
          <note len="24" pos="384" key="24" vol="127" pan="0"/>
          <note len="24" pos="432" key="30" vol="82" pan="0"/>
          <note len="24" pos="456" key="24" vol="127" pan="0"/>
          <note len="24" pos="480" key="28" vol="127" pan="0"/>
          <note len="24" pos="528" key="30" vol="85" pan="0"/>
          <note len="24" pos="552" key="24" vol="127" pan="0"/>
          <note len="24" pos="576" key="30" vol="93" pan="0"/>
          <note len="24" pos="600" key="24" vol="127" pan="0"/>
          <note len="24" pos="624" key="24" vol="127" pan="0"/>
          <note len="24" pos="648" key="30" vol="108" pan="0"/>
          <note len="24" pos="672" key="28" vol="127" pan="0"/>
          <note len="24" pos="720" key="24" vol="127" pan="0"/>
          <note len="24" pos="744" key="30" vol="102" pan="0"/>
          <note len="24" pos="768" key="24" vol="127" pan="0"/>
          <note len="24" pos="816" key="30" vol="82" pan="0"/>
          <note len="24" pos="840" key="24" vol="127" pan="0"/>
          <note len="24" pos="864" key="28" vol="127" pan="0"/>
          <note len="24" pos="912" key="30" vol="85" pan="0"/>
          <note len="24" pos="936" key="24" vol="127" pan="0"/>
          <note len="24" pos="960" key="30" vol="93" pan="0"/>
          <note len="24" pos="984" key="24" vol="127" pan="0"/>
          <note len="24" pos="1008" key="24" vol="127" pan="0"/>
          <note len="24" pos="1032" key="30" vol="108" pan="0"/>
          <note len="24" pos="1056" key="28" vol="127" pan="0"/>
          <note len="24" pos="1104" key="24" vol="127" pan="0"/>
          <note len="24" pos="1128" key="30" vol="102" pan="0"/>
          <note len="24" pos="1152" key="24" vol="127" pan="0"/>
          <note len="24" pos="1200" key="30" vol="82" pan="0"/>
          <note len="24" pos="1224" key="24" vol="127" pan="0"/>
          <note len="24" pos="1248" key="28" vol="127" pan="0"/>
          <note len="24" pos="1296" key="30" vol="85" pan="0"/>
          <note len="24" pos="1320" key="24" vol="127" pan="0"/>
          <note len="24" pos="1344" key="30" vol="93" pan="0"/>
          <note len="24" pos="1368" key="24" vol="127" pan="0"/>
          <note len="24" pos="1392" key="24" vol="127" pan="0"/>
          <note len="24" pos="1416" key="30" vol="108" pan="0"/>
          <note len="24" pos="1440" key="28" vol="127" pan="0"/>
          <note len="24" pos="1488" key="24" vol="127" pan="0"/>
          <note len="24" pos="1512" key="30" vol="102" pan="0"/>
        </pattern>
        <pattern type="1" pos="13824" muted="0" name="Drums" steps="16">
          <note len="24" pos="0" key="24" vol="127" pan="0"/>
          <note len="24" pos="48" key="30" vol="82" pan="0"/>
          <note len="24" pos="72" key="24" vol="127" pan="0"/>
          <note len="24" pos="96" key="28" vol="127" pan="0"/>
          <note len="24" pos="144" key="30" vol="85" pan="0"/>
          <note len="24" pos="168" key="24" vol="127" pan="0"/>
          <note len="24" pos="192" key="30" vol="93" pan="0"/>
          <note len="24" pos="216" key="24" vol="127" pan="0"/>
          <note len="24" pos="240" key="24" vol="127" pan="0"/>
          <note len="24" pos="264" key="30" vol="108" pan="0"/>
          <note len="24" pos="288" key="28" vol="127" pan="0"/>
          <note len="24" pos="336" key="24" vol="127" pan="0"/>
          <note len="24" pos="360" key="30" vol="102" pan="0"/>
          <note len="24" pos="384" key="24" vol="127" pan="0"/>
          <note len="24" pos="432" key="30" vol="82" pan="0"/>
          <note len="24" pos="456" key="24" vol="127" pan="0"/>
          <note len="24" pos="480" key="28" vol="127" pan="0"/>
          <note len="24" pos="528" key="30" vol="85" pan="0"/>
          <note len="24" pos="552" key="24" vol="127" pan="0"/>
          <note len="24" pos="576" key="30" vol="93" pan="0"/>
          <note len="24" pos="600" key="24" vol="127" pan="0"/>
          <note len="24" pos="624" key="24" vol="127" pan="0"/>
          <note len="24" pos="648" key="30" vol="108" pan="0"/>
          <note len="24" pos="672" key="28" vol="127" pan="0"/>
          <note len="24" pos="720" key="24" vol="127" pan="0"/>
          <note len="24" pos="744" key="30" vol="102" pan="0"/>
          <note len="24" pos="768" key="24" vol="127" pan="0"/>
          <note len="24" pos="816" key="30" vol="82" pan="0"/>
          <note len="24" pos="840" key="24" vol="127" pan="0"/>
          <note len="24" pos="864" key="28" vol="127" pan="0"/>
          <note len="24" pos="912" key="30" vol="85" pan="0"/>
          <note len="24" pos="936" key="24" vol="127" pan="0"/>
          <note len="24" pos="960" key="30" vol="93" pan="0"/>
          <note len="24" pos="984" key="24" vol="127" pan="0"/>
          <note len="24" pos="1008" key="24" vol="127" pan="0"/>
          <note len="24" pos="1032" key="30" vol="108" pan="0"/>
          <note len="24" pos="1056" key="28" vol="127" pan="0"/>
          <note len="24" pos="1104" key="24" vol="127" pan="0"/>
          <note len="24" pos="1128" key="30" vol="102" pan="0"/>
          <note len="24" pos="1152" key="24" vol="127" pan="0"/>
          <note len="24" pos="1200" key="30" vol="82" pan="0"/>
          <note len="24" pos="1224" key="24" vol="127" pan="0"/>
          <note len="24" pos="1248" key="28" vol="127" pan="0"/>
          <note len="24" pos="1296" key="30" vol="85" pan="0"/>
          <note len="24" pos="1320" key="24" vol="127" pan="0"/>
          <note len="24" pos="1344" key="30" vol="93" pan="0"/>
          <note len="24" pos="1368" key="24" vol="127" pan="0"/>
          <note len="24" pos="1392" key="24" vol="127" pan="0"/>
          <note len="24" pos="1416" key="30" vol="108" pan="0"/>
          <note len="24" pos="1440" key="28" vol="127" pan="0"/>
          <note len="24" pos="1488" key="24" vol="127" pan="0"/>
          <note len="24" pos="1512" key="30" vol="102" pan="0"/>
        </pattern>
      </track>
    </trackcontainer>
    <track type="6" solo="0" muted="0" name="Automation track">
      <automationtrack/>
      <automationpattern len="192" pos="0" tens="1" name="Numerator" mute="0" prog="0"/>
      <automationpattern len="192" pos="0" tens="1" name="Denominator" mute="0" prog="0"/>
      <automationpattern len="192" pos="0" tens="1" name="Tempo" mute="0" prog="0"/>
      <automationpattern len="192" pos="0" tens="1" name="Master volume" mute="0" prog="0"/>
      <automationpattern len="192" pos="0" tens="1" name="Master pitch" mute="0" prog="0"/>
      <automationpattern len="192" pos="0" tens="1" name="Numerator" mute="0" prog="0"/>
      <automationpattern len="192" pos="0" tens="1" name="Denominator" mute="0" prog="0"/>
      <automationpattern len="192" pos="0" tens="1" name="Tempo" mute="0" prog="0"/>
      <automationpattern len="192" pos="0" tens="1" name="Master volume" mute="0" prog="0"/>
      <automationpattern len="192" pos="0" tens="1" name="Master pitch" mute="0" prog="0"/>
    </track>
    <fxmixer visible="1" y="497" maximized="0" width="561" x="75" height="333" minimized="0">
      <fxchannel muted="0" name="Master" num="0" volume="1" soloed="0">
        <fxchain enabled="0" numofeffects="0"/>
      </fxchannel>
    </fxmixer>
    <ControllerRackView visible="0" y="407" maximized="0" width="350" x="836" height="200" minimized="0"/>
    <pianoroll visible="0" y="425" maximized="0" width="860" x="89" height="480" minimized="0"/>
    <automationeditor visible="0" y="255" maximized="0" width="860" x="56" height="400" minimized="0"/>
    <projectnotes visible="0" y="461" maximized="0" width="902" x="179" height="400" minimized="0"><![CDATA[<!DOCTYPE HTML PUBLIC "-//W3C//DTD HTML 4.0//EN" "http://www.w3.org/TR/REC-html40/strict.dtd">
<html><head><meta name="qrichtext" content="1" /><style type="text/css">
p, li { white-space: pre-wrap; }
</style></head><body style=" font-family:'Noto Sans'; font-size:10pt; font-weight:400; font-style:normal;">
<p style=" margin-top:0px; margin-bottom:0px; margin-left:0px; margin-right:0px; -qt-block-indent:0; text-indent:0px;"><span style=" font-family:'Cantarell'; font-size:11pt;">Electrified Toxic Waste</span></p>
<p style=" margin-top:0px; margin-bottom:0px; margin-left:0px; margin-right:0px; -qt-block-indent:0; text-indent:0px;"><span style=" font-family:'Cantarell'; font-size:11pt;">==============</span></p>
<p style=" margin-top:0px; margin-bottom:0px; margin-left:0px; margin-right:0px; -qt-block-indent:0; text-indent:0px;"><span style=" font-family:'Cantarell'; font-size:11pt;">Notes:</span></p>
<p style=" margin-top:0px; margin-bottom:0px; margin-left:0px; margin-right:0px; -qt-block-indent:0; text-indent:0px;"><span style=" font-family:'Cantarell'; font-size:11pt;">- drum pattern change at measure 49</span></p></body></html>]]></projectnotes>
    <timeline lp0pos="0" lpstate="1" lp1pos="15360"/>
    <controllers/>
  </song>
</lmms-project>
